/* XPM */
static char *result[] = {
/* columns rows colors chars-per-pixel */
"64 65 219 2 ",
"   c #000F1B",
".  c #180B1E",
"X  c #0F1114",
"o  c #04151E",
"O  c #08171F",
"+  c #07181F",
"@  c #08191F",
"#  c #151517",
"$  c #161619",
"%  c #1A161B",
"&  c #1A1A1C",
"*  c #231D1C",
"=  c #2B221D",
"-  c #190E26",
";  c #061621",
":  c #0A1721",
">  c #071820",
",  c #091A22",
"<  c #131625",
"1  c #1C1425",
"2  c #161A26",
"3  c #1C112A",
"4  c #231627",
"5  c #301928",
"6  c #0C2124",
"7  c #0F2629",
"8  c #112527",
"9  c #13242A",
"0  c #122B2B",
"q  c #192C2B",
"w  c #15312E",
"e  c #1A312C",
"r  c #1B2A32",
"t  c #163431",
"y  c #193834",
"u  c #1B3D36",
"i  c #272627",
"p  c #352D29",
"a  c #3B322E",
"s  c #272B37",
"d  c #2D3134",
"f  c #233C32",
"g  c #273439",
"h  c #28323E",
"j  c #363538",
"k  c #502C1B",
"l  c #541A32",
"z  c #651931",
"x  c #51302B",
"c  c #1D4338",
"v  c #1D4339",
"b  c #274538",
"n  c #234B3D",
"m  c #2F503E",
"M  c #36563C",
"N  c #4A423C",
"B  c #53453A",
"V  c #6C452D",
"C  c #2D3743",
"Z  c #363B45",
"A  c #473D52",
"S  c #274B41",
"D  c #364847",
"F  c #265545",
"G  c #295546",
"H  c #285A47",
"J  c #2C5E4B",
"K  c #375B46",
"L  c #3F4453",
"P  c #2D634C",
"I  c #2F694E",
"U  c #3A6547",
"Y  c #306A4F",
"T  c #3D704E",
"R  c #2E6750",
"E  c #2F6950",
"W  c #366752",
"Q  c #326B50",
"!  c #3A7156",
"~  c #494A4B",
"^  c #4F5946",
"/  c #4B4B54",
"(  c #514E53",
")  c #4D5155",
"_  c #485956",
"`  c #565759",
"'  c #6C534C",
"]  c #416543",
"[  c #476B49",
"{  c #526448",
"}  c #537D4E",
"|  c #457954",
" . c #467F57",
".. c #547255",
"X. c #72665C",
"o. c #4F5062",
"O. c #5A5A67",
"+. c #685A6B",
"@. c #596B63",
"#. c #4E7469",
"$. c #65686B",
"%. c #756964",
"&. c #667A6C",
"*. c #676C75",
"=. c #766F73",
"-. c #6C7774",
";. c #B01D2B",
":. c #B42030",
">. c #CB1D27",
",. c #CA2833",
"<. c #CE3136",
"1. c #925B35",
"2. c #D43F42",
"3. c #985E59",
"4. c #876B59",
"5. c #917568",
"6. c #F07778",
"7. c #498157",
"8. c #4C8459",
"9. c #4F885A",
"0. c #5C8955",
"q. c #50895A",
"w. c #618C58",
"e. c #67985B",
"r. c #71A55F",
"t. c #4F8265",
"y. c #6D8D6A",
"u. c #6B9665",
"i. c #778D7C",
"p. c #6BA463",
"a. c #77AA66",
"s. c #7BB367",
"d. c #7EA672",
"f. c #998375",
"g. c #B18E70",
"h. c #85BE6B",
"j. c #88B677",
"k. c #D79E6C",
"l. c #DC9D74",
"z. c #E7887A",
"x. c #86C16C",
"c. c #89C36E",
"v. c #94C77D",
"b. c #97CA7E",
"n. c #787983",
"m. c #7D9285",
"M. c #838688",
"N. c #83868A",
"B. c #8B899A",
"V. c #8C9692",
"C. c #AF9387",
"Z. c #91A891",
"A. c #9AB599",
"S. c #AAB299",
"D. c #9798A3",
"F. c #A29CAD",
"G. c #9CA2A5",
"H. c #A7A8AE",
"J. c #ACB0B5",
"K. c #B5B5B5",
"L. c #BBBEBF",
"P. c #D89889",
"I. c #CDAA8D",
"U. c #C7AC94",
"Y. c #D5B59A",
"T. c #EDAC91",
"R. c #F3B69B",
"E. c #9BCC85",
"W. c #9BCE84",
"Q. c #9FD088",
"!. c #A1D28A",
"~. c #A2C89F",
"^. c #B0CBA9",
"/. c #BBD4B3",
"(. c #BFDEB7",
"). c #BFDEB8",
"_. c #BAE0A6",
"`. c #E5C19D",
"'. c #FBC69E",
"]. c #C3DDB9",
"[. c #EAC8A8",
"{. c #F7CAA6",
"}. c #F9CFA7",
"|. c #F9D0A7",
" X c #FBD1AA",
".X c #F8D2AA",
"XX c #F6D5B2",
"oX c #FAD4B1",
"OX c #C3E1BB",
"+X c #CCE6BF",
"@X c #B7B6C3",
"#X c #C3BBC9",
"$X c #C5C7CA",
"%X c #CDCDD2",
"&X c #CED2D7",
"*X c #D4D4DD",
"=X c #D8D3DC",
"-X c #D6DADC",
";X c #D2EBC4",
":X c #D6F1C8",
">X c #DBF6CC",
",X c #DEF9CD",
"<X c #DFF8D2",
"1X c #E1F9CF",
"2X c #E2FAD2",
"3X c #E7FFD8",
"4X c #D8DEE2",
"5X c #DCE2E4",
"6X c #E3E2E3",
"7X c #E7E8E8",
"8X c #E9EAEB",
"9X c #FDF7EE",
"0X c #FEF8EE",
"qX c #EAEDF2",
"wX c #F2EEF2",
"eX c #EEF2F3",
"rX c #F3F3F5",
"tX c #F7F9F8",
"yX c #FEFEFE",
/* pixels */
"<X<X2X<X<X<X2X2Xy.  &.2X1X1X2X2X2X2X2X<X:XD O A.3X2X2X2X2X2X2X2X2X2X2X2X2X2X2X>XD X A.2X2X2X1X2X<X2X2X2X].2 q ;X<X<X2X2X2X,X2Xm.",
"<X<X>X>X>X>X>X,X&.  &.1X>X>X>X>X>X>X>X>X+XD : A.2X>X>X>X>X>X>X>X>X>X>X>X>X>X>X:XD o Z.1X>X,X>X>X>X>X>X,X^.9 e ].:X>X>X>X>X:X:Xi.",
",X>X!.b.b.b.b.b.[   [ E.b.b.E.v.b.b.b.b.v.b o e.b.b.b.b.b.b.b.b.b.b.b.b.b.b.b.v.b o u.W.b.b.b.b.b.b.b.b.a.8 8 j.W.b.b.b.W.u.t.S ",
"2X>Xb.x.x.x.c.x.] ; K h.h.h.h.h.h.h.h.h.s.f o w.c.h.h.h.h.h.h.h.h.h.h.h.h.h.h.h.f   q.c.x.x.h.h.h.x.x.c.r.6 8 a.h.h.h.h.x.9.I c ",
"<X>Xb.x.x.x.c.c.U ; b 7. . . . . . .7. . .0 + K 8. . . . . . . . . . . . . . . .w o K 8. . .7. . .7. .7.T > 8 | 8.s.c.x.x.9.I c ",
"2X>Xb.h.x.h.x.c.] o y E I R R R R E R I P 7 ; F Q I R R R R R E R R R R R R I I 0 > n E E R R R I I R E H > , J Q a.c.x.x.9.I c ",
"<X>XW.x.x.x.c.c.] o 7 w t t t t t t t t t 6 > 0 t t t t t t t t t t t t t t t w , > 0 t t t t t t t t t t > 6 J Q s.c.c.x.q.E c ",
"2X,Xb.c.c.c.c.c.] o ; O ; o o ; > o + o o + > > o o ; O ; o o > ; ; o O o ; o ; > > > ; o ; O ; o o ; o o ; 6 P Q s.c.c.c.q.E c ",
"-.-.[ ] U ] ] ] f ; > > > > > > > > > > > > > > > > > > > > > > ; > > > > > > > > > > > > > > > > > > > > ; , y c U ] ] ] b u 0 ",
"o           ; o o ; > > > > > > > > > > > > > > > > > > > > > > @ > > > > > > > > > > > > > > > > > > > > , , o o     o   ; ; ; ",
"&.&.] ] ] ] b u 0 ; ; > ; @ > > > > > > > > > > > > > > > > > > > > > ; > > > > > > > > > > > > > > > > > > , y u @.&.[ U b y 0 ",
"2X,XW.c.h.h.q.Q u ; @ @ > > > > > > > > > > > > > > > > > > > > > > > @ > > > > > > > > > > > > > > > > > > , P ! OX2X!.c.q.Q v ",
"<X>Xb.x.h.c.9.I u ; @ > > > > > > > > > > > > > > > > > > > > > > > > > > > > > > > > > > > > > > > > > > > 6 J ! (.2XE.h.q.Y c ",
"2X>Xb.h.x.x.9.Y u ; + > > @ > > > > > > > > > > > > > > > > > > > > > @ > > > > > > > > > > > > > > > > > > 6 P ! ].1XE.h.q.I c ",
",X>Xb.x.x.x.q.Y u ; > > > > > > > > > > > > > > > > + o o o + o o o + o + o o > > > > > > > > > > > > > > > 6 P ! ].1X!.h.9.I c ",
"2X>XW.x.c.c.q.Q u > > > > > > > > > > > > > > > > , s h h h h h h h h h h h g , > > > > > > > > > > > > @ o 6 P Q OX2X!.c.q.E c ",
"/./.d.r.r.r.| J y ; ; > > > > > > > > > > > > > o s #X=X=X=X=X=X=X=X=X=X=X=X&XC o > > > > > > > > > > > > > , F R A.].j.r.| G u ",
"0 9 8 6 6 6 6 @ , , > > > > > > > > > > > > > o r G.tXyXyXyXyXyXyXyXyXyXyXyXyXD.y o > > > > > > > > > > , ; , , , 9 9 6 , , , > ",
"r r 0 8 8 q 6 6 > > > > > > > > > > > > ; ; o g D.yXyXyXyXyXyXyXyXyXyXyXyXyXyX5XD.o.> > > > > > > > > > > ; , , 9 r r 9 8 6 8 > ",
"].].j.a.a.r.| J y ; @ > > > > > > > > > > ; ; _ yXyXyXyXyXyXyXyXyXyXyXyXyXyX8X5X*X@Xo., > > > > > > > > > , 6 F Q ^.].j.a.| P u ",
"1X,Xb.x.c.c.q.Y u > > > > > > > > > > > > > s n.tXyXyXyXyXyXyXyXyXyXyXyXyXeX4X4X*X4X@X; > > > > > > > > > > 6 P ! OX1XQ.x.q.Y c ",
"1X>Xb.h.x.x.9.Y u ; > > > > > > > > > ; > > D.wXyXyXtXyXtXtXyXtXtXyXyXtXeX4X-X-X*X4X@X, > > > > > > > > > > 6 J ! ].1XE.x.q.Y c ",
"2X>Xb.x.x.x.q.I u ; @ > > @ > > > > ; ; : : J.yX-X` ) ) ) ) ) ) ) ) ) ) ) / ) @X4X4X@X; > > > > > > > > > > 6 J ! ].1XQ.h.9.I c ",
"2X>Xb.x.x.x.9.I u ; > > > > > > > > ; ; : : A ` ~ & $ $ $ % $ $ $ $ $ $ $ $ & Z ~ *.@X: > > > > > > > > > > 6 J ! (.2X!.h.9.I c ",
"2X>Xb.x.c.c.9.I c o + + > > > > > > > > : 3 - X a H.K.K.K.K.K.K.K.K.K.K.K.K.J.d X i ~ ; ; > > > > > > > @ ; 6 P ! OX2X!.x.9.I c ",
"@.@.K M M M b w 7 > > > > > > > > > > > O 3 ~ O.M.yXyXyXyXyXyXyXyXyXyXyXyXyXyXM.O.~ . : o > > > > > > > > > > w u _ @.] M b w 8 ",
"    o o o o o @ ; ; > > > > > > > > > > h Z $XrX-X7X0X0X9X9X9X9X9X0X8X5X6X6X6XwXyX$Xj j C 2 ; > > > > > > > ; ; o o     o o @ ; ",
"i.i.} [ [ [ m c 0 > @ > > > > > > @ > C %X8X8XK.d ~ [..XoXoX.XXXoXoX%.p s 5 d ].8X7X8X7X-X) 2 > > > > > > > , u n &.i...[ m c 0 ",
"2X1Xb.c.c.c.q.Y u ; @ > > > > > > , A %XrX4X) i % N [.}.}.}.|.|.|.oXX.& % % & d d ) &X5XtX6Xn.< > > > > > > 6 P ! OX2X!.c.9.I v ",
"2X>Xb.h.x.x.9.I u ; > > > > > > ; $.%X4X4X/ & $ x Y..X|.|.}.|.}..X.X[.' # % & % $ % ) -X4X4X*Xn.o > > > > > 6 J ! ].1XQ.x.9.I v ",
"2X>Xb.h.x.x.9.I c ; ; > > > > > ; / D.4X%XZ $ p 4.z.z.R.|.{.|.{.z.z.R.g.B * & % # # d V.D.$XqXD.o > > > > > 6 P ! OX1XE.x.q.I v ",
"<X>Xb.x.x.x.q.Y u ; > > > > > > ; o C B.%X*.2 B T.,.,.T.|.}.|.T.<.>.z.oXY.p # & B ~ $ # s J.@XO.o > > > + o 6 J ! (.1XQ.h.q.I v ",
"2X>XW.c.c.c.q.Y u O > > > > > > > > ; 9 B.H.j B T.,.<.T.|.|..XT.2.>.z.`.f.p N i S.U.* 4 ` D.O.o o > > > > ; 6 J ! OX1XQ.c.q.Y c ",
"^.^.a.e.p.e.[ H t O > > > > > > > > ; > , 3 & B T.<.2.T.|.|..XT.2.<.z.5.p = U.' U.U.* C F.C > > > > > > > ; , F J A.K.j.e.T F c ",
", , > > > > > @ > > > > > > > > > > ; > , : . x R.6.6.R.|.|.|.'.z.6.T.[.C.i I.[.oXU.4 < 9 ; ; > > > > > > , : > + + , , @ @ @ + ",
"g g e e e e 9 8 , > @ > > > > > > > , ; : , +.C.{.R.R.{.|.|.|.}.R.R.{.}.`.g.`.f.%.` 4 ; : O ; > > > > > > ; , 6 7 g f e e 8 6 6 ",
";X;Xj.s.s.s. .P u , ; > > > > > > > > > ; , / C. X.X}.}.|.|.|.|.|.|..XXX.X|.f.= $ - < @ @ > > > > > > > > > 6 H W ^.;Xv.s.7.P c ",
"2X<Xb.x.c.x.q.Y u : > > + > > > > > > > , ; ; s 5.f.{. X|.|.|.|.|.|..Xk.f.X.= # < < O ; ; > > > > > > > > > 6 J ! (.1X!.c.9.I c ",
",X>Xb.x.x.x.9.I u ; > > > > > > > > > > ; ; ; ; ; r C.Y.U.Y.`.I.Y.U.I.B X $ & 6 > > > > > > > > > > > > @ > 6 P ! ].1XE.h.q.I c ",
"<X>Xb.x.x.x.q.E u ; > > > > > > > > > > ; ; ; ; ; ; 3 n.` %.g.a =.~ i * & 1 , + > > > > @ > > > > > > > ; > 6 J ! ).1XE.h.9.I c ",
"<X>Xb.x.x.c.q.I u ; > > + > > > > > > > > > > > ; 2 O.*.B.N.$.H.-.*.j $ & & 2 : @ > > > , ; @ > > > > > > ; 6 J ! ).1X!.x.q.I c ",
",X>Xb.x.x.x.9.I u ; + > > > > > > > > > > > > > : s n.*.G.&X-X5XN.-.D & & & & 4 : > > > > > > > > > > > + ; 6 P ! ).2XE.x.q.I c ",
"_ _ b b b b y w 6 , > > > > > > > > > > > > > > : 4 j $.D.8XyX7XN.~ i # & & & & < > > > > > > > > > > > > > , 0 t D _ m b K Y c ",
"o o o o O o o O ; > ; > > > > > > > > > > > > ; < 1 i @.V.&X7X$Xm.j # & & & & & 2 < > > > > > > > > > > > > ; o o o o o o n Q c ",
"Z.V.0.} } } K n 0 , ; > > > > > > > > > > > > < 2 & i ` *.G.L.-.$.j & & & & * & 1 3 > > > > > > > > > > > > , c F i.V.w.} T I v ",
"1X1Xb.c.c.c.q.I u ; > > > > > > > > > > > > > < & & & & j G.L.` i 1 & & & & & & & 3 : > > > > > > > > > > > 6 P ! OX2X!.x.q.I v ",
",X>Xb.h.x.x.9.I c ; > > > > > > > > > > > > 3 1 & & & $ & ~ X.& 2 & & & & & & & & 1 3 > > > > > > > > > + > 6 J ! ].1XE.h.q.I c ",
",X>Xb.h.x.x.q.I u ; > > > > > > > > , ; > > 3 & & & & & $ V 1.# & & & & & & & & & & 1 > > > > > > > > > + + 6 P ! (.2XQ.h.q.I c ",
"<X,Xb.x.c.x.9.Y c + > > > > > > , 3 l z l 2 - 1 & & & & $ x V # & & & & & & & & & & 3 : > > > > > > > > > > 6 J Q ).2X!.h.q.Y b ",
"2X,XW.c.c.c.q.Y c + > > > > > > ; l ;.:.,.5 - % & & & & $ k k $ & & & & & & & & & % 3 : > > > > > > > > > > 6 P ! OX3X!.c.q.E c ",
"A.A.u.w.w.w.U n w > > > > > > > ; z ,.;.:.5 3 - % & & & % k 1.% & & & & & & & & $ % 3 : > > > > > > > > > ; , n H Z.A.u.w.U S y ",
"+ o + + > + @ + o > > > > > > > ; l ;.;.:.x Z p p 4 & & % # X & & & & & & & p a a a a > > > > > > > > > ; , , + > o o @ + o + > ",
"D D f f f y e 8 , ; @ > > > > > > , 1 4 l 6.l.l.g.* & & & & & & & & & & & * g.k.k.k.5.9 > > > @ > > > > > > > 9 9 b D f u q 8 6 ",
">X;Xv.s.h.h.8.P u ; + > > > > > > @ > > - V T.{.I.* % % $ % $ $ $ $ & $ . % V T.'.'.P.2 > > > > > > > > > > 6 J ! /.:XE.h.8.P c ",
"<X,Xb.h.h.x.q.I c ; + > > > > > @ ; : O O 4 ' 3.%.V.N.N.N.N.N.N.N.N.m.N.m.N.n.=.%.%.) , > > > > > > > > > > 6 J ! ).1XE.h.9.I c ",
"<X>Xb.h.h.h.q.I u ; > > > > > > ; ; o : O o 1 . Z rXrX4X4X5X5X&XB.%XeXeXqX4X4XC o o > > > > > > > > > > > > 6 J ! ).1XE.x.9.I c ",
"<X>Xb.x.x.c.9.I u : > > > ; > > > > > > > > + o D rXyX5X4X#XD.B.r N.8XyXtX5X*XC o @ + + > + > > > > > ; > > 6 H ! ].2XE.h.q.I c ",
"<X>Xb.c.x.x.9.I u ; > > ; , > > > > > , > > O o L rXyXtXqXD.9 9 ; 2 H.yXyXtX4XD o + + + > > > > > > > ; > > 6 P Q ).2XQ.x.q.R c ",
">X:Xv.s.h.h.9.I u ; > : > O , > > > > > , O > o D rXyXyXrXB.o > , ; G.yXyXtX*XC o @ @ @ , @ , + > > o , > + 6 P ! /.>XQ.h.9.R c ",
"D D b f f f w 7 6 : > ; 0 G H H F H F F H H H F #.rXyXyXqXD.F F H F J.yXyXrX4X#.F H H H H F H F G H n > > > , 7 0 D D b f e 0 6 ",
"+ o o o ; o ; > > > + + e R I Q Q Q Q Q Q Q W J Z ( ~ ( $.#.Q Q Q Q _ ( / ~ / W I I Q Y Y Q I I Q Q F @ + 6 + + + o o o o o o ; ",
"A.A.w.0.0.0.U n w + w n T p.p.p.p.p.p.p.p.p.p.w.) ^ { { w.p.p.p.p.p.} ^ { { { u.p.p.p.p.p.p.p.p.p.p.0.F c + 6 v m V.A.u.0.U n t ",
"2X,XW.c.c.c.9.I u ; c P 8.x.h.x.x.h.x.x.x.h.h.h.h.h.h.h.h.x.x.h.c.h.h.h.h.h.x.x.x.x.x.x.x.x.x.x.x.c.p.Y P 6 6 P ! ).2X!.c.q.Q v ",
"2X>Xb.h.x.x.9.I u ; _ A.~._._._._._._._._._._._._._._._._._._._._._._._._._._._._._._._._._._._._._.^.~.m.6 6 P ! ).2XE.x.q.I v ",
"2X>XE.h.x.x.9.I u o &.2X2X2X2X2X2X2X2X2X2X2X2X2X2X1X2X2X2X2X2X2X2X1X1X1X2X2X2X2X2X2X2X2X2X2X2X2X2X2X1X3X].< < J ! ].1XE.h.9.I c "
};
