/* XPM */
static char *result[] = {
/* columns rows colors chars-per-pixel */
"64 67 83 1 ",
"  c #000000",
". c #0C0C0C",
"X c #100607",
"o c #110708",
"O c #131313",
"+ c #171817",
"@ c #1B1B1A",
"# c #212322",
"$ c #323232",
"% c #3E3E3E",
"& c #484947",
"* c #4A4B4A",
"= c #525252",
"- c #5D5D5D",
"; c #626462",
": c #646864",
"> c gray42",
", c #747474",
"< c #797D79",
"1 c #9F2523",
"2 c #853D3C",
"3 c #8C3E3C",
"4 c #B82A26",
"5 c #B52E2A",
"6 c #BB2E29",
"7 c #AC302D",
"8 c #AB3431",
"9 c #B13937",
"0 c #C62622",
"q c #CB2622",
"w c #C22924",
"e c #CC2823",
"r c #AF423F",
"t c #805455",
"y c #B95C5B",
"u c #8F6565",
"i c #936D6C",
"p c #937473",
"a c #9D7A7A",
"s c #B96A68",
"d c #838483",
"f c #878C87",
"g c #8C8D8C",
"h c #948989",
"j c #8C918C",
"k c #949494",
"l c #949A94",
"z c #9A9A9A",
"x c #A18888",
"c c #AF9594",
"v c #AA999A",
"b c #9EA09E",
"n c #A0A09F",
"m c #9F9FA0",
"M c #A4A4A4",
"N c #A5A9A5",
"B c #A6A8A8",
"V c #ABACAB",
"C c #B4A3A3",
"Z c #B2AEAE",
"A c #ACB3AC",
"S c #AFB6B0",
"D c #B4B5B4",
"F c #B3BAB3",
"G c #BAB8B7",
"H c #BCBCBC",
"J c #BAC3BB",
"K c #C4C4C4",
"L c #C4CAC4",
"P c #CBCBCB",
"I c #CBD5CC",
"U c #CED8CF",
"Y c #DBD0CF",
"T c #CFD9D0",
"R c #D2D2D2",
"E c #D0DAD0",
"W c #DCDCDC",
"Q c #E0D9D8",
"! c #E5E5E5",
"~ c #ECECEC",
"^ c #F4F4F4",
"/ c #FEFEFE",
"( c None",
/* pixels */
"((((((((((((((((((((((((((((((((((((((((((((((((((((((((((((((((",
"((((((((((((((((((((((((((((((((((((((((((((((((((((((((((((((((",
"((((((((((((((((((((((((((((((((((((((((((((((((((((((((((((((((",
"((((((((((((((((((((((((((((((((((((((((((((((((((((((((((((((((",
"((((((((((((((((((((((((((((((((((((((((((((((((((((((((((((((((",
"((((((((((((((((((((((((((((((((((((((((((((((((((((((((((((((((",
"((((((((((((((((((((((((OOOOOOOOOOOOOOOO((((((((((((((((((((((((",
"(((((((((((((((((((((((O                O(((((((((((((((((((((((",
"(((((((((((((((((((((((. +@@@.+oo+.@@#+ .(((((((((((((((((((((((",
"(((((((((((((((((((((((. =KWWh3112hWWP; O(((((((((((((((((((((((",
"(((((((((((((((((((((((O%,dkZy0ee0sGMkd%.(((((((((((((((((((((((",
"(((((((((((((((((((((((@D/^!c4qeeq5C!^/z.(((((((((((((((((((((((",
"(((((((((((((((((((((((O-DVMawqeee6xVDH-.(((((((((((((((((((((((",
"(((((((((((((((((((((((.=HR~Y9qeeqrQ~RG*.(((((((((((((((((((((((",
"(((((((((((((((((((((((@D//!mi7ww8pm!//k.(((((((((((((((((((((((",
"(((((((((((((((((((((((@G/KkKzvtuCzPgK/z.(((((((((((((((((((((((",
"(((((((((((((((((((((((O-kM~PzKgBKZK~zf;.(((((((((((((((((((((((",
"(((((((((((((((((((((((.$K/^g!VVKV~z~/D#.(((((((((((((((((((((((",
"(((((((((((((((((((((((+B//VG~VHPV!KZ//f.(((((((((((((((((((((((",
"(((((((((((((((((((((((@D/!k/KKKRKK/mW/z.(((((((((((((((((((((((",
"(((((((((((((((((((((((@D/zR/V!KR!M/Wm/z.(((((((((((((((((((((((",
"(((((((((((((((((((((((@GPB/~B/HR/m~/ZKz.(((((((((((((((((((((((",
"(((((((((((((((((((((((+=,~/RH/HR/ZR/^f*O(((((((((((((((((((((((",
"(((((((((((((((((((((((.OD//ZQ/HP/RV//K+.(((((((((((((((((((((((",
"(((((((((((((((((((((((.>//~M//DP/^z^//,.(((((((((((((((((((((((",
"(((((((((((((((((((((((@D//RlPJMBDKgW//kO(((((((((((((((((((((((",
"(((((((((((((((((((((((@D/^zfFLIIJS<k//z.(((((((((((((((((((((((",
"(((((((((((((((((((((((@G^zAIIIIIIUINV^k.(((((((((((((((((((((((",
"(((((((((((((((((((((((@VNSUIIIIIIIIIFFj.(((((((((((((((((((((((",
"(((((((((((((((((((((((O*AUIIIIIIIIIIIF&.(((((((((((((((((((((((",
"(((((((((((((((((((((((.:IIIIIIIIIIIIIU;.(((((((((((((((((((((((",
"(((((((((((((((((((((((+lIIIIIIIIIIIIIUfO(((((((((((((((((((((((",
"(((((((((((((((((((((((+lUIIIIIIIIIIIIUgO(((((((((((((((((((((((",
"(((((((((((((((((((((((+lUIIIIIIIIIIIIUj+(((((((((((((((((((((((",
"(((((((((((((((((((((((@lUIIIIIIIIIIIIUjO(((((((((((((((((((((((",
"(((((((((((((((((((((((+lTIIIIIIIIIIIUUj+(((((((((((((((((((((((",
"(((((((((((((((((((((((+fJJJJJJJJJJJJJJd+(((((((((((((((((((((((",
"(((((((((((((((((((((((O@##############+O(((((((((((((((((((((((",
"(((((((((((((((((((((((O                .(((((((((((((((((((((((",
"(((((((((((((((((((((((.                .(((((((((((((((((((((((",
"(((((((((((((((((((((((.                .(((((((((((((((((((((((",
"((((((((((((((((((((((((................((((((((((((((((((((((((",
"((((((((((((((((((((((((((((((((((((((((((((((((((((((((((((((((",
"((((((((((((((((((((((((((((((((((((((((((((((((((((((((((((((((",
"((((((((((((((((((((((((((((((((((((((((((((((((((((((((((((((((",
"((((((((((((((((((((((((((((((((((((((((((((((((((((((((((((((((",
"((((((((((((((((((((((((((((((((((((((((((((((((((((((((((((((((",
"((((((((((((((((((((((((((((((((((((((((((((((((((((((((((((((((",
"((((((((((((((((((((((((((((((((((((((((((((((((((((((((((((((((",
"((((((((((((((((((((((((((((((((((((((((((((((((((((((((((((((((",
"((((((((((((((((((((((((((((((((((((((((((((((((((((((((((((((((",
"((((((((((((((((((((((((((((((((((((((((((((((((((((((((((((((((",
"((((((((((((((((((((((((((((((((((((((((((((((((((((((((((((((((",
"((((((((((((((((((((((((((((((((((((((((((((((((((((((((((((((((",
"((((((((((((((((((((((((((((((((((((((((((((((((((((((((((((((((",
"((((((((((((((((((((((((((((((((((((((((((((((((((((((((((((((((",
"((((((((((((((((((((((((((((((((((((((((((((((((((((((((((((((((",
"((((((((((((((((((((((((((((((((((((((((((((((((((((((((((((((((",
"((((((((((((((((((((((((((((((((((((((((((((((((((((((((((((((((",
"((((((((((((((((((((((((((((((((((((((((((((((((((((((((((((((((",
"((((((((((((((((((((((((((((((((((((((((((((((((((((((((((((((((",
"((((((((((((((((((((((((((((((((((((((((((((((((((((((((((((((((",
"((((((((((((((((((((((((((((((((((((((((((((((((((((((((((((((((",
"((((((((((((((((((((((((((((((((((((((((((((((((((((((((((((((((",
"((((((((((((((((((((((((((((((((((((((((((((((((((((((((((((((((",
"((((((((((((((((((((((((((((((((((((((((((((((((((((((((((((((((",
"(((((((((((((((((((((((((((((((((((((((((((((((((((((((((((((((("
};
