/* XPM */
static char *result[] = {
/* columns rows colors chars-per-pixel */
"64 64 140 2 ",
"   c #1F393A",
".  c #253638",
"X  c #253B3D",
"o  c #283E3F",
"O  c #26413E",
"+  c #285D3E",
"@  c #253F41",
"#  c #283F40",
"$  c #244343",
"%  c #294544",
"&  c #254C45",
"*  c #2A4B46",
"=  c #234748",
"-  c #28474A",
";  c #254C4B",
":  c #2A4D4C",
">  c #31454C",
",  c #304F49",
"<  c #275245",
"1  c #2A5446",
"2  c #265B40",
"3  c #2D5C45",
"4  c #26524B",
"5  c #2C534C",
"6  c #2D5C4C",
"7  c #305746",
"8  c #315E46",
"9  c #31554D",
"0  c #325C4C",
"q  c #385F4D",
"w  c #2A4F50",
"e  c #354F54",
"r  c #3A4B54",
"t  c #275353",
"y  c #2C5453",
"u  c #275A54",
"i  c #2D5B53",
"p  c #2E5759",
"a  c #275B5C",
"s  c #2D5B5A",
"d  c #325553",
"f  c #395557",
"g  c #325C54",
"h  c #3A5D54",
"j  c #36535A",
"k  c #3B545A",
"l  c #335C5A",
"z  c #3C5C59",
"x  c #2F6045",
"c  c #2E614D",
"v  c #326445",
"b  c #386744",
"n  c #356946",
"m  c #396C45",
"M  c #33634C",
"N  c #39634D",
"B  c #356A4C",
"V  c #396C4B",
"C  c #3D7346",
"Z  c #3F7946",
"A  c #3B724B",
"S  c #3F7A49",
"D  c #2E6254",
"F  c #2E635A",
"G  c #2F695A",
"H  c #336353",
"J  c #3A6354",
"K  c #356B54",
"L  c #396C55",
"P  c #33645A",
"I  c #3A645C",
"U  c #356B5C",
"Y  c #3A6C5B",
"T  c #357155",
"R  c #3B7254",
"E  c #36715B",
"W  c #3B725C",
"Q  c #2F5F60",
"!  c #3F5761",
"~  c #365F61",
"^  c #385F62",
"/  c #336362",
"(  c #3B6462",
")  c #366C61",
"_  c #3A6C62",
"`  c #3A6C68",
"'  c #367262",
"]  c #3A7463",
"[  c #3B7866",
"{  c #3C7A69",
"}  c #424D56",
"|  c #414E59",
" . c #405F53",
".. c #40575D",
"X. c #445C5D",
"o. c #41724F",
"O. c #427D49",
"+. c #406857",
"@. c #43645A",
"#. c #48665B",
"$. c #446B5C",
"%. c #4C6A5C",
"&. c #417453",
"*. c #457C52",
"=. c #4A7A54",
"-. c #42765B",
";. c #4B745A",
":. c #42795D",
">. c #51725B",
",. c #445762",
"<. c #4A5C64",
"1. c #425F68",
"2. c #565E6B",
"3. c #456165",
"4. c #4C6463",
"5. c #416C62",
"6. c #4A6B67",
"7. c #45616A",
"8. c #4B666A",
"9. c #476E69",
"0. c #546764",
"q. c #55646C",
"w. c #53696A",
"e. c #427563",
"r. c #4A7364",
"t. c #437B61",
"y. c #4A7B64",
"u. c #447469",
"i. c #4C706A",
"p. c #547C65",
"a. c #52716C",
"s. c #587969",
"d. c #517371",
"f. c #597373",
"g. c #626774",
"h. c #468152",
"j. c #4B8253",
"k. c #548B54",
"l. c #458063",
"z. c #498064",
/* pixels */
"K P P K Y L H g 1 % o * * : : : y d d d P y g d d g 9 9 9 9 f d p p l p y * w w e j j d s s p y p y g 9 0 M J L J H P F s F F P ",
"Y U U H U U H g 9 g g * : % % - * t 5 P U P P d 9 d 9 9 9 9 d d p p s d : # - - # % : t s s y d y y i 0 9 N L Y L I g l Q / ) U ",
") ) U l P H H Y Y Y I 9 o . . o 5 p i H P P H g 9 , , 9 9 g d d p d H N d y w w 9 0 9 t t w w t y y s y i g P l P g y t a Q P P ",
"/ / P s l g H Y Y -.-.Y J 9 5 g P P P U K P Y _ I 9 9 d 9 g l d g h q q J H z d J N 9 p p w w t 5 y p y p p p a s t i s l Q s s ",
"P / l s g g g Y I Y W [ ] Y I ) ) U U U Y _ _ f.q.k f d g g h h h q N q N N N J I H g P g g g 9 i 5 : y y p p Q s s Q ( ` ` / Q ",
"P P _ / d 9 d g J P Y ] ] ] ) ) ) U Y u.e._ $.y.r.+.J h g h h h h N h N N q H J L P P P H H 9 5 5 : y w w w w w Q / / ( ` ( P l ",
"_ I ) l d g d d d 9 d I ) ' ) Y E W t.l.t.-.e.t.z.-.W -.J h J g N J U P M J Y U U Y J P U p y : : : : w : w w p s l P ` _ / P U ",
"( ) P I H g H g g H P U U ) U ] ] W t.t.:.:.:.:.-.R W Y L L Y K 0 U ) U J U ) Y Y U P U U g d 9 w y d : w w p w t t t y l l ) ( ",
"l d d l P d d i g g P U U U U E W W ] :.:.:.-.:.-.:.-.U K E G D D D G G ( 5._ U I U Y P ) U g g g h P w - w w ; w ; : 5 y d d d ",
"y y d d d y d p g F P U P G U ) U P W W -.-.-.&.-.W Y W ] E G F F D c i U P Y U U ) Y P Y H H h M H g i w - ; - ; : y y y y i p ",
"d y w w w w d l i g H d l H U U P J K W L L Y H L J K Y Y U D D D D u i F H P P U ) P H H H 9 9 9 9 q y y y y 5 p l t : : d d w ",
"d : d f d w p d y p p y g g g H H Y U U Y J J g g H M K U F D D D F i 6 4 i P U U ] U U U P H 5 * 5 < g P W W ) _ ) P y : : : : ",
"r d f l l d y y y d i 9 9 9 0 0 H J Y L 6.w.J J H H H P G ' G ) ) ) U F u 4 i G U U U Y E U U i 5 0 6 0 J J _ ] ] ) ) 8.z f | @ ",
"%.@.( z d y d p w y y 5 9 0 9 1 9 g H ) 9.] ] P ) ] U K G G ) E E U U U U D U ' ' ) _ W W U L M M J J M q N U P ) ' Y f.4.X.X.} ",
">.V J z l l d y w y d g y 9 9 * : 5 i U ] ' U ) ' ' ' U E ' U G G G G U U U U ) ] u.d.f.a.W E U T K M L N J Y Y U U K W A ;.%.J ",
"N q H h z j l p d d g g d 9 : w y w p l U ) l F / ' { ' E G U F F F F K U P D P U :.y.p.s.r.W E E W K R A K L W K K L A O.O.O.C ",
"V J J J z z d d l l l p p : w w : - 5 p g i p l g P ' { ' U D 6 6 H P H g : : y g *.*.h.j.;.U K Y W R K K M H L 3 5 J n V Z Z C ",
"d d h z f d p s p s l p y y p y w - : : : 5 5 y p p u U ' E H M P K P P H i g i i 0 V A A A K L R R A T J B M M 9 0 M H H q 7 9 ",
"9 d d d y t : t p p d w : y y y w : 5 : : : * : y 5 t 6 D 6 5 0 H U U K K Y W Y K V V V B V M V V J M M 9 9 9 9 5 7 9 d y y 9 d ",
"9 d l l y - $ $ ; w : t d s l i i y d 5 5 5 # - * # % 5 5 5 y i D K U U L K R R R V N M 0 0 9 9 6 9 0 5 * 1 5 : * 5 5 : : : e 5 ",
"d i s a : @   $ $ @ $ i P U U P g H 6 0 9 5 * 9 9 5 * y 6 6 H H H B K L L K W W L M 0 9 9 5 * y y g H 9 g 5 : @ X $ : 9 - : d i ",
"F u u a t 6 c M c 6 5 i U U U K K B M M v M M 9 i i 6 g g 0 M M v n V n V R E W H g 0 q 1 5 * * 5 H H J H l d r > } 0 J h g F s ",
"u s u u u D K B B B x c D D U D K n n n B T K P U H 6 i P M B b b m m b v V V T P H P J 1 9 * O * g P H P l ..d 4.$.&.%.L W U F ",
"i u u u c D K B B B B x c c x M v n n n A E ' E E K P U U E T n b V V V M K V K F G K P g J d d H Y Y U Y Y Y L L Y L L L L K i ",
"K D D D H B V K B M x M M c c M v M n B T E E Y U K K U U E T K L R E B M B U U K M P g h I z d U W [ W ] W ] ' E E H I J M L J ",
"V T T B 0 M M M c M 6 i 6 0 3 v x n n n K K U U K E T $.U 9.] T T E E B b B E E $.+.Y W I f I g M E W W W ] E E K V V V q q J V ",
"B V n M M v 0 9 0 g <.<.z g 6 3 c n x n H D D K U T K $.E ] u.U B B B n x M F U I I H U H g H L K K T R T R K B B B T H L V V B ",
"M M J M 0 9 6 6 9 X.X.<.X.9 0 0 M n x x M c 3 M H c 3 K K L $.K x c 0 6 v H D i ) ] H 6 P P H V B B B V A A V n c D D H H M B M ",
"M M H H 6 i 5 5 1 9 9 9 * * 5 0 8 b n V n n 3 3 3 < < 3 0 3 0 3 1 7 5 M 0 U U ] ] { U U ] i.a.B m V A A C C n c M 6 i H g 0 M 0 ",
"0 H M H i 0 5 5 % o * * , * 6 0 8 n b V N n n 8 3 & & < 1 < < < < 4 i 0 M 6 Y ' ] { [ ] ] u.u.W V A A S C Z m J H 6 c D 6 9 M g ",
"0 g M c 6 4 * ; % * 5 g g P H M v M N n n n M 3 < < < 5 1 1 < < < H U H K J W { l.{ { { { u.[ ] E L B m m m m B M H g 6 6 0 g 6 ",
"H 6 D 6 1 % O * * 4 5 P Y ] ] Y M M n n 0 n b 0 3 1 3 3 7 1 1 1 1 U ] W [ W W W W E Y W ' [ ] ] ] W T m n n n n B B c 0 D i c g ",
"D D D c 6 < O & & i F ) ' ) E U K M 8 8 v V V V b N N 8 v 0 5 0 9 K E K K E K W R B B B R R ] [ e.] [ R n v 8 v B M 6 H D D D P ",
"P 6 c 6 c D P F H E E ' ' E U F F M b v m V b m n n v 8 N N 8 0 0 M n c 2 2 x x n n m C A R R R R A R L n n v n M H H D D D D K ",
"K H D 6 H P U U E ] ] ] [ ] ) ' U B B n v v x x 8 M 0 V V V V V n v + 2 6 D c x v b n m C C C C C n B B V b n n n I @.M c g H H ",
"U U K K D F P G ' ' { [ ] ' ] { { E E Y K K K c c M V V V V V V M B x x c n x x n b b C V o.o.V V n v n L M 0 c H 6 M I Y K P K ",
"P P U U _ P D K ' ' E ' ' ' { { { { { [ { [ ' U P M B M B V V B n n v x 3 x x n b n B B V V o.V m n x v c 2 1 3 3 4 6 H H D ) Y ",
"P Y ) ( _ I g 6 G H D G K ' ] ] { { { { { ' ' ' U M M v B n n M v n + 3 x 3 v x x c i P P m m m M 3 < 3 5 < ; 4 4 5 i y 5 5 i Y ",
"I ( ^ k l l P g 0 0 6 6 6 P U ' ' { [ ' ' ' ' F D c 3 3 x c x x v M v 3 3 3 6 3 3 6 6 i 0 v n v 3 < & & $ & & 4 y i I I ( z l l ",
"; p l d d l l I I g 4 3 3 i D U ' ' ' ' ' ) G D c 6 6 2 c c 3 3 x 3 3 4 3 4 3 3 0 3 3 1 3 3 3 3 3 5 5 % O $ $ 5 l ( / g l P d 5 ",
"* * y g I I I P P 6 4 4 5 M H U ' ' ' ' G F c u c c c u c c 3 2 2 3 0 5 1 3 3 0 0 6 3 3 3 5 4 1 5 g 5 9 5 * 5 z ) ( l d l 1.<.9 ",
"^ P s P I _ ( I g d 6 3 6 g D U ' G ' ' G G u c u a a c c c c 1 4 3 5 3 5 3 9 M g g 0 5 5 5 5 5 5 5 d % * : l l ~ l P P ( 8.7.z ",
"P P P P U / l d y z 6 h J D D D F F U ' G G u c D a i D c 6 2 3 1 5 5 1 5 5 9 0 g d 9 3 5 5 5 d 5 y : # # % : l l l P l F P U P ",
"P H P F s y w w : 5 X.4.@.c c D F D K E G D D F a u 6 c x 2 6 3 < 5 9 * * 5 5 5 5 d y 5 5 w w w d l z l l d d l / U P P P P P l ",
"i i i i i y t 5 5 t d g q 3 c D c P K K G D F F i 6 6 6 6 < 3 2 * : 5 * 5 : 5 : w y y d y w w , d d l ~ ~ l l d l P F F P P F i ",
"6 i 6 4 5 : w w w w y : 5 4 3 6 c c D F K D 6 i c c c M c 6 6 2 5 * < 4 i g 5 w : w y y y d y 6 p g l l l d p y i F i 6 u i i i ",
"i 6 ; 5 y ; ; - ; = ; ; ; : 1 1 3 6 D c i 3 6 F P M H M < 4 u u 6 6 D M g H y y y d l p d 6 g i i g l d a p 5 i i D F i u 6 i i ",
"u 6 5 5 ; w ; w w 5 w y w 5 5 y 4 5 3 3 5 5 6 c 6 c c D 6 3 2 c D M M P J K H d l l l g g i H i g i H l y y 6 i i D u 6 6 6 i i ",
"t 5 d w e d w ; - 6 5 5 X.h 8 X.2...5 ; ; = ; 4 4 3 3 5 4 ; 6 c c 6 J 8.4.H H J J L H H H D D M c M P g d p i D i D i 5 y i u 5 ",
"w t j ,.<.j t ; ; 5 < 5 M j.o.=.0.f * & ; ; = ; 4 4 4 5 = = 4 c i H H w.@.J 0 6 k H J I H M c D H H H d l i d i 6 p i 5 5 y w ; ",
"w p y y s y D D P 0 5 0 V A =.k.=.@.9 4 V 9 4 5 ; & ; 4 = ; 4 4 6 c i y 5 6 6 4 6 6 H 0.g.9 4 6 5 i i p p g H 3 0 i y t w t ; = ",
"; y s i D D U P K M 6 6 B B A O.&.B H K L V M M 3 ; 4 3 4 ; = ; ; 4 ; ; ; ; ; = ; 5 4 d d 4 ; t t : w y d g H i 6 g t : w w - $ ",
"i F i F U G ) U F D 6 6 c 6 c P F c K A A V B A B M M M 6 1 ; ; 4 ; = = & = = $ t t ; * w t t w t : w w y d l l I l : = $ $ $ = ",
"i F G F G G F a F D 6 6 H i 6 6 B A A A T V B B V K M 0 M M M 9 6 5 4 ; - : = = ; t t t w w w t w w : y s l ~ ^ 8.3.k y ; - w t ",
"y t p y t a w w t 4 i K T B n n m m M K F H D M M M 6 v M B n M M v 3 c q <.e - = t 5 ; ; ; w t t t y t s s l ^ 7./ l l i p y y ",
"y a t y w t w ; ; y B T V T B n v x x c u 6 3 x 3 v v M M N M N N M 3 M h g 5 - ; 5 g d y t w y t t w p p l l l s l p p y a t t ",
"w a p u i i 6 6 6 B B B m B n x 3 3 3 0 3 3 3 v 8 v v M N N N N q q q q 7 q 9 q q d g g g i y t y t t p l s y p p d H d i p t p ",
"p t 5 5 6 M H i D c M n n x v n v 8 v 3 3 + x x v 8 v v N q J N N q  .7 7 9 0 +.J J g g H d l p p l l l l d y X.X.4.@.h g d y y ",
"g 9 3 5 3 H c c x M B n N M x x M M v 8 8 3 n M v 3 v 0 q q q J q q q 7 7 0 q N h 8 H P g g l i z l I P l g J @.$.#.J J H g d g ",
"J M 6 D D c K c B c L V %.J M M H 0 0 M 8 n v x 3 v 8 0 M q 8 8 q 7 7 q 0 7 q q q 7 7 q J g q h +.J J Y I g g H H g J N J J I Y ",
"H H 6 M M M x x x M v N L g N H J q H N H M 0 0 7 0 7 0 8 8 9 9 0 q 0 q 7 q b q 0 1 0 0 8 q g g J J H ) P i i y y g q g g J L Y ",
"M M 6 3 6 6 D M c 8 6 q g h g h g h h g g g 0 g M 9 9 9 9 9 9 9 i 0 9 0 q q N g l i d g q 8 g d g g g P i i 6 i 6 0 H M N N N L ",
"6 6 0 c 6 6 i 3 3 y 5 5 5 y 5 9 g g d g 9 i y g q 9 9 9 9 9 9 5 y y y 9 g i d s ~ l s ~ l H d i i s P i 3 0 M M H M H 0 3 M c 0 ",
"M c M M H J 0 6 9 : # # * : y 5 d g d d * * * d 9 d 9 9 9 9 d d p d p p g y ! 7.1.~ s s s l l p s l H M 0 K L L U U U s i i 6 v "
};
