/* XPM */
static char *result[] = {
/* columns rows colors chars-per-pixel */
"64 64 83 1 ",
"  c #363536",
". c #383637",
"X c #3B363B",
"o c #3C3B3C",
"O c #3F3D40",
"+ c #403F41",
"@ c #454345",
"# c #484647",
"$ c #474648",
"% c #484749",
"& c #4C4B4C",
"* c #504E4F",
"= c #4F4E50",
"- c #504F51",
"; c #535254",
": c #575659",
"> c #585759",
", c #5B5A5D",
"< c #5E5E61",
"1 c #605F62",
"2 c #5F6064",
"3 c #636265",
"4 c #666669",
"5 c #68676B",
"6 c #67686A",
"7 c #6A6A6D",
"8 c #6E6E72",
"9 c #706F73",
"0 c #6F7074",
"q c #6F7078",
"w c #727375",
"e c #767679",
"r c #78777B",
"t c #77787B",
"y c #797A7C",
"u c #7D7D82",
"i c #7D7F89",
"p c #807F84",
"a c #7F8085",
"s c #818286",
"d c #84858A",
"f c #87888E",
"g c #89898E",
"h c #868790",
"j c #878991",
"k c #8B8D93",
"l c #8E9095",
"z c #8F9199",
"x c #909296",
"c c #93959B",
"v c #96989E",
"b c #989A9F",
"n c #9396A1",
"m c #9699A1",
"M c #9B9DA3",
"N c #9C9FA8",
"B c #9EA0A6",
"V c #9EA1A9",
"C c #A0A2A7",
"Z c #A2A5AB",
"A c #A6A9AE",
"S c #A8AAAF",
"D c #A7AAB1",
"F c #AAADB3",
"G c #ADAFB8",
"H c #ADB0B6",
"J c #AEB1B9",
"K c #B0B2B7",
"L c #B2B4BB",
"P c #B5B8BE",
"I c #B9BBBE",
"U c #B6BAC0",
"Y c #BABDC4",
"T c #BCBFCA",
"R c #BEC1C7",
"E c #BEC1C9",
"W c #C0C2C7",
"Q c #C1C4CA",
"! c #C6C9CD",
"~ c #C7CAD0",
"^ c #C9CCD1",
"/ c #CED2D6",
"( c #D0D4D7",
/* pixels */
"yyeww9CSywyywwy7>yps88weewwwwyuZy886*&;&wIWClpeyetwtw6>bSwyyyyyy",
"yyw7rwCZyewywyy3*yppw8wetwwwwewy474%-wbKWSswwwwytewyy3>Cbwwyywyy",
"yw97w:dfwwtteey1&pppywwetwwwee7:;1;,CKAxsw9wwweyyyyye3;Cvwwyyywy",
"w9,;&;<;3wwewww1&yspuweeetweww3;--@dIu9w9wwwyyyyyyyye3>Cb9eewwyy",
"4;#;aV8=*9erewe1#wspyewyttew06:&#&wgs9wwwyyyyyyyyyyww;>CKwwyyyww",
"&#:lHKk:*6rewee4*,pdseyytwww04;&<xSSwwwwwyyyyypyyyyw7;>CIywww9w1",
"%,xZblmu;>wrww91;>4wwetttywww1#:ddwgu69wyeyyypyyyyyw9;>CIp761>*#",
"3bAcyabk*&3rew1&;fl<47wwtyt83&@3wewws17wwyyyyyrwtww91*;gg*####**",
"IJxyyykc,#,ew3*&ySZw,26wre8:&@&6euywd6wwwyww4>;;;:;&##&>3;:,;,>,",
"Pbueyysbs#;81*-wMyyd,3,388:-*#:weyywy077w61;&#####&;,3,CKSSSZk,b",
"bawyyyedv>-,&-wgw644>:3>,,:=&&0eyyyetk366&#@@@&:6slgxwdWBxgye=8I",
"a0eyeewwxs,>;yy633,:>6:::>:;&>ywaayt0bc3;&3eglbCSky07,vl9ww9,&bA",
"0wytyeewuc>>dy63&,30cAq8:==&@2ywydae80e3wcbbbZHMyew743Cyeyy8=6Sl",
"weyyyyye0fw0d66&6VVVVjeMs4::22,<6803;&6aMseewerrew88,8Mytyt3&xcw",
"etyuyyyywww37716CCcfi48ujzznZVa:+&*++gSlyeyurw753145-3yetye,3cyw",
"eyyyyyyyew3;>,7cgyww9;9wyyewucVk:dy,>Bawyyyw8:**>4ey4,w8eye*6dwe",
"eeyyyyyye7,%-ecsyyyw,;44yy8778ak<eu>yk9q5u4:qpNDKKKSp51<5u9->9ee",
"eettyyyy91-%sNseyye73cg;<qwq077s8=<-yu954><innDUMgsyuq<;4qe<-4ww",
"etetyyyw8,$emdwyyw7>kkg7=26qww87uq-e91<<qiuuuuipwwww9u<-1uu9;<9e",
"eettyyw73$4ndweyy9-4lyu8%;:;>6808u8u5888uu<55288weww7q4:1e81>-79",
"wwttw3;;@&kkyweew>$dpyr-&226,;17877ieqeuu8:,qq8u8ww9741:&=:6y938",
">,3>&#&&;:>eewt0<X8cyy7+2cmVAa;,774ppppppq==275i07898&@<wcAGKM1-",
"&;3tgcBCDk;>wye8@;cdyr3X2BVMkbs&<1<1qpphhi==<45777631@>MDFAmMzh>",
"fZHHSSHKFni3yye2&dkyee>o:BSd0tgw;<<%+&;17:==8474661>-%emVmi8weu8",
"VFZclgkvxa03uty<uhuq84=X<Nkww8ws8udf7;&$=@%uz48454:&=<8euw0w086<",
"cdwwte98w,@&8w68zu844<=Ouct076667uwkmzdw>&ese<481##qk8480wew864:",
"w47w9eew6>+$&$=yi83<<1@:za77663:<r58dzznzwkue8<<-1nNh888wew076>&",
"336wryyw66&&8fa,&&;<<<@iz066336;-q540uhzk9suyw8ecDnzjq88wwq06,&w",
"m,:4wtt930,:BPHk4,;>1=,kj763336=&866670y7*4splDKZkpzd88www96>%1L",
"Zy&,60e833<,VZzzdew8e,31;,23333##8666673&wZAZCbxzlkus44w773&%<DK",
"sc4&;40633:3Zlddhu8MGms3&++$>36@@07666,=uLCyywwwrre9ww,,73&;yCDk",
"wfm6#>663<*8yweey84Nzafkuq2@o+=o#;;;=&@yHbreerryrww9we>;>>yxkurw",
"wecm2*363,:y9w9ew4;us9988wwyw&@+;,$@@@yZxywwyewtwww841%,ykcywwww",
"ttaza>;,,-,d8878w9,;9677w63471*7SPmu;3yuw7667ww773>;;*:64114wyyy",
",,3ya3&&&#egt766477%33<$@;38wsMKSvbgkD0,3:==&;&&#&>7pbZAs1-&;373",
"&*=;,2,&@3vdy633466#;*@4MLLLLLPCattylbc2>,;37,&,fVFLZbxbkd<:e>&&",
"6w4<,33><adw861336>@,uMLKANMxxxgue4steygu4wkksfSAmvgeeeyqe4,e:@*",
"ZCMzcxx0yww764333,@1ZFcsew9ewwweyw4lwywaAZuau7bcsyeereer881-%6cC",
"uuuyuw3:weeew6664=@dmiw899weeeyet,yxweywdCk>:ydspyeyeee9841-pVbg",
"ww0w6:*:39eyyw96>O3fe8wwweeryyeyy:yuyyyyweu8>kdsswyeee989,3rzduy",
"ww006,=>,4weeew>@&hi8wwweerrryrew,ywtttteee9,fdayeyeew884-Mkefye",
"ee000,=>-;38e4>&o2kw8eweweeeww9ww4yttteewww9>yayeeyyyye>#pSf9kew",
"we0002;;=@&&&@Xoo7w49wwweeyww77987dweewwwww8,tueeyyerp1+3Bpu8dew",
"q00006;;,<dlku7;>,+O-3wywwew97774yvweew09976<yyeeyyey4#%zxpp4pe9",
"000767>*;mJFJGVukAd,oX@<0www7766&tmeww009883>tyeeywyu;@7mppy1ue9",
"e00776:*4JMzkkku6WQHs;OX-687763:,3awtw00886,>yyeewwse&@yfpsy4quw",
"0ww766:&uFaweyda4LFDFDc4&o@<66,gD7uwwww877r6&:6wwyey3#%ussfpw7p9",
"77e073&&cMyyyyuy4FFmlAJFVa4#;,kHA8wytw0077y9*ey6111;%@;gpsdr34sy",
"ettt7,@,Mfyyyyyy3cCywscCFKKc;tLDZy<eee08778e7kZZb7*#@@,gsds8>>ws",
"27t6,=+<yyyuyyy7;egyrwwycCZHbcLFci3weew08877w3pyxZMe&@60yup6**<y",
"<,,;&&e<1wyyyyw6;esyyrw90tylleFZdy36tw0ww8770<664wsbBd,.&7e>#**6",
"::;#:gkw,7yyyyw1;wwwyyyeww0w,6Slry8>0w0w4,,3us6648erdla@ .--#&**",
"&#:tku9w>6yyyy9>#36wryyyttew#tZewry77w6:&,0fBCy,1,3wwyw:=@.@#&*&",
";wla6336;1wyyy6,g7>3wwwreew6#dl8eywy2><ymJLHlwwtk6;**;4>lBdtyala",
"wd3,<<1<#17eyw1wSb,&3779www3#ddwyyw37mJUFmayw7:VHgsyeaw0dHBBZBba",
"t8>>,<1,7*;373;pssw##;18ww8>&dswye4,DHzyw88e8>0VeettaHlyya;::;;>",
"72,;-;,lSg7>;**6yr19v9=%;,:&=Maeyw$<Ad78788w6,ly063,<d6:;;=1eaaw",
"RRLb2#7vggxge73*;;1W~WZp>+@@yNyye>,<zd778788,6sw3&@o#:*&aBL!/((^",
"^^^!F7=<wsggxxxs;*MEIYTTUn6<fyew36V0ka877876*0w6&+.*6:@8^(RKIIR!",
"glvMKcda31wyypsgf4vkrpmJYTUe&>6,2MZudk68870:<e6;+.6ZRl&vERatttsg",
"ttw0tyZRHba7117ykwfu888ynFUJk3$@wdsauk8876,$w6*@;lPKbk3HWSeyttee",
"tttwewCSdlZIIl1,4wdu8www0ykJEUz3680i8dy83*@;t:*eLPVsw0,BWxweyyyy",
"yytwe8CSawrsCWIZ8wsu88eww88uVYJd688wqqu<@+o:6dKIZdw088>CIdwyyyyy",
"tytte8CFueewegAKsssu88wwew0wyxHZ787884e@o+,lH!Ikyeww08>AKyeyyyyy"
};
