/* XPM */
static char *_54f72f8e8c745db8b7c849b0a5ab35dZpwVDfXhibwuWJUS[] = {
/* columns rows colors chars-per-pixel */
"64 64 69 1 ",
"  c #54361E",
". c #5A391F",
"X c #4D3B2D",
"o c #553623",
"O c #593723",
"+ c #563A26",
"@ c #5A3B25",
"# c #55372B",
"$ c #553B2B",
"% c #5A3D2A",
"& c #4D3C32",
"* c #513730",
"= c #543D31",
"- c #5C3E33",
"; c #623D26",
": c #613F2C",
"> c #5D412D",
", c #5D4231",
"< c #624126",
"1 c #62432D",
"2 c #6A442D",
"3 c #6B4A2F",
"4 c #644532",
"5 c #694632",
"6 c #654934",
"7 c #6B4B34",
"8 c #664738",
"9 c #654B39",
"0 c #6D4E3A",
"q c #744E35",
"w c #784F35",
"e c #734F39",
"r c #784F3A",
"t c #6C5036",
"y c #67503F",
"u c #6D513C",
"i c #755136",
"p c #795236",
"a c #74523B",
"s c #7A543B",
"d c #7D593D",
"f c #6B4E40",
"g c #6E5241",
"h c #735541",
"j c #7A5641",
"k c #755844",
"l c #7D5B43",
"z c #745E4F",
"x c #7D5C4A",
"c c #7E614C",
"v c #7F6355",
"b c #81573C",
"n c #825A3E",
"m c #895D3D",
"M c #8A623F",
"N c #815742",
"B c #835D43",
"V c #8A5F44",
"C c #835E49",
"Z c #8C5F48",
"A c #866145",
"S c #8A6145",
"D c #84624B",
"F c #8A634A",
"G c #906247",
"H c #846551",
"J c #896752",
"K c #856853",
"L c #8B6954",
/* pixels */
"==$cHDDDcDv,>,&&==$$$$+$ouDDADDcDciuggk,$,&&$,HcDxauiauakghhhg>&",
"$$%lSSSAAAD1+$$$$%$%<<11;iSSSAAAAdirait9+$$$$4cdFAsi33aatu07q7$X",
">$+lSSMmMMD>+$,X%$#8hCFAFBSSSdi0qaaqs7$@$%=$$$ <FAFd.>uu+$O+O+$&",
">>1BSMSSMcl3$>,,%1:5asBBVSSVBsiiiqq774$$$=$$=>13ASFj@>79$$%$$$=&",
"XkFASSVSSaqeiauhjhreiiibVSAdqpiid5O@+++$$$$$$4cAAMSdO@>+$#$=>>X&",
"1BSSSACCVarriah08hrrpiidFVFdqiii04+$%>$,,2<1>tAAMSVN11++$%$%X+$*",
"AFSSAaierrrwrqa4O8jrpqidFZDjias6+$>&$$#4DFAAAAMMMVSFFl@+$@#@+O$*",
"FAVBBsaaaerewqe-@8eqqiidCNCs77y4$$==X$%5SSSSAMMMSAVBFj<<%:4<<1:-",
"Aiipiaaaaaiah:$+%#@5rqiqa2@++$%$$$$$$>asGSSSSVSASAisAADDDDADAADv",
"ciiiiiiiraauu>+$%%#0siaas5@$$$$%$$<%$6anGmSSZVnMAB3pSAdlCCBSCACx",
">3aiiaaiiuu>%$$$#$+sDACAD7o$$$$$o4iirsFVSSSAFCiist.<Fc>@@1SSSB:*",
">7uutiut00u>$%,-4%;sFSSVFq@>$$>%;5siqbVZVSSSClait6@<cu+$+%lCBN$*",
"+$+++uh>@.@@OjDDACFVSSVSAAD0o7HDCVAdqpwbGSABawa7@@+@+$$$ > >@@%X",
">X>$+yu>o>>@@sFASSVVVMSMCCD7.tFAZVSbiiwpVBAlqqe0@$$$@>%>> >X%@$&",
"$$$$@+> +aDaqnSSSMSVVSSdias5O5aBZVSVSBqrrriaaaa0@$$>guuuu9+>++$X",
">$>%>.>>>dFsqBSMMSSSSVSsaee4+4isFVSAAdqrreuuiua7@%%1aisiat>>>$>,",
"lDBBBABAMcAsinFSSASMAdiia1$$$+@7sisaaqeeat+>>>>>o4CCFVBnwaCBBBCz",
"FSSSSSMSAAAiilSSASASMsqau,$$>>+1aeiiairea,+XXX  @5FZFSVVwpSSSSCH",
"SVSGSSSMSsaairaaippaaia4$$$$X+++%%$2aaahh6+>>X>>ABVSSSFBwippSBFC",
"VSVSVSSmBaeuaeqiiirpiia1+$$$>@@>%@o4areiu9++X>>4DBVSSSSBwqipASSx",
"SSSSSFSsa>>%>>>3asesais4+>otclBBA0o%:%;%>$$$$>+>AASSSSFViiipABph",
"AFSSSVAsi%$$X> 6heeeaaa>+$+tFSSSFaO$@@@%+$$$+>o1FASSSSFBiiipDBa0",
"sapaaaaau>X>>X>,hehea6>$>++iFSVSSClCclDa$%$$@@+3FAFSSSSApiiiaawe",
"rrararaat>+X>++yegauu>o>+@.pSMVMSSFFAAFaO%$%@@.<AAFASSFBpiiiaiau",
"aaaaiaara%$$$>+$-:%%>+>$+tcMSSSSSSVVmFFd700glljcASFVSSSViiaaiaa0",
"iiaaee0ah%+%$+@+$$$@+@++@aFSSSSSSSSVSSFBiaejFDFFSSVVSFFBiiiiuaa0",
"iiarr1@>%@@acll6+$$%@tlllBSASFVSSFVnisiai7@5FBFSSSVVFVaaaiae-1hf",
"u0hah%+$@@@lFFH,+$++@aFASSAMAVFSAVFsiiais5O3FVVVVSVVVCqraaai$$uf",
",$%:-%+sClCsips4+uc6.iSbppassaaasasaa7:2a6o5FVZVVVGCaps0:%%%$#;$",
"$%%#$#+lFSFaqiu1+kK6oaFdpqiirprriqraa5O1h6#5GZGVGVGBqaa0@@%$$;O$",
"lxjNNNjAAlsii1<@OdH6+>17iaaaaaasaaees6+%>%$6FVFVassre7%:$$$>xNbk",
"FZZZVSFFAaeia<+%.sF3o$+6haaaaaaaashah7$+$$#5FZFBqaaqaq@#%=$%DFGC",
"VVVVVbpssia1>uljdBABd4$,,%1:1:>,:41%1%$$$$#1spsiiaa71:@%-#$>ssba",
"AFSSVpwwesu>.lFSFFSSF3o$$$$$$$$$$$$+$$$$$$+;piiiiaa7O%###$o%uir0",
"jsjjsai4>%>%+sSASSSSSlh6o%$$$$$$==$$$+@1jjsNBBBBiasiO%0806$>cbrf",
"aaauasg,$$+++sFSSSSSBFJ7O$@+@$$$&*$$@@.5FFFVSSFBiai3O%ahaeo,AAaa",
",->>>>>$==$gjCSSSSSSGnsi777ik6+==$$8lpddFSSGSSSBndaqq7iua0$:AMmk",
"$$$$$$$$$$$kFVSSSSASSsiiqaalJ0+$$$o0JFFFSMSMSSSSSBqaaaiiaq#:cMSc",
"$$$$$$++$$+jZVVSSSSSFBbpwqaid6O$+6dbSSFSSASSSSSSSbieraqe:4%:MMSD",
"@$o++++@O++jFVSSSSVFSSSbwpiir4@$O7GmVSSFSAAMMGSSFBisaaaqO#$>cMMc",
"$essssassisAFSGVSFVFBBspiia74%o5sbSSGSSGVSSMSmGBssaaaaa0$$+>sdAc",
"%lFSFFFFFFFSSSSSVSSFDbwqish4O$OeLSVGSSVSVSGGmSSmqraaaahu@$+%ysAc",
">lSSMMAASSSFSVSSSVFNspiiith4+170sBSVSSSSSVVmSmdjaia0444,$$$%>679",
"@nFMSFMFFSSFSSGSFFFsaaiaagh4+5aeabFSSSSSSFFVFNqiaah9+$++O%OO++o$",
".nFMMMSldddsddddsdlsiaa6144%+4aiasdASSSFZBNjssris0,,$%@<asau>+>X",
">cFAFSAdiiiiiiiiaiatias4+%#$$6ksiiidFSSSZCrraraah0#$$+O@AFFl++.X",
"633MAADt><2117uaiaaai64>@$=$$@<5aiiadddsbjrraqau1,+++>isASMAst6,",
"t@.cFAA>#$+@+7daaaaau1O$+$%$%+o4aaaiiiqprrreqas0+$+$>>DASMMSHAiy",
"a%@CFFS1O%=$%>41114,4>$+$%%$$440a53417Cjrreait4>$$>X+1DAAFMSBSlh",
"a%%lDSS2O#$$$+++#$$+$+$+$$%$o4aaa1O$+6Jlhajah7++>$$$O1DASSSSAFFc",
"e;@hlsn72uu,$$$,=%$$$$$$$$$>87iia6$X$>u0544444$>$-$>7aAFSSMSAABk",
"e%%0iwiiaDH,##$$o$$$++#oo++4swaqs,$X>$++@#$$#$$+$#o1JDFSSSSBABi0",
"g%$0asiainSp700ee00ee0qeeqrieawqa,>,X>X$%$$%=$$X+1esCZVZSVSVDSau",
"h%%0ariiiBSGVZFFFFFFFFFFFFFjrsaad,+X>$$$$%$=$>X>o2FFFZFSGSSSFVa0",
"e%%46qraidbmmGZVVVVSAVSSSBFbq04336y,$$-%$%%=$$+>tiFVVVSSVSSSdbp0",
"u%$$@7qiiaiBSSZDBSSFAASVVSFNe6o#ouLaOoooo@$#X>+6DAVVVSSVSMSBiiiu",
"t>++@7i77tejdbbAVGMMSSSVMnnse6$%+7Jd7777751>$$+>ASGMGSMSSSSBipiu",
"u>$$@7a%+uheawpNGmmGSSSVMdwah6+%+iDAFFFFJBs0$$o1FVVVmVSSSSSAaiit",
"9>$$>7a<@4875qadnmmGSSSSSdi75,$@O7FFASSSFni7$,6eASGSSmSASAbbaaiy",
"+$>$$7i>O$#+$7aiqmGSSVZAFda4O$$@ qFSSSSSFni7+6KFSSmMSSFSAAaiaaiu",
"+$X>+tu77>$%@45iislbNNNjnt6>$$$15sGmSSSBddi7$4cdSSmSSmdNNlqqui5,",
"$$$X>tucH,+%@@+9sqairrjra2@$=$+uJSSGSSFniia7+<iaSSMSSBiiqeraiu@$",
"X>+@ tdia%#%%$+1660685660>@$@@O7FSVMMmbdiii7+<ssdnmnBbwqqprwpt>X",
"XX>+>cc>o$====$$$$##$$$$#$$$$$+0DAASSdiiatg9+>utiiiiuaaeaahaa6>>"
};
