/* XPM */
static char *result[] = {
/* columns rows colors chars-per-pixel */
"64 64 164 2 ",
"   c #776D5E",
".  c #7A6F66",
"X  c #7D7666",
"o  c #7F7866",
"O  c #7C7668",
"+  c #817567",
"@  c #83776B",
"#  c #857D6D",
"$  c #857E73",
"%  c #8F7F75",
"&  c #89816F",
"*  c #878074",
"=  c #8C8475",
"-  c #8D8877",
";  c #87807A",
":  c #8C847A",
">  c #8E897B",
",  c #918777",
"<  c #928A77",
"1  c #918778",
"2  c #928B7C",
"3  c #998F7E",
"4  c #97907E",
"5  c #9B917F",
"6  c #A1937D",
"7  c #8C8681",
"8  c #8E8B82",
"9  c #908680",
"0  c #948E82",
"q  c #998F84",
"w  c #928D89",
"e  c #959185",
"r  c #9A9385",
"t  c #9C9887",
"y  c #96938B",
"u  c #9B958A",
"i  c #9D998D",
"p  c #9C9691",
"a  c #9D9B93",
"s  c #979B9F",
"d  c #9D9C99",
"f  c #A09683",
"g  c #A1968B",
"h  c #A29B8D",
"j  c #A99F8D",
"k  c #A29D93",
"l  c #A19E9A",
"z  c #9FA099",
"x  c #A5A194",
"c  c #AAA395",
"v  c #A5A39B",
"b  c #AAA69B",
"n  c #A7A89F",
"m  c #ACA99D",
"M  c #B1A796",
"N  c #B2A895",
"B  c #B0A79C",
"V  c #B2AC9D",
"C  c #B9B09D",
"Z  c #9C9EA1",
"A  c #9FA1A3",
"S  c #A6A5A2",
"D  c #AAA7A2",
"F  c #A6A9A3",
"G  c #ACABA3",
"H  c #A6AAAB",
"J  c #ADADA9",
"K  c #B2AEA3",
"L  c #B1AFAA",
"P  c #AFB0A6",
"I  c #AFB1AB",
"U  c #B4B1A5",
"Y  c #BAB4A6",
"T  c #B4B3AB",
"R  c #B9B5AB",
"E  c #B7B8AF",
"W  c #BCB9AD",
"Q  c #AFB2B2",
"!  c #AFB5B9",
"~  c #B5B5B2",
"^  c #BAB6B2",
"/  c #B6B9B3",
"(  c #BCBBB4",
")  c #B4B6B9",
"_  c #B7BAB9",
"`  c #BCBDB9",
"'  c #C0B8A7",
"]  c #C3BCAD",
"[  c #C9BCAB",
"{  c #C2BDB3",
"}  c #C1BEB8",
"|  c #BFC0B6",
" . c #BEC1BB",
".. c #C3C1B6",
"X. c #CBC3B3",
"o. c #C4C3BC",
"O. c #C9C6BC",
"+. c #C7C8BD",
"@. c #CCC9BD",
"#. c #D0C4B2",
"$. c #D1CABD",
"%. c #D9CEBD",
"&. c #BEC3C2",
"*. c #C4C5C2",
"=. c #C9C6C1",
"-. c #C6C9C3",
";. c #CBCBC4",
":. c #C0C7CA",
">. c #C6CBC9",
",. c #CCCEC9",
"<. c #D2CEC3",
"1. c #D1CFCA",
"2. c #CDD0C7",
"3. c #CED1CB",
"4. c #D4D1C5",
"5. c #D9D3C5",
"6. c #D3D3CC",
"7. c #D9D6CB",
"8. c #D1D8CF",
"9. c #DCD9CE",
"0. c #CACFD3",
"q. c #CED2D1",
"w. c #CFD7D8",
"e. c #D4D6D1",
"r. c #D9D7D0",
"t. c #D6D9D3",
"y. c #DBDBD4",
"u. c #D5DBDA",
"i. c #DCDEDA",
"p. c #E2DDCE",
"a. c #E2DED3",
"s. c #E8DFD3",
"d. c #E1DFD8",
"f. c #DEE0D7",
"g. c #DDE1DC",
"h. c #E3E1D6",
"j. c #EAE4D6",
"k. c #E3E3DB",
"l. c #E9E6DC",
"z. c #EAE8DE",
"x. c #D9DFE2",
"c. c #DDE3E3",
"v. c #DDE8E5",
"b. c #E3E6E2",
"n. c #E8E7E2",
"m. c #E7E9E4",
"M. c #EBECE4",
"N. c #E5EAE8",
"B. c #EBEEEA",
"V. c #F1EEE4",
"C. c #EFF0E7",
"Z. c #E7F0ED",
"A. c #EDF1EC",
"S. c #F3F1E7",
"D. c #F2F2EB",
"F. c #F8F6EC",
"G. c #E7F1F1",
"H. c #EDF4F1",
"J. c #F5F6F0",
"K. c #F8F7F0",
"L. c #F6FAF4",
"P. c #F9FBF5",
"I. c #F3FBFB",
"U. c #FBFFFB",
/* pixels */
"^ o.) q 1.d.q v ^ 9 { O.D ;.9 ,.o.a S o.b ( ..G e K J t.m P v.F 3.e.* T 6.6.U @.W O.@.x o.;.( ~ ,.U v d K ;.F.c ] D.q.b _ ( x y.",
"*.0 J ^ ;.^ 9 L L } p D L =.u } y.y *.> m a.i r.} J ` P x y.4.&.i ` -.T | t.o.e 9.5.7. .} K R v.k.y v ;.G ..o.G ( h.M.a ^ o.R O.",
"` y S _ p r.q.S D ^ ` y L =.l ^ 1.b i k y.k.2 ;.N.y  .o.+.x U $.X.x A. .c @.M.n V 9.z.o._ n @.J.A.T ,.i e.U 0 F -.( *.G ^ 6.-.~ ",
"p l l J D r.k.l ;.:.w ^ ^ ` L -.v ` =.n ..<.2 n.( n 3.o.T h 9.4.M.b -.x +.4.z. .h @.h 6.t.M.( g.G ;.4.u y.4.I  .*.a Y M.~ ^ n @.",
"D p ^ =.% N.^ { 5.n.k R 1.l } N.p G 6.u i r.T i.i ;.3.t e.3.I t./ a S J c 9.+.m 9.9.u S.7.] ( +.U ;.g.b ( y.T >.K i s.d.k R R W ",
"e.) D L S ^ >.~ u.t.L Q ` S g a.k.L D = l.r.u e / g.g.U t./ x y.e a a z T o.E 3.;.G x ,.n b b { @.v t.y.o.( G ` ,.*.O.R ( <.{ { ",
"^ D p ^ } g x.p w D % } l k J J ;.b ;./ t.x : : | 3.y.P / J h 9.T x T ( n n 2.8.y.P ( _ *.,._ ..i 9.z.z. .~ T o.k o.L k l.<.c B.",
"A ^ q } p L x.^ . 7 l K R 9 d J r R 7.i  .` J a n g.m h m K i Y U k.t J ( - ;.f.{ 4.r 9.9.V.*.o.O.K k.U T 4./ ( $ @.<.r h.<.c P.",
"J ,.p ^ 9 u.u.^ y w ^ J 0 =.L v k O.<.y l <./ _ r.V b 4.m i ` _ h j.y.  $ a W ( U @.c 9.l.h.x ;.6. .T n 6.6.;.i R 1.4.k r.e.0 z.",
":.&.l i.) L D 9 =.) ^ L u M.e.. 1 ) *.e.R 2 4.G r.m V p.x x @.3.U W @.W W t @...M 5.+.J U g./ U ;...J E 6.o.y.0 O.d.T _ t.k.u 7.",
"t.e.g y.c.D q 6.L 9 1.l R B.^ + g L k 1.u b h.*.-.P 6 4.b +.o.~ -._ < %.9.t A.3.P +.x ;.m n.g.e ;.*.T _ K 6.J.-.R <.T 6.z.r.k k.",
"d.u.d 1.t.^ l D =.B ,.^ K b.` J ~ e.d ^ G v 9.;.b 4.x ..G o.b T { 8.F ;.@.n ..e.>. .x y.h k.4.R ;.=.e.( _ o.J.<.= 1.6.i.{ c ( 9.",
"1.^ ) =.g D D g 7.7.k.J S &.x.l L R T t.P a @.U U 5.m G  .8.( ,.o.b t.+.;.2.y T ..y.i 2.( | +.( K ;.o.R M.n.G V <.T K d.k B 4.7.",
"} L 9 ~ l G L g r.@.r.J S &.e.a T r ;.;.t @.6.4.V 4.-./ &.3.k ..| V 7.7.4.( 2.n T 4.t 6.h.u v } K ..V U s.;.c X.s.-.0 =.y.1.T 6.",
"=.1.% g k o.y.~ F *. ._ J t.~ 8 o.( I 3.v ..;.x a m i _ F -.P i v.o.O.9.E x U g.&.~ | N...e ( o.>.T g ,.( U [ 5.7.a O.K d.{ k o.",
"y.i.7 L u ;.z.~ $ o.i.3.u r.;.e.n ( 8.v p / P O 8  .h a S n W - o.m.v h 2.7.j %.u. .3.2.P G o.4.T ;.( u 5.y.,.;.D K z.@.l q { @.",
"1.^ J K =.} l ;.;.k ;.} 1 $.@.M.0 c %.x a F 3.> P | &.n n P o.z  .8.i V z.y.e C y.i 4.7.8./ 9.v J S  .v j K.G T y.g.+...( G @.6.",
"K O.n.9 ] r.l <.y.$ w ~ L b 6.T L r O.v a o.K G ..n / Y C. .i  .;.- f.] 9.2.&.i 9.T m y.c +.M.4.b n J ( G ..U ;.+.y.R 6.V.6.6.7.",
";.d.x.J % <.' Y r.% k L q.,.v a T o.v  ./ U c R V C A.t W 9.i G | 2 2.C.m P +.E W g.<.G m ..@.z.k.a J o.G U h.;.5.U u.-.u { j.j.",
"G t.D } K { =.Q *.D ` b o.H.&.S T J _ T t ;.k W P ..n. .U 6.i b m ( P y.T e | k.o.U 9.M O.8.W Y M.3.b | g.;.h 7.9.h 4.{ R ,.{ l.",
"*.&.q L r.l D 5.6.L ~ ,.D e.r O.m W m.- V r.z 8./ / E  .E 3. .T T a o.v f.` -.T P } ( x x 9.;.n U ;.T G +.i.m 6.h.h ] j.x ^ o.,.",
"=.=.{ B } G k <.6.0 } R <.*.r 6.] ( b.# T 6.+ K U m -.+.m ( t.o.b E q.P j 9.3.- m K G 3.3.n x S > l.C.T x o.;.T o.3.T y.k q b ,.",
"} d.L { B B <.e.~ J y.k O.1.T ,._ x o.m x ;.m h t./ +.G ` | J T x @.-.G h @.2.x u a c S.r.u v W x @.$.;.e.| i S ~ e.T g.@.K k e.",
"L &.` D g } d.^ ; Q ~ D K 1.: b J T y ,.i x J.;.i P m # 2 a T o.( T t m W ;.= <.y.+.| +.e.G / (  .3.T v _ -.k v e.o.W M.g ;.;.^ ",
"d Q 9 D *.;.u.q 9 d w A T e.y u } k F J o.i y.n.T b o.r = = R x 2.k.m m 2.c c $.z.3.m W %.3./ m 4.U 9.9.e  . .*.( ` @.e.u @.d.k ",
"d ^ @ D } g <.r.% 7 w ~ T T o.l ,.x T  ._ v | z.f.P G o.;.n ~ m 4 z.k.P 4.i V z._ &.y W 9.@.y { G +.p.h.m ( 6.L k =.o.v 6.} { } ",
"H *.@ l =.^ *.q r.l d &.u k 6.@.u ,.J T P y.-.| m g.U h D.9.8 / 2 W l.+.v $.4.E y v P K ] x ;.o.-.R p.' m S.=.r } i.G ( o.e.} ;.",
"L r.} B K { 1.q 1.x.) L 0 T K h K 8.n | 2.| z _ 4 3.Z.= @.g.e n  .K m 7.| h J.P y a S G e 9.2.r +.o.;.i z.7.R ;.t.-.-.T L ;.R 4.",
"r.k.r.Q q =.r.d.Q l J _ L D ( n ^ ,.` U g. .z F G / >.P | | G E  .r V 6.9.i h.| G k v a b A.m r o.x G =.{ c h.S.( <.s.f } y.1 j.",
"1.} D L } K <.} ^ u l L b ~ *. .K ,.t.V W n.-.I q.P - E ;./ / n E 2.P +.-.>.n E r.<.n o. .;.+.c @.6.2 =.o.( h.8.R j.n.2 D } x V.",
"w d } l { 1.% w } l Q k r -.o.;.k ;.;.v ..U v P `  .= m -.e.P 4 o.A.( Y +.I W ;.8.7.r 8.3.i h.X.Y L.h.y 3.*.o.-.o.y.6.n R ;.K l.",
"w L l q j ] l w =.b ,.( > o.;.T u.-.2 c ] o.G ( P | n E ( T g.Y G o.+.5.y. .8.T o.( K ..3.h W S.( U C.T G ;.y._ ,.o.b [ z.r.o.t.",
"w D g q <.k ` d.k K ;.y.R T U I I.i.# N 5.I 3.| e v v >.x P k.I.P W 6.6.| c z.f.x x E h h.5.x 6.P U 2.E h ;.4.m W ] h.m @.9.j F.",
"_ ) ) k ^ e.` ,.J / R -.y.>.e o.B. .k @.G U h.N P F z I E n M.+.P 2.2.~ | m 2.z.h W t X.k.f.>.t U ..( T t.T e.m h 4.U +.r.8.V { ",
"! u.*.p r.D.} l ,.) Q S J T @.o.z i M./ i 4.2.6.P F v m m.+.E b 2 8.U = ;. .T 2.F +.W W C...U V K ..h t.L.` U 4.4.y.e S.6.{ 7.} ",
"Z :.u.^ R d.L D R 0 w y J k o.;.K t h.8. .&./ x 3.8.e E N.x | 8.U n V i U n | +.r o.f.;.U +.j 2.;.h U U...G @.@.U.4.c F.K [ [ s.",
"H &.w.0.p =.L ^ K $ H J ;.k K { b 2 9.h.- P o.i 2.2.U P t.4 t.Y @.2.P | -.a ( | r m <.m 9.j.5 W T T W N.c W ;.T o.4.} b.{ c 5.;.",
"` 0.` 1 l Q } q N.} r B X.;.k } *.u { a.2 P +.o.P | ;.m V 9.f.h @.9.h 9.z.| ( ( r ;.3.` @.h.( *.= E 3.` -.-.3.h C S...U 7.c 6.r.",
"~ 0.Q y k L K k I.( $ { ;.b <.n.i.v 4.e.I a -.m i Y 2.Y t.2.2./ E ;.e ..J.-. .+.-.m x <.( t m 3.x x  .( / ..h.4 a.V.N V a.v C j.",
"D o.^ } ` _ T *.r K =.g k.F R @.` c ;.3.| -.6.- | 5.t.T -._ : y E +.z Y 4.T e.y.W a o.( h e e ..2.;.E G +.9.r.r j.6.r ..<.K h O.",
"^ } q K V.} l } 0 m r.o.J l J k @.k.r F  .3 5.W E f.n h R { = 0 z n r 9.h m 3.z. .x ;.;.# J T 3.V +.r.( @.k.,.x T D ( o.1 { ;.r.",
"^ } g D B.l J ^ } > { { ; p m K 9.;.X d / v V ;.T  .T h x [ & y P y C 4.T v | 6.V 9.f.6.i b m 6.W 6.7.j 6.8.` u D ~ ,.v k =.<.8.",
"L 1.A D L 6.L D 4.,.~ G _ G G V 7...- 0 a  .V i v _ +.U T  .m i ;.P | T i y.J U +.g.g.U o.e m n.;.W y.k U 6.x a.m k o.y.>.;.T *.",
"{ t.t.g } B.{ k 6.d.u R 9.K _ x X.f.g.z S U 7.@.u  .o.E b.g.N.- y o._ m R W i _ ` >.| < U 4.u e.m U r._ q @.Y M.O.% ;.z.K ' @.d.",
"O.;.B.2 ^ A._ ^ u.T 1 <.;.e ;.u.-.e.>._ _ U y.4.t &.| e g.Z.y.= G ^ m r R { 0 P +.b 9.U m 4.b +.x ( r.e.x X.h a.l.^ } o.q p.<.p.",
"o.e.K u ^ 1.$ ` T Y <.o.F x U U.T > H z ,.+.m c 4.m y | P 2.E o./ r y.{ m i.x W >.G | o.m Y ] O.G U 4.U _ ` u %.} u.b.,.D j 5.a.",
"l b.O u } D l ^ K 7.y.= W 4.W o.P M e >.x 3.;.r 9.;.X v -.e = 4.2 +.9.a.T W ..$.i ;.9. .v ..[ Y B.;.G } D ^ L Y B { <.5.{ <.} ;.",
"k t.6.L D % ;.D T ( b V X.9.m E 4.+.v  .t A.N.2 ..2.E i y E n +.e ' j.k.S m 4.+.& Y ( b U M X.x y.$.h O.r.i O.d.*.R d.Y C l.g ^ ",
"k <.d.l p ~ l l 1.{ u ;.( o.j 4.;.e 6.+.h C.4.v U 4 h.k.x  .I  .o.( ..P 2.E U @.v { 0 v ` b W R @.h W r.' k a.h.K Y a.=.R n.k ^ ",
"q r.{ % p *.J ^ ^ ) _ -.-.` K { ` i Y y.x Y e b ` ( m 4.( T | 4.m k.< N h.E j 9.h.k y ~ T i Y ;.@.( ( S.6.2 5.h.R j { j D R L <.",
"J } y w v l B <.J ~ ^ ` a R r.m U M.J W g.e > b P g. .- W m C.2.i ;.V = y.O.r 5.y.2 y -.r m b { W f...h y.T W d.,.=.} u q q K r.",
"L i.=.w L L L } h J ~ o.2 { <.k ( z.i  .Z.3.G  .y | U f 9.m n |  .2.>.i 6.` i @.8.( T ;.T q U ] T 6.9.j J ,.,.T <.%.5.R a.i.^ ,.",
"1.O.r.k Y { O.i.u { 1.d.T 1 k.J ~ G e ] N.6.N X.X.o.i h 5.i G I G 8.k t.8.a ^ h @.;.y.;.;.;.U ` o...M.R = ~ ,.R $.a.B M S.d.q $.",
"o.L q } =.} O.,.T g { B.p h ;.K e F ` 0 2.r.- ] 6./ i 6.+.= U  .` ` e Z.8.n o.m m i.y.W 9.$.c R ..-.m ( @.1.L -.{ ' k.r <.D.b Y ",
"D ;.l { } j =.L ` ( J l } g K d.T _ / J r | -./ E G x y.*.I 2.( i g.r 5.e.o.b T ;.o.3.( Y 5.1 =.-.;.G h o.n.u K } R j.d.=.K d.d.",
"{ 1.s.l g L ^ } ^ ;._ 2 K ,.q ;.L. .. y 2 P ;.r / T o./ P v.A.m E C.t.P  .E ] r T ;.m 4.U V { L Y M.C K M.K ( 6.} q a.s.r.{ z.n.",
"1.<.6.% % ^ K } >.L h X.v } =.( ;.# 7 a 1 ;.t.> a G 6.n 5.f.G.x +.g.g.b @.9.M.( u o.= f.@.5 X.4.b j.<.( T +.S.z.{ c N s.l.} 6.1.",
";.} R @ { &.~ g r.=.r [ 6.K Y 9.K $ _ G u ,.o.;.U n | -.m U t.x E  .U | 6.2.E P E o.m t.E x Y 8.,...;.*.U +.M.6.Y } k r.{ K M.=.",
"_ Q Q L b <.b k B.n.R L ( 1.b ' ( i P P 3.m ..4.6.i +.C.E h 6.o a / m m r.x G m ;.k i *.4.` ..,.G G o.} K @.M.R k { t.q <.M.S.e.",
"l l =.^ q r.( > y.r.~ G r d.u.r 8 l i W 6...W 7.E 2 y.f.9.c @.z T U i N 4.k U ;.c ..c P ,.2 r.5.2 m b U c z.r.( ( } -.{ @.S.;.{ ",
"k k ;.D k r.L H v / d G 1 <.M.e $ T J m t./ P 4 o.x j m.2.T f.E U @.c Y k.y ;.G c M...o.*.b ;.y.2 ..;.T *.u.K v n.x o.P.<.-.^ 9.",
"D S ^ l q.g L J.( S J L n ( U o. ./ / / i v  .& U ;.i 9.h | H.+.U @.5.T 4 8.U.@.x D.e.U U o.r 6.} h e.;.K M.{ W D.^ k M.e.*.} 7.",
"A Z Q S R K T B.k { ,.u G R f s.+.W | +.P z z U z 2.I m X.U t.;.U 6.( P t ] y.W ..k.G 0 D 1 W r.{ n *.1.U S.9.T i.} D @.i.1.1.@.",
"7 Z ! ~ r <.K m g h.K q b R h 9.m Y ..7.z  .T / e @.v Y 9.P > | g.i a J 8.x W U h.M.6.0 k 1 <.n.@.r o.1.R 7.F.( # l ^ *.R 6.n.j."
};
