/* XPM */
static char *_0eff9809b154919db6277892e930f82RA32q6CWX8QqEAvl[] = {
/* columns rows colors chars-per-pixel */
"64 64 140 2 ",
"   c #4D472D",
".  c #544F35",
"X  c #565235",
"o  c #5B5536",
"O  c #5E5937",
"+  c #55523A",
"@  c #5C563B",
"#  c #5E593C",
"$  c #615B37",
"%  c #605739",
"&  c #625C3D",
"*  c #695F3F",
"=  c #65603E",
"-  c #69623E",
";  c #595644",
":  c #5D5A42",
">  c #635E41",
",  c #685F40",
"<  c #655F4B",
"1  c #666142",
"2  c #6A6444",
"3  c #6D6846",
"4  c #666249",
"5  c #6B6649",
"6  c #67684E",
"7  c #6E694B",
"8  c #706746",
"9  c #716A46",
"0  c #736D4C",
"q  c #786F4F",
"w  c #76724D",
"e  c #7A744E",
"r  c #7D794F",
"t  c #6F6D52",
"y  c #736D51",
"u  c #786F52",
"i  c #746F58",
"p  c #767252",
"a  c #7B7553",
"s  c #7E7954",
"d  c #747158",
"f  c #7B765A",
"g  c #7E795B",
"h  c #7B7561",
"j  c #7E7B61",
"k  c #847D4F",
"l  c #817653",
"z  c #817A55",
"x  c #81775C",
"c  c #827C5B",
"v  c #887E5A",
"b  c #827D62",
"n  c #847E6B",
"m  c #8A8257",
"M  c #86815C",
"N  c #89845E",
"B  c #868164",
"V  c #8B8563",
"C  c #8D8964",
"Z  c #86826A",
"A  c #898569",
"S  c #8E8A6B",
"D  c #918C66",
"F  c #928D6C",
"G  c #96916D",
"H  c #99946E",
"J  c #868570",
"K  c #8C8670",
"L  c #8E8B71",
"P  c #928D72",
"I  c #969274",
"U  c #9B9572",
"Y  c #9E9975",
"T  c #969179",
"R  c #9B957B",
"E  c #9E9A7C",
"W  c #A19773",
"Q  c #A19B76",
"!  c #A19779",
"~  c #A39E7A",
"^  c #A5A17C",
"/  c #A9A37E",
"(  c #ACA97F",
")  c #B1AB7F",
"_  c #9D9881",
"`  c #A29D82",
"'  c #A39E88",
"]  c #A5A284",
"[  c #ABA582",
"{  c #AEAA85",
"}  c #A6A38A",
"|  c #ABA68B",
" . c #A7A88F",
".. c #AEAA8B",
"X. c #B0A783",
"o. c #B1AB86",
"O. c #B2AD8A",
"+. c #B2B086",
"@. c #B5B18C",
"#. c #B8B28C",
"$. c #A7A790",
"%. c #ADA791",
"&. c #ADAB91",
"*. c #AEAB99",
"=. c #B3AE93",
"-. c #B4AE9B",
";. c #B5B194",
":. c #B9B595",
">. c #BDB995",
",. c #B5B399",
"<. c #BAB69B",
"1. c #BCB99C",
"2. c #B7B8A2",
"3. c #BDBBA3",
"4. c #C1BB9E",
"5. c #C2BEA3",
"6. c #C3BFAA",
"7. c #C5C19E",
"8. c #C4C1A4",
"9. c #C9C5A6",
"0. c #C6C3AA",
"q. c #C9C6AB",
"w. c #C7C9AF",
"e. c #CCC9AD",
"r. c #D1CCAF",
"t. c #C7C7B2",
"y. c #C9C7B2",
"u. c #CCCAB3",
"i. c #CECDB9",
"p. c #D1CDB3",
"a. c #D1CEB9",
"s. c #CFD2B9",
"d. c #D4D1B5",
"f. c #D9D3B5",
"g. c #D4D2BB",
"h. c #DAD5BB",
"j. c #DED9BB",
"k. c #D9D6C1",
"l. c #DCDAC2",
"z. c #E9E5CB",
/* pixels */
"*.| =.T @ j -.T > > & 5 f g u n =...&.~ > 1 f f f f s g f s c f > # : 1 d f f f ] @...o.O.&...&.0.a.u.i.t.i.J : 4 : y f R =.&.%.",
"&.{ @.F o s ;.I & , 2 9 l l D G o.+.O.~ = - a s r e 9 w 0 q 0 p f f - = a s r s H Y { { o.o.o.| <.5.0.u.t.i.Z : 1 > 0 f U o.o.| ",
"&.o.#.F o s :.Y % 3 s a 0 v o.o.{ { +.Y = - s s s w = $ X % o > { ;.2 # r l r r r w ^ #.o.o.+.+.o...0.w.u.k.S @ 1 # 0 e U #.O.=.",
"| o.+.F O w G B % 3 a c D I o.O.....@.^ & = 0 w f s 2 1 A K K K L L 2 = a a a a a a F Y U U U Y Y Y 1.r.&. .j : 1 > w f C W H E ",
"=.O.#.G X O # # & 2 a V #.O.O.o.O.O.O.E , & & > a p @ 1 t.g.a.y.< + % @ a f a s s s f w p p w r a w :.j.b + > > # = w s r w e a ",
"E ! Q D s w 1 1 2 3 r M Y ~ X.o.o.o.#.Y 1 > > 2 C C B F 0.t.w.0.P Z Z b p y a s a a s s s s s a w 0 E ..f @ 2 7 1 & 3 w e r r a ",
"a a 0 D :.U # 7 g s s s e N O.#.O.o.{ ~ > > @ 2 [ ;.r.p.u.y.y.u.a.p.d.p.0 @ a s s s s a s s a s 1 & @ X > % 0 z 7 # & # 0 z l a ",
"f a a N ^ V # 2 p w w w 0 x ~ W ~ ~ +.~ & 1 a c [ O.4.8.5.8.w.w.y.0.5.3.y & 0 u w 0 u w w w w y 2 & y f 5 1 w s 9 2 1 & 5 e w f ",
"c z l l a w # # # # # # = 1 s s w M o.^ & 7 ..O.o.....O...=.q.u.p.p.=.| 0 @ > > > > > > & & > & & : Y :.C w s r s s 3 = # o 3 g ",
"u 0 w e r r - 7 j f b d > 1 p p f v / H & 0 ....o.o.[ o.{ o.q.q.=.=.! E 5 > , > , > 1 1 > > 1 1 2 3 C ^ N r s s s c t 1 d c f p ",
"& % $ 8 a k w G s.w.d.$.@ # # 1 a s a e > 5 ..@.O.O.o.o.{ o.q.9.t # @ @ @ @ @ @ # # @ @ > > > > w s r p s s w w w w r t ] j.D + ",
"2 2 - 9 z z N E w.u.u.<.j p 1 1 w w e 0 & 5 I R Y R Y Y { o.4.4.7 # g b c b b j j b j b 6 > 1 1 p r r r r f B G F F L S o.f.` f ",
"s s r s e C ..,.w.u.u.w.k.<.& & & & & & & & # # @ @ o & ] o.O.o.5 1 0.d.u.u.u.s.u.i.i.i.f @ p s s f s w a 0 O.d.e.u.p.p.y.y.p.k.",
"f s r z M F ..<.e.t.t.8.,.` > 1 2 2 2 2 2 5 2 5 f f g c =.#.! ! 7 5 =.:.3.9.0.8.w.t.t.u.f : u c r s a a M M ..9.8.5.0.6.y.u.3.*.",
"s s e C O.{ { :.r.e.s.,.: & & 1 f s s s s f a b q.p.u.u.p.6.2 # a a e a [ O.| ..8.u.y.u.f @ u a s a s r Y o.O.{ O...O.%.5.h.P ; ",
"s s e D o.{ { :.8.8.1._ > > 1 2 s s f s M B V F 8.0.q.u.y.0.7 1 e l v V [ O.{ [ 9.y.w.p.f : u s a s a a Q { o.X.{ { ' ! X.4.A ; ",
"f a e D O.#.O.o.;.I : > > > & , l a w v { O.e.9...=.w.u.u.0.5 & l z ( o.o.[ O.O.q.p.u.g.f % e l s a a a ! o.o.o.X.#.M # = 1 & : ",
"s e r C / ~ ` ~ [ D & > > > , 8 l l v C [ O.9.8.&.O.w.w.u.0.3 & e l [ O.{ o.] ~ ;.1.<.3.u & 0 q a r a r H [ / / ^ ^ s # 1 # 1 1 ",
"# - s a l l l l f w > > > 3 l a a N o.o.{ o.o.{ ..@.e.t.i.w.2 $ e z / o.O.O.0 # > > , > > & * & 0 l s s a z s a 2 = = & # # # # ",
"d f a e a l a a a 0 > > > 5 a a l M ^ / { { { o.{ ..q.w.<.-.5 2 w l ] o.~ ~ 5 # 1 , 1 1 2 2 * & 0 a a e q e q u 2 = = 1 7 d p d ",
"a.` X 3 c s s u & & & > > 5 z a r s s M o.O.O.o.O.;.e.0.6 > s f k k [ o.9 & > & f s a s a a 1 & & & @ & * & * * - # 0 s | p.q.t.",
"a.} 5 w p p f 7 & & 2 , > > a a r s e c / / / [ ] ] >.;.7 2 a a e a Q ~ 2 & 2 , p a z c B C p y 0 u p 0 , , > > & 1 w p ] e.e.t.",
"i.q.e.] # 1 = = & 2 f y % > > 1 a s a z a a s s s a 1 2 f f a a s r 2 = & - a s e e ^ { 7.e.9.e.q.q.q.r.n @ 4 > 0 a a w U { >.d.",
"u.y.d.] # 1 & > , 8 l f 7 7 & > e a a a a s a a a p : > a f l l r l & $ 1 & w l z m ^ { 7.q.0.w.q.8.e.p.Z # < , 0 z s s Y +.>.q.",
"y.y.p.} : 1 : 2 f a a C r.O.: & & - f s a c a a > & - > f x l e a a - & e a a a ^ { { ( +.@.O...O.O.4.p.Z : u a l a H o.{ { o.&.",
"y.y.p.} # 1 1 3 a l p F p.=.5 7 3 7 a a a a a a 1 & & 1 u x l r z a - & e a a a ~ { ( ( / [ [ ( [ [ 4.p.n @ 0 l l e U O.....{ ..",
"u.u.d.} + 7 f p s s w F r.q.5.6.0.=.# > & 1 & & & & & & 1 , l l a a - & e a e a f s z a z z z l z s :.f.V @ w l r e U #.%.o.o.O.",
"q.5.0.E O 3 s f s s w D e.w.u.u.s.2.6 5 - & 1 > 6 7 7 6 > & q q l a > > p e e s a a a a e a a r s w [ q.b o 0 a a e H / o.o.o.&.",
",.I 1 4 & 3 s r s f w C ..,.w.t.t.t.t.:.> - a c 8.8.0.1.5 > > , a a 1 & & = = = & = e c , & * * 0 c 5 1 > : y f a a z r U #.X.O.",
"&.V # 1 = 2 s r s s s N { @.w.w.w.w.y.;., 3 a b 9.w.u.8.i 4 > > w a & - 1 = - - 2 1 e a 7 8 < 8 f c 0 4 5 4 y a a z a w D ) ( [ ",
"j p # 5 p r a r p C [ { { ....;.p.,.6 0 a a a c { =.w.t.6.2.5 > > 1 e s e e Q ) / [ u % %.q.6.6.0.6.6.5.5.w.A % 0 c s s l k k z ",
"f 7 & 7 f s r s a C +.o.+...{ ;.p.;.# > a l l v [ O.9.w.p.0.5 > > & a s s l / o.[ ..0 % ;.r.q.e.p.q.p.u.u.a.A @ y a a a e r r a ",
"1 > & 7 s s r N / [ o.o.o.o.{ ;.r.;.> 4 e v / X.o.o.O.,.w.0.5 > 1 1 e s ^ ( { o.w 2 w r j M [ @.....8.u.w.g.A O > 1 1 - * - - > ",
"1 - & 5 s w r N o.o.o.o.( o.[ O.e.-.> , a v X.O...o.[ O.e.8.7 & > * a z ^ o.{ ..7 # w s r w Y +.{ | 8.w.t.u.B O = & - & > & , < ",
"6.T : 1 = 3 l l l D o.o.o.^ c a 0 0 & , a l c z l N X.O.q.e.5.;.0 & a r / o.f 5 1 & w s r a ^ +.+.{ 7.u.y.g.A @ 0 w D / =.4.5.3.",
"s.' : 1 & 3 a l q C o.{ o.Q a 0 % % & 2 f a r a e z X.O.9.e.r.q.7 & w s ^ { 7 # 1 = w r s r Y { [ +.7.w.0.p.Z % w k Y O.4.f.y.y.",
"u.9.8._ @ > 2 5 l x v c z z c a - 2 a a s a a s s s z M b V 0.0.0 # r s ( o.w # p a s s a a v z ~ +.%.#.n 7 4 & 9 s H O.O.O.=.%.",
"w.w.g. .: < > , f a a e a a s w & 1 s a e s s a s e a a f f 5.0.7 = w s ^ { 7 # w a a s l x l q Y ..o.O.f @ > & w r H O.X.%.o.%.",
"O.4.r.6.5._ > > 1 2 - - - - 1 - & - 1 1 2 1 2 1 1 2 - 3 ~ ] d t 1 1 p f c M 3 # p a r a a a ! X.{ O.D c 9 & 0 e a r U O.O.o.o.%.",
"| :.q.e.g.| # 1 & $ $ & $ & % & 1 & & & # : > > & & % 1 { { 1 # 1 1 p g s f 2 & a a a a l l ~ #.X.o.V a 5 % 0 z a e ! O.[ o.o.=.",
" .+.=.>.u.} # 5 r w w w p e e a w B <.<.:.<.2.<.3.O.> 1 [ [ 1 1 : = 1 1 2 2 = = 1 2 w r k a v v M M 3 2 = # w s a a c z Y o.o...",
"+.{ { :.d.| # 4 s a s s s s s z p S p.p.d.t.u.a.g.5.4 2 [ ..2 & 1 > : : : : : 1 : 1 p s l l a a f s 1 & = & t s a a a e H #.o...",
"M H { ,.p.| @ 5 s a s M ^ ^ ~ ~ ~ / =.<.q.q.w.y.u.2.< > i y & & : 5 | ,.;.&.t : > = 1 3 1 2 2 1 1 3 1 > & 1 1 2 p f a a z M m N ",
"p F o.>.p...@ 3 a r e C O.o.#.O.O.O.o.O.r.w.u.y.i.3.4 : > & # 1 & 2 8.d.p.u.d # : > : & % & & & & & & & > & & # 9 c a r l r r p ",
"a c V c f u @ 2 s r r V o.X.o.o.X.o.o.o.=.;.u.y.i.3.1 > > , 0 a U E O.=.0.w.2.*.,.,.,.,.` ` 0 $ 0 w w w t p 3 & 0 a l a l l r a ",
"f a f 7 % & & 2 a r w C o.o.o.o.o.o.{ o.[ =.y.y.a.5.5 > > & l x { O.....9.p.d.u.p.s.a.p.-.=.a % w r r r r f 2 O 0 x a l l l l f ",
"5 2 5 2 1 1 & 2 s r a z B V M D o.o.o.o.o.O.r.5.n f > > > - l l / o.o.O.=.;.=.;.8.u.w.i.Z 0 a q r r r w ^ <.;.;.V > 5 2 2 2 2 2 ",
"> & @ & # > : 7 s a a a a e w M o.O.O.o.o.:.r.8.> @ > > & * a z / o.o.O.X...{ { 8.w.w.s.f X q x s r r w @.d.t.h.L + > > % % * > ",
"+ n O...=.T > > 5 2 2 9 l a s s V V C N C C G D > 1 - > u u a z / O.O...{ +.{ +.;.,.q.u.f # w g a e H Y ..,.3.t.<.$.&.&. .-.V : ",
"; P h.p.g.$.; @ # O & 1 z s a a r r d a r e e 9 & % & - a l l z [ O.o.{  .{ +.{ | ..9.e.f + p s s f ~ @.o...3.u.p.d.p.g.s.k.T + ",
"; Z :.1.u.5.$.| ..S # 2 5 3 3 3 2 6 7 3 2 q H Q I F 1 & a a a a C C / { { +.+. ...O.w.d.f O p s s a ~ O.{ o.;.<.:.;.:.,.6.y.2.' ",
"; g ..:.p.y.a.a.l.-.# 1 # # # # # ; # # O 3 O.:.:...1 1 a l l a e a [ +.{ { +.{ ....8.s.d O p s a e ~ #.{ o.{ ..{  . .{ 5.p.p.a.",
": B +.O.:.1.u.,.n h : f | | | $.$.$.$.E > 2 a f d f 1 # 2 3 f s a l N C [ +.+.{ 1.7.w.e.f O p s r a N C Q o.o.{ ..o.4.5.0.q.q.y.",
"+ g +.{ [ <.h.*.+ : o g d.g.a.a.a.s.l.5.> & # @ + o # # # = p f l a a a ( ..{  .w.d.e.r.f O p s s l a w Y #.o.o.o.X.4.y.p.p.r.g.",
"P Q +.( { E A g > u F ] r.e.w.y.u.2.A b 0 q e a ] ] ] ] 6 1 p s s a s s V C C C U I 8.p.f # 1 3 2 - e a M C C C | 5.6.f.' b A A ",
",.;.+.+.@.U O # X a O.:.r.e.t.y.u.-.@ > l l a c r.d.d.9.1 O f s a s a s r p r f p f 1.f.d # = # & & p c a a a 0 o.h.p.h.P . % @ ",
"b f c g g p = 0 D U X.o.4.>.<.<.s.,.# 1 a M U Y :.>.,.:.] _ 0 5 r a a r 9 9 3 9 0 0 b F l y 0 w > & 5 7 5 3 p f K ! P L u > , > ",
"+ o @ # # # O w @.#.X.o.{ { ] &.u.,.= - p M +.+.{ [ { ..p.e.& @ a z x a & % & % % @ o . 7 u p p 2 > > > & & y g a f , o > , & : ",
"S S F f # w C U { { X.o.{ O.1.5.w.:.= 1 r M [  .X.o.( +.w.9.' ! 0 3 5 3 & - 9 0 I E ` E ' | | { f # < > 1 1 2 7 7 7 2 > > & a L ",
";.@.:.U O f ;.@.{ O.O.#.O.>.d.d.d.>.& 1 r j +.+.o.) o...w.w.g.p.0 @ > > & % a f 8.d.s.d.a.p.u.d.g + > @ > , # @ @ > > > > O C ,.",
"..{ O.I O f O.{ O.~ v c c b D S F B & 1 s s S G o.) ) @.q.u.i.6.y > 1 1 7 9 a f  .>.:.<.0.w.w.w.&._ ' ' f : A } f # = - 3 9 F ;.",
"....O.P # f O.o.#.F O % # O @ @ @ o & 1 g s w s o.+.{ ..q.u.u.6.7 % > & f z a s ^ {  .{ 9.p.w.u.u.g.u.k.Z   | z.L # 1 # 0 a G =.",
"....;.F @ f O.[ @.H & 2 0 0 0 u w 7 & = 3 w s s D G ..@.q.y.u.6.t % 7 0 e s r e ^ +.{ +.>.1.1.<.6.y.i.y.$.R T T d & 7 7 w w H O.",
"&...;.P @ g O...O.I @ 5 g x f f f d 1 1 O = s a p f | ;.y.y.a.6.t > g g s s a s ^ .... .{  . .$.6.i.y.y.u.k.Z X : > w j g f I &."
};
