/* XPM */
static char *result[] = {
/* columns rows colors chars-per-pixel */
"64 77 256 2 ",
"   c #030502",
".  c #050B03",
"X  c #0A0D04",
"o  c #080904",
"O  c #110F04",
"+  c #061303",
"@  c #0B1404",
"#  c #0C1B04",
"$  c #0A140C",
"%  c #0D1C0A",
"&  c #061906",
"*  c #121505",
"=  c #121C04",
"-  c #1C1A0C",
";  c #161908",
":  c #0D1A14",
">  c #121A14",
",  c #231D05",
"<  c #0D2304",
"1  c #0B2707",
"2  c #142405",
"3  c #1A2506",
"4  c #152B05",
"5  c #1A2C05",
"6  c #14230B",
"7  c #152B0B",
"8  c #1A2A0A",
"9  c #143305",
"0  c #1B3305",
"q  c #153B05",
"w  c #1C3B05",
"e  c #1C340A",
"r  c #1C3B09",
"t  c #14370A",
"y  c #122214",
"u  c #172918",
"i  c #193519",
"p  c #0D290E",
"a  c #2B2405",
"s  c #262609",
"d  c #322A0C",
"f  c #233405",
"g  c #233C06",
"h  c #22350A",
"j  c #233C0A",
"k  c #2A3C07",
"l  c #262917",
"z  c #332D14",
"x  c #253717",
"c  c #3A3519",
"v  c #303E0F",
"b  c #182B26",
"n  c #1B3324",
"m  c #1E352D",
"M  c #1E3B2B",
"N  c #193628",
"B  c #1C3533",
"V  c #1E3B34",
"C  c #1E3C3C",
"Z  c #193739",
"A  c #182F32",
"S  c #22352C",
"D  c #223A2D",
"F  c #263525",
"G  c #223D33",
"H  c #213D3D",
"J  c #29363A",
"K  c #383824",
"L  c #433D22",
"P  c #423B1E",
"I  c #1C4306",
"U  c #1C4409",
"Y  c #1B4807",
"T  c #1C4F14",
"R  c #234305",
"E  c #2B4405",
"W  c #244C06",
"Q  c #2B4C05",
"!  c #24430A",
"~  c #2B450B",
"^  c #244B0A",
"/  c #2B4C0B",
"(  c #324C06",
")  c #334D0A",
"_  c #364A07",
"`  c #2C5306",
"'  c #2D5B06",
"]  c #25520B",
"[  c #2C540B",
"{  c #2D5B0A",
"}  c #265606",
"|  c #335305",
" . c #3A5405",
".. c #345B05",
"X. c #3B5B05",
"o. c #32540B",
"O. c #335B0B",
"+. c #3B5C0B",
"@. c #3B560A",
"#. c #284615",
"$. c #324C15",
"%. c #2A5713",
"&. c #335512",
"*. c #345B12",
"=. c #3A5B13",
"-. c #375715",
";. c #2D640B",
":. c #3D6405",
">. c #34630B",
",. c #3B640B",
"<. c #346A0C",
"1. c #3C6B0C",
"2. c #356407",
"3. c #3C730C",
"4. c #3D7E0F",
"5. c #356511",
"6. c #3B6313",
"7. c #3C6C13",
"8. c #386816",
"9. c #3D7213",
"0. c #3F721B",
"q. c #2C6115",
"w. c #1E4438",
"e. c #21422E",
"r. c #264828",
"t. c #234334",
"y. c #254A35",
"u. c #25433C",
"i. c #29463B",
"p. c #264B3B",
"a. c #2A4B3D",
"s. c #2A4D31",
"d. c #2A543B",
"f. c #2C5838",
"g. c #315334",
"h. c #396832",
"j. c #415B09",
"k. c #405D12",
"l. c #456B06",
"z. c #44640B",
"x. c #436C0C",
"c. c #4B6D0C",
"v. c #476606",
"b. c #526D0A",
"n. c #44720D",
"m. c #4C730C",
"M. c #4C7B0C",
"N. c #487A0A",
"B. c #537C0D",
"V. c #55760C",
"C. c #436C12",
"Z. c #4A6C13",
"A. c #436815",
"S. c #437413",
"D. c #4A7413",
"F. c #447A13",
"G. c #4C7C14",
"H. c #4A771A",
"J. c #537C13",
"K. c #557917",
"L. c #617F15",
"P. c #547C22",
"I. c #474126",
"U. c #1F3F41",
"Y. c #2C3E42",
"T. c #234443",
"R. c #264A44",
"E. c #2B4C43",
"W. c #264B4C",
"Q. c #2A4D4C",
"!. c #284745",
"~. c #2B5344",
"^. c #2D5B45",
"/. c #2C544D",
"(. c #2D5C4D",
"). c #265248",
"_. c #325C4C",
"`. c #325747",
"'. c #294E51",
"]. c #2C5453",
"[. c #2D5B52",
"{. c #2E5959",
"}. c #2B5356",
"|. c #325B55",
" X c #335C5B",
".X c #305656",
"XX c #384841",
"oX c #2F614E",
"OX c #2F6040",
"+X c #336445",
"@X c #32634C",
"#X c #356B4B",
"$X c #386948",
"%X c #2E6156",
"&X c #326353",
"*X c #346B52",
"=X c #33645A",
"-X c #39645D",
";X c #336B5B",
":X c #3B6653",
">X c #397253",
",X c #3A714B",
"<X c #365F61",
"1X c #3B6661",
"2X c #3C7462",
"3X c #456959",
"4X c #427A51",
"5X c #4C656A",
"6X c #4C5360",
"7X c #4A850E",
"8X c #53830D",
"9X c #5A840D",
"0X c #5A8B0E",
"qX c #5D930E",
"wX c #4C8313",
"eX c #4B8118",
"rX c #548413",
"tX c #558B14",
"yX c #5B8B14",
"uX c #55841B",
"iX c #54891A",
"pX c #5B8B1A",
"aX c #5A8417",
"sX c #5B9315",
"dX c #5B921C",
"fX c #5A9717",
"gX c #648A0C",
"hX c #67930D",
"jX c #628B1A",
"kX c #648A15",
"lX c #629313",
"zX c #64941B",
"xX c #639B1B",
"cX c #6A9C1C",
"vX c #699914",
"bX c #739C19",
"nX c #71920F",
"mX c #6BA31B",
"MX c #6CAA1B",
"NX c #67A516",
"BX c #76A919",
"VX c #77B41D",
"CX c #6BA10E",
"ZX c #5A8823",
"AX c #5D9321",
"SX c #538939",
"DX c #638D22",
"FX c #679823",
"GX c #6B9B2F",
"HX c #76A624",
"JX c #7CB424",
"KX c #72A72B",
"LX c #86BA27",
"PX c #81B51F",
"IX c #85C028",
"UX c None",
/* pixels */
"UXUXUXUXUXUXUXUXUXUXUXUXUXUXUXUXUXUXUXUXUXUXUXUXUXUXUXUXUXUXUXUXUXUXUXUXUXUXUXUXUXUXUXUXUXUXUXUXUXUXUXUXUXUXUXUXUXUXUXUXUXUXUXUX",
"UXUXUXUXUXUXUXUXUXUXUXUXUXUXUXUXUXUXUXUXUXUXUXUXUXUXUXUXUXUXUXUX~ ^ U ` | ) UXT UXUXUXUXUXUXUXUXUXUXUXUXUXUXUXUXUXUXUXUXUXUXUXUX",
"UXUXUXUXUXUXUXUXUXUXUXUXUXUXUXUXUXUXUXUXUXUXUXUXUXUXUXUXUXUXY %.[ } ;.C.c.b.Z.! UXUXUXUXUXUXUXUXUXUXUXUXUXUXUXUXUXUXUXUXUXUXUXUX",
"UXUXUXUXUXUXUXUXUXUXUXUXUXUXUXUXUXUXUXUXUXUXUXUXUXUXUXUXUXUX0.iXG.;.9.iXZ.V.V.A.UXUXUXUXUXUXUXUXUXUXUXUXUXUXUXUXUXUXUXUXUXUXUXUX",
"UXUXUXUXUXUXUXUXUXUXUXUXUXUXUXUXUXUXUXUXUXUXQ ..' ] ^ / ) z.C.H.C.b.v.aXG.D.Z.+.UXUXUXUXUXUXUXUXUXUXUXUXUXUXUXUXUXUXUXUXUXUXUXUX",
"UXUXUXUXUXUXUXUXUXUXUXUXUXUXUXUXUXUXUXUX] ,.m.N.n.1.O..._  .m.j.j.kXJ.K.FXFXP.H.DXP.H.UXUXUXUXUXUXUXUXUXUXUXUXUXUXUXUXUXUXUXUXUX",
"UXUXUXUXUXUXUXUXUXUXUXUXUXUXUXUXUXUXUXUX9.m.qX8XtXsXfX<.Q _ X./ G.bXzXK.uXZXDXZXGXGXGXP.UXUXUXUXUXUXUXUXUXUXUXUXUXUXUXUXUXUXUXUX",
"UXUXUXUXUXUXUXUXUXUXUXUXUXUXUXUXUXUXUXUXn.M.qX7XN.8X7X1.Q _ | r 0.DXZX6.5.z.Z.ZXZXSXGXGXUXUXUXUXUXUXUXUXUXUXUXUXUXUXUXUXUXUXUXUX",
"UXUXUXUXUXUXUXUXUXUXUXUXUXUXUXUXUXUXuXlXqXN.NXNXfX2.n.X.:.| R g $.[ o.~ / C.b.o.z.K.$.-.UXUXUXUXUXUXUXUXUXUXUXUXUXUXUXUXUXUXUXUX",
"UXUXUXUXUXUXUXUXUXUXUXUXUXUXUXUXH.sXMXMXNXNXNXqX7X;.2.,. .| R R S.H.C.Z.` ] 6.@.b.K.z.$.UXUXUXUXUXUXUXUXUXUXUXUXUXUXUXUXUXUXUXUX",
"UXUXUXUXUXUXUXUXUXUXUXUXUXUXUXUXfXMXNXCXNXhX7X7XN.....+.R | ..` P.GXKXjXO.9 U ..K.L.K.A.E h #.t UXUXUXUXUXUXUXUXUXUXUXUXUXUXUXUX",
"UXUXUXUXUXUXUXUXUXUXUXUXUXUXUXU ;.4.7X0XN.N.qXN...X.X.h 0 9XcXS.A.PXKXDXK.| w Y 6.P.H.6.~ =.$.e UXUXUXUX1 UXUXUXUXUXUXUXUXUXUXUX",
"UXUXUXUXUXUXUXUXUXUXUXUX7 7 t r W 1.9XhXl.n.7X,.l.m.B.aXm.kXzX9.H.GXpXDXL.j.] ] / -.] ^ U *.O.[ 7 < t ! % UXUXUXUXUXUXUXUXUXUXUX",
"UXUXUXUXUXUXUXUXUXUXe Y ] U T >.' hXhXCX9X..0 Q hXVXLXJXn.| v.5.8.A.AXZXz.Q 5.] _ Z.=.&.=.8.! 5.8.5.1.[ 0 UXUXUXUXUXUXUXUXUXUXUX",
"UXUXUXUXUXUXUXUXUXUX#.S.F.{ ;.,.2.tXqXqX:.R R 1.kXbXLXbXx.c.Z.*.#.S.AXD.I I 0.*./ ZXP.K.S.C.[ C.FXFXdX,.9 t UXUXUXUXUXUXUXUXUXUX",
"UXUXUXUXUXUXUXUXUX#./ -.[ Z.x.1.;.2.3.:.v.l.2.;.,.z.FXDX1.9XpXk 0 C.6.+.I 9 I T 8.DXP.k.H.G.7.+.zXmXyXM.[ O./ x UXUXUXUXUXUXUXUX",
"UXUXUXUXUXUX$.r 9 4 / o.r tXlXN.3.' 2.9XgX0XrX4.3.3.4.;.;.n.Q = 2 E ^ I ` _ E g %.q.-./ K.pXS.>.FXpXtXgX,.2.2.6.#.UXUXUXUXUXUXUX",
"UXUXUXUXUX-.0.%.t 2 UXUX` xXmXrXN.1.0XhXgX0XMXtX7XCXMX7X2.g q W R { } <.C.b.b.j.U t t 5 E @.O.q.9.wXiXc.] ;.} { { ^ UXUXUXUXUXUX",
"UXUXUXUXUX#.^ #.5 5 UX6 7 H.wX6.1.3.N.9XsXxXvXgXgX0XlX8Xm.( ..wXfXF.2.H.iXx.J.V.5.q.7.=.R 0 ] } >.dXrX/ I 9.8.1 p p UXUXUXUXUXUX",
"UXUXUXUXUXi t j w ! 4 2 7 W Q m.9XmX8XxXVXBXnXBXPXl.B.gXv.v.m.M.G.x.c.c.rXH.D.z.5.K.ZXD...2 9 I C.x.x.w 9 Y { 0 2 UXUXUXUXUXUXUX",
"UXUXUXUXUXUXt 7 7 0 7 2 { tXvXVXVXMXCXmXsXvXvXPXLXtX:.m.l. .l.B.2.x.kXJ.aXdXAXD.S.pXK.Z.@.j 6 1 j / ` 9 2 q Q ` r : UXUXUXUXUXUX",
"UXUXUXUXUXUX7 u u e [ ^ [ fXmXMXNXNXvX9XM.N.G.mXFXM.vXfX3... .2.| tXmXjXD.G.eXrXuXFXFXDXS.] t 2 0 k 9 e % e / ~ j UXUXUXUXUXUXUX",
"UXUXUXUXUXUXi r.UXZXyXwX] <.3.n.lXN.x.hX8X2.X.,.j | 7X8X1. . .' Y S.zXK.2.>.,.D.uXuXuXAXZXq.%.e 3 / j e % $ % 6 % UXUXUXUXUXUXUX",
"UXUXUXUXUXUXUXUXUX-.D.S.^ F.c.gXnXgXl.n.O.x.9XwXwXF.' 3.:.l...W q ^ [ Q E [ D.v.` x.C.O.[ q ] j + 6 h ! < + UXUXUXUXUXUXUXUXUXUX",
"UXUXUXUXUXUXUXUX#.f ^ o.| | yXbXBXgXl.} W B.BXLXHX>.} [ ` ..( q W N.F.3.,.` [ O. .m.b.z.g 4 < 4 8 e < 4 e y UXUXUXUXUXUXUXUXUXUX",
"UXUXV T.W.T.UX&.1.{ ' v.v.X.m.lXgXm.} ..l.vXvXmXcXO.Q ....Q | ..` iXHXcXrX` Y W X.J.V.9Xo.h 2 2 ! &.! # < % UXUXUXUXUXUXUXUXUXUX",
"UX&X*X@X#XoX[.T Y } X.gXnX1.{ 2.,.2.<.<.m.hXzXsXmX<...X.,.M.tXsX1.D.cXzXyXm.O.q w x.G.D.| w >.@.O.H.S.-.e &.6.UXUXUXUXUXUXUXUXUX",
"UX&X>X#X#X#X#Xf.u O.9XhXgXN.M.rXM.l.4.7X2.x.sXfX7.3.>.:.l.8XlXsX>.wXxXrXyXm.O.I 9 g O.^ ^ Y S.J.x.6.7.S.>.S.S.H.-.UXUXUXUXUXUXUX",
"UXUX*X*X#X#X$Xg.` 9Xn.M.xXNXvXhXvXl.7XN.Y } 8XfX4.>.8XfXqXfX1.,.>.>.9.dXJ.| O.>.R Q S.,.O.{ H.uX6.[ ^ [ 7.S.7.H.H.H.UXUXUXUXUXUX",
"*XUX*X#X#X@Xh.pXvXVXsXmXMXMXvXCXBXn.;.' R Y 3.x.n.1.vXJXIXMX:.1.1.} F.yX1.q Y F.{ X.m.,.,.1.x.O.j 9 Y &.^ ^ >.^ %.T UX3XUXUXUXUX",
"oXUX#X$X#XSXGXJXVXMXCXNXtXsXsXVXVXtX..I R I 2.2.x.gXBXBXLXjXn.vXzXC.C.,...I ] Y W Q Q Q n.tXtXiXz.! U &.w I *./ t ^.;X2XUXUXUXUX",
"@X_.@X@X(.0.fXfXfXlX0X8XM.l.l.rXsX3.} R Q | :.3.N.gXBXmXVXdX<.fXK.~ f w W Y >.R g 5 4 W wXtXsXdXFXeXr 0 0 o.C.O.{ r.>X>XUXUX;X*X",
"+X_._._.p.q ' l.gXN.:.9X7X..X.O.2.1.} w ..:.' F.n.l.kXJXsX3.9.,.E 2 2 5 I } O.( | g 0 ` ,.1.N.9.S.<.U 9 4 ! 7.6.k.r.^.,X>X>X#X$X",
"_._._._.y.e x.nXnXnXl.>.I 2.aXpXfXrXW 0 E Q 2.sX;.Y B.mXfX>.;.,.| R # < q W ' n.3.<.' O...` x.z.` [ / r 2 0 j / j s.#X,X>X>X#X@X",
"_.]..X].p.~ J.bXBX9XX.W I 1.cXJXHXJ...n.X.g [ { ' Y x.V.K.7.F.J.+.{ ^ ! 0 R Q uXFXxXrXO.` :.8Xm.D.Q 0 Y U 0 0 j r j r.d.$X,X@X@X",
"[._.).!.-.I O.9XyXx.Q W z.kXjXzXHXA.F.cXjXE j.X.Q 9 ` X.X.1.pXyXS.] 7.H.H.rXO.C.HXcXyXn.` | J.M.V.~ 4 [ &.4 Q / o.( ( h g.,X@X(.",
"_.t.#.-.V.<.O.2.x.` O.;.+.V.jXuXpX0.>.J.k.k ~ E k f  .j.v.gXb.X.,.C.z.Z.aXiX>.H.FXyXpXV.+.} O.7.o.r 5 9 ! 8 0 E / / | Q %.$X>X@X",
"^.$.Z.J.M.n.V.S.m.( 5.H.} | uXFX5.*.5.( E / j -.yXzXn...j.m.v.x.rXFXaXz._ +.{ 5.S.pXaXj.{ { Q [ U U = @ + 4 f # < w < 1 t f.,X$X",
"w.#.-.,.1.{ +./ q 9 7.5.9 q Z.wXS.^ ^ Q ,.,.^ o.zXfXF..._ E { wXzXzXFXH.@.^ { { F.dXC.I ^ F.5.$.-.k 7 2 + # h @ 2 k 3 = s.,X$X+X",
"w.b % ~ ` < _ @.< < U q 1 9 @._ *.! +.D.x.F.<.} 2.N.b.b.v.R w | N.eXwXS.>.^ U { S.z.O.q Y ] { *.D.-.&.o.5 . . @ f _ E 0 u f.+X+X",
").i k j.j.g 5 2 < ~ o.*.%.9 2 = 0 / Z.D.5.pXD.} ;.2.X.b.l.Y ` x...l.M...I 4 ^ *./ R ` 9 q ] 6.0.P.H.&.8 + + < @ = g w h n d.+X+X",
"V u j.v.c.0 %   7 z.uXjX*.& 1 6 e U o.S.G.iXx.S.` ..' | ......1.x.0X9XM.@.2 = ! 4 4 9 ] / ^ { *.] %.t + < < < j s 5 & % r.$X+X$X",
"R.n ~ o.#.e.u 8 +.b.A.aX$.4 o.6.G.5.S.dXdXK.kXvXx. .| Q 8XCX7X2...8XyXrX,.0 ^ r U 0 9 ^ -.0 ^ -.e t w q 1 Y ^ j Q g 2 u s.+X#X@X",
"(.b y i u ^.p 4 _ Z.6.,.8.A.uXG.eXH.eX3.M.G.cXVXrXX.z.j.NXVX7X;.R 2.G.z.^ 4 5.ZXH.C.! < 9 r 6.A.6.! j I w I ` 9 R E 0 #.:X+X@X_.",
"=Xd.g.f.y.w.W 9 = ~ 7.^ Y 7.9.7.9.5.5.{ { [ H.uX2.g Q Q +.B.<.3.Y R ) ] [ U $.jXFXD.*.4 # 4 &.C.A.$.2 h +.~ Q O.[ 4 4 [ r.t.p.oX",
"2X:X_.@X(.e.^ p . 0 O.[ 4 r I >.} r z.1.I 0 I I R g 0 ` ..Q <.7X[ R ~ D.S.^ %.DXK.H.K./ 9 5 w #.$.e # j c.+./ [ { ` ] >.@.~ i ).",
"1X=X&X X).M u u $ 8 5 j 2 j ,.C.7.! / g ^ x.G.iXG.w 0 | ..5 0 { >.{ t e k.! / 6.7.H.=.0 U q 4 h e 8 2 ^ H.6.R I 9 Q O.{ ;.5.{ s.",
" X X X=X X~.i e 5 5 9 2 0 O.J.G.S.g 9 4 O.sXVXJXG.R 2.R 2 2 4 ! 6.O.4 2 5 j r / H.6.e 9 *.r 2 e h e = < r 8 @ < q 0 9 Y Y q U i ",
".X.X X X-Xg.( +.[ ` ' R 4 | Z.7.[ 9 7 / yXjXcXJX+.<.sXG.f R j o.K.-.4 ^ Q j 2 *.-.| 2 # e ! = 2 # @ = 9 < < # # q f # g g # y Q.",
"-X-X-X=X*Xn r t I w 0 9 q g ! ~ 2 < q / B.zXtXxXS.[ S.,.j ~ o.[ 2.=.1 R j 3 # 9 9 g = @ + @ X   . @ + *.7.>.` 2 % = 5 o._ ( 7 !.",
" X1X-X-X Xu.% @ f 4 # R w I ! / 8 0 >.I ~ G.fX<.O.[ k 2 < + j ;.^ 7 5 8 X + 1 < 0 = 3 = 2 = . + 5 I < ! J.S.+.e y y y ! o.) x A ",
"1X1X1X1X XG 7 k E R = @ . j ` { / [ { 9 5 ,.wXn.! r 2 R 4   2 Q ] 2 + # 2 9 4 5 f 2 5 5 = 2 2 e ..' 9 #.H.+.,.@.5 y b 6 h 8 u !.",
"-X X X[.W.b h E Q 0 y + . 0 O.n.+.4 4 0 4 O.` O.j R 2 5 7 @ = 5 7 = @ = 5 2 f E f / ~ 5   X 2 0 4 h < r / { +.k < 1 b > u u n `.",
"=X|.].W.!.C y 0 e 7 w.y 5  .@.+.x.e 9 W 0 0 5 0 4 Q f 5 5 2 * 0 @ .   = 3 @ E X.R ! ^ W # 2 4 # . @ 4 6 U 5.g @ < / D E._.`.g. X",
"{.{.'.'.W.u.y y u S D < = k [ W / 7 < 0 Q 9 4 | { ` g  .h @ 3 E 9 +   @ = # { ,.Q w 0 9 w ~ R 4 + X # 6 #.! 5 o : 7 x '.1X X.X.X",
"/./.'./.}.Q.t.a.E.H i 0 + @ g { 9 # g ' ,.' } ' ` ! ) j.f + # # 6 @ X @ = . 7 e 2 @ # 5 4 9 w 4 + + % * * u 8 : H Z !.'. X.X}..X",
"/.Q.W.'.'.W.R.'.W.H 7 = .   5 r U ` >.2.;...} 0 w w o.C.#.+ . & @ @ =     + + # + . & g 2 @ f f @ A B % : T.E.R.|. X X.X.X].].|.",
"].'.W.W.W.W.W.T.W.U.b $ .   2 @ & 9 q I R 9 5 w < + 6 8 #             .   # &.[ W 5 @ # @ 5 E f 0 u ).R.E.(.[.{.|. X.X].}.].(.[.",
"Q.W.W.W.'.}./././..X!.> 5 = 5 ; + + # f 0 @ 0 q + @ # & 4 .           3 2 % o.D.+.E 2 @ . # E E k @ B &X&X&XoX&X&X&X|.].{.).[.(.",
"Q..X'.W.W.W./.(././.Y.3 E E E = @ @ E k Q 5 @ . @ R [ 6.[ + . X * X f  .E 6 $.z._ j.k = . @ 2 f 3 o u (.&X@XoX#X&X X X{.[.[.[.[.",
"6X6X}.}.T.W.].~.).R.d.x f f e S $ = ~ E R # X . 5 ( z.D.j % f 3 X o * 3 f % #.~ $._ 3 % &   . + X 6 M p.oXoXoX&X|. X.X X}.{.|.oX",
" X'./.=X/._.|././._.@Xu % x u a.: @ 3 h + . . 6 E j.) z.#.< _ _ 3 ; *   * 8 % ~ ) 8 . 7 h : @ l l i.p.).oX[.oX%X&X X.X.X{.|.(.(.",
"{.[.|.=X&X;X@X/./.#X$Xr.i.A.g.s.3 # @ ; o . % # 3 ) $.! h = f ; , , =     X 3 v h *   . 8 y u t.i.6Xu.w././.Q.].E.Q..X.X&X*XoX^.",
"%X%X*X;X&X*X&X_.^.@X#X+X$X4X$Xx i x r.i u % h % . h @.h @ 3 O   ; a ,   o O % > 8 $   $ : m V V J H C C T.R.'.!.H U.!..X|.&X&X(.",
";X;X;X;X;X;X%X[.oX(.oXoX(.oX(.N b d.f.s.r.7 y     2 h k ; ; - X , a , o o O o > A > b b B C C Z H C U.C U.U.T.U.U.T.C !.{.<X{.{.",
";X;X;X;X%X%X%X).(.oX(.(.[.[.*X#XOXf.f.f.s.n u $ . 3 6 ; * d d , a a a o o O O > A A A A Z C C C C w.C C U.U.H Z C W.T.!.{. X<X5X",
"}.%X}.}.}.}.[.).oX*X*X*XoXoXf.f.d.d.d.).R.p.y.e.M M M ; , d c a a a z o o , O - Y.J A A A C H H Z Z Z C H U.C U.T.'.].]. X<X<X5X",
"'.'.'.W.}.W.}.%X*X*X>X*X#XOXf.s.s.y.w.p.R.V w.w.G V n s , z c a d , z O o , O O b Y.A A B B G H H Z Z H H U.U.C T.].{.{..X X X<X",
").}.}.).W.W.(.%X,X,X#X*X,X@Xd.s.y.w.p.p.w.Z B e.t.M l z , c c d d a z O   , , X o > b Z B B u.H u.u.H H C H U.C U.}..X{.{. X.X.X",
"}.(.oX(.[.(.oX#X#X#X+Xh.OXf.^.a.p.d.y.w.w.M e.t.e.F K - , P d d d a z ,   , , , o o ; n H J H G H !.U.U.T.U.T.C U.'..X{.{..X}..X",
"oXoXoXoXoX*X#X*X#X+X+Xd.s.d.f.y.d.^.y.y.w.e.e.M u l l X , L a z c , z ,   - 6 l - > S F G i.u.i.u.!.T.T.T.H T.T.!.'..X X.X}._.3X",
"oXoXoXoX^.oXoXoX#X+X@Xd.p.d.+Xd.p.p.y.y.e.y.e.i n u A l P c , c L - l z > n m B S b J u.i.i.u.u.a.!.T.T.T.H T.T.!.!.Q..X.X.X:X5X",
"(.oX*XoX@XoX@X:X,X$X3X_.d.i.`.&X~.y.y.t.e.y.y.t.e.M F c K - - c L > - c , A S S S D D i.i.i.u.u.i.i.!.i.H E.E.a.`._./.E./.|.3X3X",
"%XoXoXoXoX@X@X@X$X3X3X:X_.E.`.`.i.p.i.i.y.y.y.t.e.F x K F : z L c ; > K l u m m D D D G G G G G u.y.i.i.a.E.a.XXXX-X=XE.).[.|.|.",
"#XoXoXoX^.+XoX+Xh.3X:X_._.E.a.Q.i.E._.~.p.t.V t.e.F F M B l L c l b B S F - m m M D D G G G u.t.G t.i.a.E.~.E.E._.;X;X=X}.[.[.'.",
"oXoXoXoX@XoX^.(._._.|.|.|./.`.E.i.~.`.~.u.u.u.u.u.t.V B S K F b l b B B S F m S D G u.u.u.u.u.T.u.i.i.u.u.Q.R.!./.[.&X{.[.[.(.[.",
"^.(.).%XoX).[.(._./..X|./..X`.E.!.E.!.u.u.u.u.u.H G J S K S A S b b S G B B G G G u.u.T.!.!.T.T.!.!.a.R.u.!.!.R.W.T./.^.^._.&X_."
};
