/* XPM */
static char *result[] = {
/* columns rows colors chars-per-pixel */
"63 64 139 2 ",
"   c #04141E",
".  c #08161F",
"X  c #07191F",
"o  c #09191F",
"O  c #061621",
"+  c #081720",
"@  c #071820",
"#  c #091A21",
"$  c #0C2125",
"%  c #0E2528",
"&  c #112526",
"*  c #132629",
"=  c #132D2C",
"-  c #1A2C2E",
";  c #15322E",
":  c #1B322D",
">  c #1A2C31",
",  c #163431",
"<  c #1B3531",
"1  c #1C3C34",
"2  c #213F34",
"3  c #263939",
"4  c #2A3C3C",
"5  c #1C4137",
"6  c #1E4439",
"7  c #1F493B",
"8  c #2D4A36",
"9  c #214A3E",
"0  c #2D4C39",
"q  c #324D3D",
"w  c #2A513F",
"e  c #32513A",
"r  c #244E41",
"t  c #3A4E4C",
"y  c #245143",
"u  c #2B5343",
"i  c #2A5946",
"p  c #295A48",
"a  c #3A5542",
"s  c #325C43",
"d  c #3C524C",
"f  c #2E654E",
"g  c #2F684E",
"h  c #366145",
"j  c #386247",
"k  c #37664A",
"l  c #306A4F",
"z  c #2F6750",
"x  c #2E6950",
"c  c #326B51",
"v  c #3F7351",
"b  c #465A53",
"n  c #495D55",
"m  c #4B5F58",
"M  c #4E754B",
"N  c #50774C",
"B  c #537D4E",
"V  c #4E6259",
"C  c #52655C",
"Z  c #54695D",
"A  c #417351",
"S  c #427B55",
"D  c #497D54",
"F  c #4B7F62",
"G  c #587664",
"H  c #56814F",
"J  c #478157",
"K  c #498157",
"L  c #498158",
"P  c #578250",
"I  c #598352",
"U  c #5E8559",
"Y  c #548C5C",
"T  c #5C955D",
"R  c #61895B",
"E  c #67995B",
"W  c #699C5E",
"Q  c #6A8D66",
"!  c #679F60",
"~  c #699C6D",
"^  c #6B8674",
"/  c #738C7A",
"(  c #7F967F",
")  c #66A061",
"_  c #68A162",
"`  c #6FA965",
"'  c #74A563",
"]  c #74AA62",
"[  c #7BB166",
"{  c #7CB66A",
"}  c #80B06F",
"|  c #85BE6B",
" . c #82B370",
".. c #8CBD76",
"X. c #8EB97E",
"o. c #86C16C",
"O. c #88C36E",
"+. c #95C97C",
"@. c #98CD7F",
"#. c #7C9181",
"$. c #829783",
"%. c #849B85",
"&. c #879D88",
"*. c #8DA38C",
"=. c #88AD8D",
"-. c #92A78F",
";. c #92BB82",
":. c #93A993",
">. c #96BC9A",
",. c #9CBA9D",
"<. c #A4D38D",
"1. c #A6CC9E",
"2. c #A7D791",
"3. c #ACC5A4",
"4. c #AFC9A7",
"5. c #B0C7AD",
"6. c #B4DBA2",
"7. c #B8DFA4",
"8. c #B1D3AE",
"9. c #B4CBB0",
"0. c #B5D6B1",
"q. c #BDD7B3",
"w. c #BFD9B4",
"e. c #B9E0A5",
"r. c #C2DAB6",
"t. c #C5DCBB",
"y. c #C9DFBD",
"u. c #CAE5BE",
"i. c #CDE8C0",
"p. c #D2EAC5",
"a. c #D7F0C7",
"s. c #DAF5CA",
"d. c #DDF9CC",
"f. c #DFF7D0",
"g. c #DFF8D3",
"h. c #E2FACF",
"j. c #E2FAD2",
"k. c #E9FFD7",
"l. c #E8FFD8",
/* pixels */
"g.f.g.j.j.j.f.j.C   %.l.f.g.j.j.g.g.j.j.5.$ 4 p.j.j.j.j.j.g.j.j.g.j.j.j.g.j.l.#.  Z d.d.h.g.j.j.f.j.j.i.3 # 9.h.j.j.j.h.d.g.#.",
"f.f.s.s.a.s.s.s.V   ( s.s.s.s.s.s.s.s.d.3.# 4 i.d.s.s.s.s.s.s.s.s.s.s.a.s.s.h.#.  Z d.s.s.s.s.a.s.s.s.i.3 $ 4.h.s.s.s.s.a.a./ ",
"f.s.<.+.+.+.+.+.e   I <.+.+.+.+.+.+.+.+.' # 2 ..+.+.+.+.+.+.+.+.+.+.+.+.+.+.@.I   e <.+.+.+.+.+.+.+.+...: # ' <.+.+.+.+.~ F u ",
"g.a.+.| o.o.o.o.e   M | | | | | o.{ | | E # - [ | | | | o.{ o.{ o.| | | | | o.M   e { { o.| | | | | | [ ; X E o.o.| | o.Y x 6 ",
"g.s.+.o.o.o.o.O.e   i v v S S S v v J J k # & v S S v J v J v J J v J v S S S 9   1 v J J v S v S S v v % # k S ] O.o.o.Y g 6 ",
"g.s.+.o.o.o.o.o.e   7 x x f x f x x x g y O % f f f f f x x f x x x x x x f f 9   , x x x x x x z x f f % # p l ` O.o.o.Y f 6 ",
"j.s.+.o.o.o.o.o.e O % = = ; = = = = = = * @ # = = = = = = = = = = = = = = = = % @ $ = = = = = = = = = = # # p l ] O.o.O.Y g 6 ",
"j.s.+.o.o.o.O.O.e O   X O   X @ @ @ @ @ @ @ @ X . O   O @ @ @ @ @ @   X @ . . + @ @ @ @ @ @ @     O   @ @ # p g ` O.o.O.Y g 6 ",
"V V e q e q e q = O @ @ @ @ @ @ @ @ @ @ @ @ @ @ @ @ @ @ @ @ @ @ @ @ @ @ @ @ @ @ @ @ @ @ @ @ @ @ @ @ @ @ O # = ; 0 w q q 2 ; & ",
"    O         . O . @ @ @ @ @ @ @ @ @ @ @ @ @ @ @ @ @ @ @ @ @ @ @ @ @ @ @ @ @ @ @ @ @ @ @ @ @ @ @ @ @ @ # O . +       O     O ",
"&.$.I B N N i 7 % O # @ @ @ @ @ @ @ @ @ @ @ @ @ @ @ @ @ @ @ @ @ @ @ @ @ @ @ @ @ @ @ @ @ @ @ @ @ @ @ @ @ + # 6 9 ^ %.R N s 6 ; ",
"j.d.@.o.O.O.L x , @ . @ @ @ @ @ @ @ @ @ @ @ @ @ @ @ @ @ @ @ @ @ @ @ @ @ @ @ @ @ @ @ @ @ @ @ @ @ @ @ @ @ @ @ p c 0.l.2.O.Y l 6 ",
"j.s.+.o.o.o.J x , O X @ @ @ @ @ @ @ @ @ @ @ @ . @ @ @ @ @ @ @ @ @ @ @ @ @ @ @ @ @ @ @ @ @ @ @ @ @ @ @ @ @ # p c 8.j.<.o.Y g 6 ",
"g.s.+.o.o.o.D x , O X @ @ @ @ @ @ @ @ @ @ @ @ O @ @ @ @ @ @ @ @ @ @ @ @ @ @ @ @ @ @ @ @ @ @ @ @ @ @ @ @ X o p c 8.h.<.o.Y l 6 ",
"d.s.+.o.O.o.K c , O @ @ @ @ @ @ @ @ @ @ @ @ @ X @ @ @ @ @ @ X O @ @ @ @ @ @ @ @ @ @ @ @ @ @ @ @ @ @ @ @ # # p c 8.j.<.o.Y g 6 ",
"j.a.<.o.O.O.L x ; . @ @ @ @ @ @ @ @ @ @ @ @ @ @ @ @ @ @ @ @ X @ @ @ @ @ @ @ @ @ @ @ @ @ @ @ @ @ @ @ @ @ # # i l 0.k.2.O.Y g 6 ",
":.=.U P P B s r = + @ @ @ @ @ @ @ @ @ @ @ @ @ @ @ @ @ @ @ @ @ @ @ @ @ @ @ @ @ @ @ @ @ @ @ @ @ @ @ @ @ @ # # 6 r / :.Q B j 9 , ",
"      O O     O O O @ @ @ @ @ @ @ @ @ @ @ @ @ @ @ @ @ @ @ @ @ @ @ @ @ @ @ @ @ . @ @ @ @ @ @ @ @ @ @ @ @ O O . .         . . . ",
"b b 0 8 8 8 , = # # . @ @ @ @ @ @ @ @ @ @ @ @ @ @ @ @ @ @ @ @ @ @ @ @ @ @ @ O # @ @ @ @ @ @ @ @ @ @ @ @ @ @ = , t b q 8 1 = $ ",
"f.a.+.| | | L f , @ @ @ @ @ @ @ @ @ @ @ @ O @ @ @ @ @ @ @ @ @ @ @ @ @ @ @ @ @ @ @ @ @ @ @ @ @ @ @ @ @ @ @ # p c 8.d.<.| Y f 6 ",
"d.s.+.o.| o.L l , @ @ @ @ @ @ @ @ @ @ @ @ @ @ @ @ @ @ @ @ @ X @ @ @ X @ @ @ @ @ @ @ @ @ @ @ @ @ @ @ @ @ @ # p c 8.j.<.o.Y g 6 ",
"f.s.+.o.| | D l , O X @ @ @ @ @ @ @ @ @ @ @ @ @ @ @ @ @ @ @ @ @ @ @ @ @ @ @ @ @ @ @ @ @ @ @ @ @ @ @ @ @ @ # p c 8.h.<.o.Y g 6 ",
"j.s.@.o.o.| L x , + X @ @ @ @ @ @ @ @ @ @ @ @ @ @ @ @ @ @ @ @ @ @ @ @ @ @ @ @ @ @ @ @ @ @ @ @ @ @ @ @ @ @ # p c 8.h.<.o.Y g 6 ",
"j.s.;.O.O.o.L x ; O @ @ @ @ @ @ @ @ @ @ @ @ @ @ @ @ @ @ @ @ @ @ @ @ @ @ @ @ @ @ @ @ @ @ @ @ @ @ @ @ @ @ @ # p x 8.k.<.o.Y f 6 ",
"u.w. .] ] ] A p ; + # + @ @ @ @ @ @ @ @ @ @ @ @ @ @ @ @ @ @ @ @ @ @ @ @ @ @ @ @ @ @ @ @ @ @ @ @ @ @ @ @ # # r k ,.y.X.[ D p 9 ",
"> - * * & & $ $ # # . O @ @ @ @ @ @ @ @ @ @ @ @ @ @ @ @ @ @ @ @ @ @ @ @ @ @ @ @ @ @ @ @ @ @ @ @ @ @ @ @ O O # $ - - & & & o . ",
"- = & % & & # $ # O . @ @ @ @ @ @ @ @ @ @ @ @ @ X O @ @ @ @ @ X O @ @ @ @ @ @ @ @ @ @ @ @ @ @ @ @ @ @ @ # O # $ * * * & $ $ # ",
"r.q.} ] ] ] A p , @ X @ @ @ @ @ @ @ @ @ @ @ @ @ @ X @ @ @ @ @ O X @ @ @ @ @ @ @ @ @ @ @ @ @ @ @ @ @ @ @ O # r f ,.r.X.' D p 1 ",
"j.s.+.o.O.o.L g , O X X O X @ @ @ @ @ @ @ @ @ @ @ @ @ @ @ @ # . @ @ @ @ @ @ @ @ @ @ @ @ @ @ @ @ @ @ @ @ @ # p c 8.k.<.o.Y g 6 ",
"j.s.+.o.o.o.J g , O X O O X @ @ @ @ @ @ @ @ @ @ @ @ @ @ @ @ @ @ @ @ @ @ @ @ @ @ @ @ @ @ @ @ @ @ @ @ @ @ @ # p c 8.h.<.| Y g 6 ",
"j.s.+.o.o.| L g , O . X X @ @ @ @ @ @ @ # @ @ @ @ @ @ @ @ @ @ @ @ @ @ @ @ X @ @ @ @ @ @ @ @ @ @ @ @ @ @ # # i c 8.h.<.| Y g 6 ",
"j.a.;.O.o.o.L g , O X O @ @ @ @ @ @ @ @ O @ @ @ @ @ @ @ @ @ @ @ @ @ @ @ @ @ @ @ @ @ @ @ @ @ @ @ @ @ @ @ # # i l 8.h.<.| Y g 6 ",
"f.s.+.| o.o.D l ; @ . @ @ @ @ @ @ @ @ @ @ @ @ @ @ @ @ @ @ @ @ @ @ @ @ @ @ @ @ @ @ @ @ @ @ @ @ @ @ @ X @ # # p c 0.j.<.o.Y f 6 ",
"V m q 8 q 0 < ; % @ # @ @ @ @ @ @ @ @ @ @ @ @ @ @ @ @ @ @ @ @ @ @ @ @ @ @ @ @ @ @ @ @ @ @ @ @ @ @ @ @ @ O O = ; d V a 8 2 ; % ",
"    O         . O O @ @ @ @ @ @ @ @ @ @ @ @ @ @ @ @ @ @ @ @ @ @ @ @ @ @ @ @ @ @ @ @ @ @ @ @ @ @ @ @ @ @ @ O . .           . . ",
"*.&.U B B B i 7 % # . @ @ @ @ @ @ @ @ @ @ @ @ @ @ @ @ @ @ @ @ @ @ @ @ @ @ @ @ @ @ @ @ @ @ @ @ @ @ @ @ @ @ @ 5 r / *.R N s 7 ; ",
"j.g.+.O.O.O.L c , O @ @ @ @ @ @ @ @ @ @ @ @ @ @ @ @ @ @ @ @ @ @ @ @ @ @ @ @ @ @ @ @ @ @ X @ @ @ @ @ @ @ @ # p c 8.k.2.O.Y l 6 ",
"f.s.+.o.o.| L l , # X @ @ @ @ @ @ @ @ @ @ @ @ @ @ @ @ @ @ @ @ @ @ @ @ @ @ @ @ @ @ @ @ @ O @ @ @ @ @ @ @ @ # p c 8.j.<.| Y l 6 ",
"g.s.+.o.o.| L g , O . @ @ @ @ @ @ @ @ @ @ @ @ @ @ @ @ @ @ @ @ X @ @ O . @ @ @ @ @ @ @ @ X @ @ @ @ @ @ @ @ # p c 8.h.<.| Y f 6 ",
"g.a.+.o.o.o.L g , O @ @ @ @ @ @ @ @ @ @ X @ @ @ @ @ @ @ @ @ @ @ @ @ X @ @ @ @ @ @ @ @ @ @ @ @ @ @ @ @ @ @ # p c 8.j.<.o.Y l 6 ",
"l.d.@.O.O.O.L x , . @ @ @ @ @ @ @ @ @ @ @ @ @ @ @ @ @ @ @ @ @ @ @ @ @ @ @ @ X @ @ @ @ @ @ @ @ @ @ @ @ @ . # p c q.k.<.O.Y l 6 ",
"*.*.U B H H i 9 * O @ @ @ @ @ @ @ @ @ @ @ @ @ @ @ @ @ @ @ @ @ @ @ @ @ @ @ @ @ @ @ @ @ @ @ @ @ @ @ @ @ @ @ @ 6 9 / *.Q B A l 6 ",
"            . . O O @ @ @ @ @ @ @ @ @ @ @ @ @ @ @ @ @ @ @ @ @ @ @ @ @ @ @ @ @ @ @ @ @ @ @ @ @ @ @ @ @ @ @ O . .         9 l 6 ",
"n n 0 0 0 0 < ; $ @ . @ @ @ @ @ @ @ X @ @ @ @ @ @ @ @ @ @ @ @ @ @ @ @ @ @ @ @ @ @ @ @ @ @ @ @ @ @ @ @ @ # @ = , d n q 8 i l 6 ",
"f.s.+.| o.o.K g , @ @ @ @ @ @ @ @ @ @ @ @ @ @ @ @ @ @ @ @ @ @ @ @ @ @ @ @ @ @ @ @ @ @ @ @ @ . @ @ @ @ @ @ # p c 8.h.<.| Y l 6 ",
"f.s.+.| | | K f , O X @ @ @ @ @ @ @ @ @ @ @ @ @ @ @ @ @ @ @ @ @ @ @ @ @ @ @ @ @ @ @ @ @ @ @ # @ @ @ @ @ @ # p c 8.h.<.| Y l 6 ",
"j.s.+.| o.| K g , O X @ @ X @ @ @ @ @ @ @ @ @ @ @ @ @ @ @ @ @ @ @ @ @ @ @ @ @ @ @ @ @ @ @ @ @ @ @ @ @ @ O # i c 8.h.<.| Y g 6 ",
"f.s.+.o.o.| K g , O . @ @ @ @ @ @ @ @ @ @ @ @ @ @ @ @ @ @ @ @ @ @ @ @ @ @ @ @ @ @ @ @ @ @ @ @ @ @ @ @ @ + # i c 8.j.<.| Y l 6 ",
"j.s.<.{ O.O.K g , # @ @ @ @ @ @ @ @ @ @ @ @ @ @ @ @ @ @ @ @ @ @ @ @ @ @ X @ @ @ @ @ @ @ @ @ @ @ @ @ @ @ @ # p c 0.k.2.O.Y l 6 ",
"t.q.{ ] ] ] A p ; . . @ @ @ @ @ @ @ @ @ @ @ @ @ @ @ @ @ @ @ X @ @ @ @ @ O @ @ @ @ @ @ @ @ @ @ @ O @ @ @ + # y p ,.t.X.] D i 6 ",
"- = & & & & # $ # O O @ @ @ @ @ @ @ @ @ @ @ @ @ @ @ @ @ @ @ @ @ @ @ @ @ . @ @ @ @ @ X @ @ @ @ @ @ @ @ @ O O # # * * * & $ $ . ",
"> - * & & & $ $ # O + @ @ @ @ @ @ @ @ @ @ @ X @ @ @ @ @ @ @ @ @ @ @ @ @ @ @ @ @ @ @ O X @ @ @ @ @ @ @ @ # @ $ $ - - & & $ $ # ",
"t.r.} ] ] ] A p ; O X @ @ @ @ @ @ @ @ @ @ @ @ @ @ @ @ @ @ @ @ @ @ @ @ @ @ @ @ @ @ @ @ @ @ @ @ @ @ @ @ @ @ # y f ,.y.X.] D p 5 ",
"j.s.+.o.O.o.K l , O X @ @ @ @ @ @ @ @ @ @ @ @ @ @ @ @ @ @ @ @ @ @ @ @ @ @ @ @ @ @ @ @ @ @ @ @ @ @ @ @ @ @ # p c 8.h.<.o.Y l 6 ",
"j.s.+.| o.| L f , O X @ @ @ @ @ @ @ @ @ @ @ @ @ @ @ @ @ @ @ @ @ @ @ @ @ @ @ @ @ @ @ @ @ @ @ O X @ @ @ @ @ # p c 8.h.<.| Y g 6 ",
"j.s.+.| o.o.K l , O X @ @ @ @ @ @ @ @ @ @ @ @ @ @ @ @ @ @ @ @ @ @ @ @ @ @ @ @ @ @ @ @ @ @ @ X O @ @ @ @ @ # p c 8.j.<.| Y l 6 ",
"f.s.;.| o.o.K g , O # O + . @ # X @ @ @ @ @ X @ # @ @ @ # X # @ # . @ # . @ # . @ # X # X # + # @ # O # @ # p c 8.h.<.| Y l 6 ",
"f.s.+.| o.o.J f ; . O O O . @ X o o o o o o o o X X X @ X X X X X X X X X X X X X X X X X X X X # @ O O # o i c 8.k.<.| Y l 2 ",
"n n 0 8 8 8 , ; $ O # . , y y y y y y y y y y y y y y r y y y y y y y y y y y y y y y y y r y y y 9 # @ @ @ * ; t b q 8 < ; $ ",
"        O O . . + O O . 5 g c c c x x x x x c c g c c l c l x g c l c x x c g c x c g g l c x c c p $ @ @ O . +         . . + ",
"*.*.R P P P s 9 % . , 7 A _ ! ) ! ) ) W ) W ) ) ) ! ) ) ! ! ) ! ! ! ) ! ) ) ) ) W ) ) ) ! ! ! ! ) T u 6 $ @ 6 r / -.Q P h 9 ; ",
"j.d.@.O.O.O.L x , O 6 g T O.o.o.o.o.o.o.o.o.o.o.o.o.| o.o.o.o.o.o.o.o.| o.o.| o.o.| o.o.o.o.o.o.o.{ c f % o p c 0.k.<.o.Y l 6 ",
"g.s.+.o.o.| J g , O G >.1.e.7.7.7.7.e.6.e.e.7.7.e.6.6.e.7.7.e.6.e.6.7.7.7.7.6.e.7.7.7.e.e.6.7.7.e.6.>.=., . p c 8.j.<.| Y g 6 ",
"g.a.+.o.o.| L g ,   &.k.j.h.j.j.j.j.j.j.j.f.j.j.j.j.j.j.j.j.j.j.j.j.j.j.j.j.j.j.j.j.h.j.j.j.j.j.j.h.l.p.4 o p c 8.j.<.o.Y g 6 "
};
