/* XPM */
static char *result[] = {
/* columns rows colors chars-per-pixel */
"64 64 211 2 ",
"   c #020101",
".  c #060907",
"X  c #0D0C0C",
"o  c #080908",
"O  c #14090C",
"+  c #1C0613",
"@  c #1E0815",
"#  c #1F0E19",
"$  c #0D1611",
"%  c #0D1813",
"&  c #141615",
"*  c #27020A",
"=  c #2B050E",
"-  c #210A16",
";  c #230D19",
":  c #280F1B",
">  c #26121E",
",  c #2C131D",
"<  c #261A17",
"1  c #30161F",
"2  c #14221C",
"3  c #1D1921",
"4  c #251C25",
"5  c #291D26",
"6  c #2D1E29",
"7  c #361923",
"8  c #3C1F26",
"9  c #311A25",
"0  c #152A22",
"q  c #192822",
"w  c #1D372D",
"e  c #1D3D32",
"r  c #2D2129",
"t  c #2A2729",
"y  c #33232C",
"u  c #3B252A",
"i  c #3B2632",
"p  c #3B2D32",
"a  c #342B33",
"s  c #343335",
"d  c #2C3332",
"f  c #45262B",
"g  c #4A2A2E",
"h  c #47292D",
"j  c #442937",
"k  c #4D2C30",
"l  c #482A38",
"z  c #522D32",
"x  c #552E3A",
"c  c #45373B",
"v  c #563234",
"b  c #583436",
"n  c #5B393B",
"m  c #563A3A",
"M  c #643E3B",
"N  c #68323C",
"B  c #74353E",
"V  c #76383F",
"C  c #662F3A",
"Z  c #224639",
"A  c #23483A",
"S  c #543341",
"D  c #5A3445",
"F  c #5D3F40",
"G  c #4B3D44",
"H  c #64394A",
"J  c #663A4A",
"K  c #793A42",
"L  c #6B3E50",
"P  c #713F52",
"I  c #2D5B4A",
"U  c #2A5343",
"Y  c #314E42",
"T  c #2E614F",
"R  c #316351",
"E  c #376C5A",
"W  c #38715D",
"Q  c #30604F",
"!  c #3B7B65",
"~  c #3D7F68",
"^  c #367A63",
"/  c #594646",
"(  c #535151",
")  c #634245",
"_  c #68484B",
"`  c #7E4146",
"'  c #68524E",
"]  c #7A534A",
"[  c #754255",
"{  c #794357",
"}  c #7D465A",
"|  c #7F4D50",
" . c #63555E",
".. c #6A5957",
"X. c #755B56",
"o. c #694151",
"O. c #47715E",
"+. c #52665A",
"@. c #7D685F",
"#. c #685A61",
"$. c #7C4F60",
"%. c #4B7763",
"&. c #567766",
"*. c #4D6F60",
"=. c #73666D",
"-. c #736462",
";. c #757774",
":. c #8C0C22",
">. c #C92A3E",
",. c #882942",
"<. c #A63752",
"1. c #82454A",
"2. c #81475B",
"3. c #84485E",
"4. c #815B52",
"5. c #995F5D",
"6. c #AE4D4F",
"7. c #8A655A",
"8. c #8B4C62",
"9. c #874B60",
"0. c #924E66",
"q. c #8B5565",
"w. c #895667",
"e. c #925167",
"r. c #94546A",
"t. c #955A6D",
"y. c #98596E",
"u. c #965C70",
"i. c #995D71",
"p. c #8D7568",
"a. c #947B6C",
"s. c #9A7567",
"d. c #867977",
"f. c #937C7A",
"g. c #8E686B",
"h. c #A36B65",
"j. c #A36671",
"k. c #AC726B",
"l. c #D45A5D",
"z. c #DC756F",
"x. c #3C8169",
"c. c #468A72",
"v. c #588974",
"b. c #47977B",
"n. c #588B75",
"m. c #678773",
"M. c #A88878",
"N. c #B88879",
"B. c #B2907D",
"V. c #988F7A",
"C. c #4D9F82",
"Z. c #709085",
"A. c #4EA285",
"S. c #4FA789",
"D. c #51AA8C",
"F. c #56A88B",
"G. c #5DAC91",
"H. c #54B594",
"J. c #55B997",
"K. c #69B199",
"L. c #57C29E",
"P. c #58C29E",
"I. c #59C5A1",
"U. c #63C4A3",
"Y. c #6EC6A5",
"T. c #74C7A3",
"R. c #73CBAD",
"E. c #888886",
"W. c #8F938E",
"Q. c #969390",
"!. c #B89487",
"~. c #B09FA0",
"^. c #A3A5A2",
"/. c #ADAEAA",
"(. c #B2B5B1",
"). c #CB9A87",
"_. c #C8A68F",
"`. c #D1A18C",
"'. c #D5AF96",
"]. c #D8B59A",
"[. c #D9B499",
"{. c #C6A490",
"}. c #E3B99D",
"|. c #F1B79E",
" X c #D1BCB2",
".X c #E5BEA0",
"XX c #F2BEA2",
"oX c #98C8AF",
"OX c #EFC5A6",
"+X c #E5CBA9",
"@X c #F6CEAC",
"#X c #F8CFAD",
"$X c #F3C3A5",
"%X c #F7D0AD",
"&X c #F9D1AE",
"*X c #EBD2B1",
"=X c #F9D4B5",
"-X c #D4CFAC",
";X c #9CDAC6",
":X c #C7C8C6",
">X c #DBD3D3",
",X c #DADBDA",
"<X c #E1D6D9",
"1X c #F4DCC7",
"2X c #C3E5D3",
"3X c #EEEEEC",
"4X c #E1E1E2",
"5X c #EFF0EE",
"6X c #F1F1EE",
"7X c #F9F8F8",
"8X c None",
/* pixels */
"8X8X8X8X8X8X8X8X8X8X8X8X8X8X8X8X8X8X8X8X8X8X8Xu.8X8X8X8X8X8X8X8X8X8X8X8X8X8X8X8X8X8X8X8X8X8X8X8X8X8X8X8X8X8X8X8X8X8X8X8X8X8X8X8X",
"8X8X8X8X8X8X8X8X8X8X8X8X8X8X8X8X8X8X8X8X8X8X8Xe.8X8X8X8X8X8X8X8X8X8X8X8X8X8X8X8X8X8X8X8X8X8X8X8X8X8X8X8X8X8X8X8X8X8X8X8X8X8X8X8X",
"8X8X8X8X8X8X8X8X8X8X8X8X8X8X8X8X8X8X8X8X8Xr.r.e.r.r.r.r.e.r.r.r.r.r.e.u.8X8X8X8X8X8X8X8X8X8X8X8X8X8X8X8X8X8X8X8X8X8X8X8X8X8X8X8X",
"8X8X8X8X8X8X8X8X8X8X8X8X8X8X8X8X8X8X8X8X8Xe.3.P P P [ } 0.{ [ L [ [ 9.r.8X8X8X8X8X8X8X8X8X8X8X8X8X8X8X8X8X8X8X8X8X8X8X8X8X8X8X8X",
"8X8X8X8X8X8X8X8X8X8X8X8X8X8X8X8X8X8X8Xt.e.e.J 4 4 4 5 D 0.j 4 5 5 6 [ e.e.e.r.0.r.8X8X8X8X8X8X8X8X8X8X8X8X8X8X8X8X8X8X8X8X8X8X8X",
"8X8X8X8X8X8X8X8X8X8X8X8X8X8X8X8X8X8Xu.r.3.S j 4 4 y H D S y 4 4 j J 9.9.S S S 3.r.u.t.t.8X8X8X8X8X8X8X8X8X8X8X8X8X8X8X8X8X8X8X8X",
"8X8X8X8X8X8X8X8X8X8X8X8X8X8X8X8X8X8X3.0.} 6 4 4 r j 2.D 3 5 5 6 D 0.8.P 5 4 5 P 8.e.e.r.8X8X8X8X8X8X8X8X8X8X8X8X8X8X8X8X8X8X8X8X",
"8X8X8X8X8X8X8X8X8X8X8X8X8X8X8X8Xu.L u { } y 4 5 J [ i r 4 4 y } 8.e.x y 4 4 4 y l 8.i.8X8X8X8X8X8X8X8X8X8X8X8X8X8X8X8X8X8X8X8X8X",
"8X8X8X8X8X8X8X8X8X8X8X8X8X8X8X8Xr.H 5 [ } 6 4 5 { 2.r 4 4 4 i 8.3.L i 4 4 4 4 4 i 8.y.8X8X8X8X8X8X8X8X8X8X8X8X8X8X8X8X8X8X8X8X8X",
"8X8X8X8X8X8X8X8X8X8X8X8X8X8X8X8Xe.H 5 [ } 6 4 6 [ 2.6 4 4 5 i 8.H 4 4 4 4 4 4 4 i 9.0.e.8X8X8X8X8X8X8X8X8X8X8X8X8X8X8X8X8X8X8X8X",
"8X8X8X8X8X8X8X8X8X8X8X8X8X8X8Xw.S i 5 j l 4 4 4 j l 4 4 4 4 r l i 4 4 4 4 l J L H x P e.u.8X8X8X8X8X8X8X8X8X8X8X8X8X8X8X8X8X8X8X",
"8X8X8X8X8X8X8X8X8X8X8X8X8X8Xt.} r 4 4 t p p p p p p p u 6 6 r p y 6 4 4 5 S 9.8.[ 5 S 9.0.r.8X8X8X8X8X8X8X8X8X8X8X8X8X8X8X8X8X8X",
"8X8X8X8X8X8X8X8X8X8X8X8X8X8Xi.} 6 4 4 M.].[.[.[.].].].k.C C 1.[.k.H 8 4 4 6 y y y 4 6 i { i.8X8X8X8X8X8X8X8X8X8X8X8X8X8X8X8X8X8X",
"8X8X8X8X8X8X8X8X8X8X8X8X8X8Xi.} 6 c X.'.&X&X&X%X%X%X=X_.h.1.1.).h.B z y 4 4 4 4 4 4 4 6 [ y.8X8X8X8X8X8X8X8X8X8X8X8X8X8X8X8X8X8X",
"8X8X8X8X8X8X8X8X8X8X8X8X8X8Xt.} 6 @.@X@X&X&X#X@X@X#X%X@X@X5.B V B B B C 5 5 4 4 4 4 5 5 [ y.8X8X8X8X8X8X8X8X8X8X8X8X8X8X8X8X8X8X",
"8X8X8X8X8X8X8X8X8X8X8X8X8X8Xy.r.M._.#X%X%X%X%X@X%X@X&X`.h.1.B V B B B B x i 4 4 4 4 4 5 { y.8X8X8X8X8X8X8X8X8X8X8X8X8X8X8X8X8X8X",
"8X8X8X8X8X8X8X8X8X8X8X8X8X8Xt.j.OX=X@X@X#X@X#X@X@X@X&XN.B ` ` V K 1.1.1.K z 4 4 6 6 6 y { i.8X8X8X8X8X8X8X8X8X8X8X8X8X8X8X8X8X8X",
"8X8X8X8X8X8X8X8X8X8X8X8X8X8Xy.j.OX#X#X#X@X%X@X%X@X@X&XN.B ).`.V k.}.}.).K z 4 4 y } 3.3.0.r.r.8X8X8X8X8X8X8X8X8X8X8X8X8X8X8X8X8X",
"8X8X8X8X8X8X8X8X8X8X8X8X8X8Xr.j.OX#X#X#X%X@X@X%X@X@X@X`.5.}.}.h.).%X&X[.,.z 4 4 y P P L L P e.8X8X8X8X8X8X8X8X8X8X8X8X8X8X8X8X8X",
"8X8X8X8X8X8X8X8X8X8X8X8X8Xr.e.j.OX&X#X#X@X@X%X@X@X@X@X@X@X@X@X@X@X@X%X[.` z 4 4 4 5 5 5 4 j 8.8X8X8X8X8X8X8X8X8X8X8X8X8X8X8X8X8X",
"8X8X8X8X8X8X8X8X8X8X8X8X8X8X8X!.@X@XOXs.] ] M.#X@X@X@X@X@Xs.] ] B.#X#XOX).X.5 4 5 4 4 4 4 i 8.8X8X8X8X8X8X8X8X8X8X8X8X8X8X8X8X8X",
"8X8X8X8X8X8X8X8X8X8X8X8X8X8X8X8X%X@X@XM * * 4.#X@X&X&X&X$XM * * 7.#X@X#X&Xp.4 4 5 p y 4 4 i $.t.8X8X8X8X8X8X8X8X8X8X8X8X8X8X8X8X",
"8X8X8X8X8X8X8X8X8X8X8X8X8X8X8X8X%X#X@XM = = 4.#X@X@X@X&XOXM = = 7.&X@X@X&XV.4 # c '.7.4 5 6 y F t.8X8X8X8X8X8X8X8X8X8X8X8X8X8X8X",
"8X8X8X8X8X8X8X8X8X8X8X8X8X8X8X8X%X#XOXM = = 4.#X@X@X&X&X@XM = = 7.%X@X@X&Xa.4 / p.*Xa.3 4 4 4 D i.8X8X8X8X8X8X8X8X8X8X8X8X8X8X8X",
"8X8X8X8X8X8X8X8X8X8X8X8X8X8X8X8X#X%X$XM = = 4.&X&X%X%X#X$XM = = 7.#X@X@X&Xa.t _.=X&Xp.4 4 4 5 8X8X8X8X8X8X8X8X8X8X8X8X8X8X8X8X8X",
"8X8X8X8X8X8X8X8X8X8X8X8X8X8X8X8X#X@XOX6.:.:.6.=X&X%X#X%X$X6.:.:.l.&X%X%X&X'.B..X&X&Xa.4 S o.8X8X8X8X8X8X8X8X8X8X8X8X8X8X8X8X8X8X",
"8X8X8X8X8X8X8X8X8X8X8X8X8X8X8X8X#X@X@Xl.>.>.z.#X#X%X#X#X@Xl.>.>.z.%X%X%X%X%X&X.X].}.7.5 { y.8X8X8X8X8X8X8X8X8X8X8X8X8X8X8X8X8X8X",
"8X8X8X8X8X8X8X8X8X8X8X8X8X8X8X8X#X@X@XXX|.|.$X@X@X@X#X@X@XXX|.|.OX&X%X%X@X%X@X' s p a 5 { y.8X8X8X8X8X8X8X8X8X8X8X8X8X8X8X8X8X8X",
"8X8X8X8X8X8X8X8X8X8X8X8X8X8X8X8X=X=X&X%X%X%X#X#X%X@X@X@X@X%X&X&X%X@X@X@X&X[.M.M l a a a $.i.8X8X8X8X8X8X8X8X8X8X8X8X8X8X8X8X8X8X",
"8X8X8X8X8X8X8X8X8X8X8X8X8X8X8X8X8X8X@X@X#X&X@X#X@X#X%X@X@X@X@X&X%X@X%X@X&Xa.r ,.<.8X8X8X8X8X8X8X8X8X8X8X8X8X8X8X8X8X8X8X8X8X8X8X",
"8X8X8X8X8X8X8X8X8X8X8X8X8X8X8X8X8X8X8X8X8X%X#X=X%X@X@X@X@X@X@X&X%X@Xa.X...G 5 8X8X8X8X8X8X8X8X8X8X8X8X8X8X8X8X8X8X8X8X8X8X8X8X8X",
"8X8X8X8X8X8X8X8X8X8X8X8X8X8X8X8X8X8X8X8X8X=X*X+X@X@X%X@X@X*X+X+X.X'.G 3 t s c 8X8X8X8X8X8X8X8X8X8X8X8X8X8X8X8X8X8X8X8X8X8X8X8X8X",
"8X8X8X8X8X8X8X8X8X8X8X8X8X8X8X8X8X8X8XW.^.7X2XT.-X=X@X%X@XoXY.T.O.< o 2 A.oX4X^.Q.8X8X8X8X8X8X8X8X8X8X8X8X8X8X8X8X8X8X8X8X8X8X8X",
"8X8X8X8X8X8X8X8X8X8X8X8X8X8X8X8X8X8X8X X(.^.Z.! V.{.1X.XB.v.^ ^ T A A U ! Z.^.Q.8X8X8X8X8X8X8X8X8X8X8X8X8X8X8X8X8X8X8X8X8X8X8X8X",
"8X8X8X8X8X8X8X8X8X8X8X8X8X8X8X8X8X8X8X7X:X&     u X.6X~.z O     T L.L.b.o   o 8X8X8X8X8X8X8X8X8X8X8X8X8X8X8X8X8X8X8X8X8X8X8X8X8X",
"8X8X8X8X8X8X8X8X8X8X8X8X8X8X8X8X8X8X8X;XK.X O u g _ /.a.b Q.E.. I L.L.b..   o b.R.8X8X8X8X8X8X8X8X8X8X8X8X8X8X8X8X8X8X8X8X8X8X8X",
"8X8X8X8X8X8X8X8X8X8X8X8X8X8X8X8X8X8X8XG.c.2 t v b F d...n  X:Xq I D.D.c.2 % 2 x.G.8X8X8X8X8X8X8X8X8X8X8X8X8X8X8X8X8X8X8X8X8X8X8X",
"8X8X8X8X8X8X8X8X8X8X8X8X8X8X8X8X8X8X8Xq w A.&.v b b n n v )  .S.E % % w A.D.A.e & 8X8X8X8X8X8X8X8X8X8X8X8X8X8X8X8X8X8X8X8X8X8X8X",
"8X8X8X8X8X8X8X8X8X8X8X8X8X8X8X8X8X8X8XX % v.+.b b n ' ) v v / n.A     2 J.I.J.0   8X8X8X8X8X8X8X8X8X8X8X8X8X8X8X8X8X8X8X8X8X8X8X",
"8X8X8X8X8X8X8X8X8X8X8X8X8X8X8X8X8X8X.   O v b b v / E.-.v v v b 7     0 H.L.J.0   o 8X8X8X8X8X8X8X8X8X8X8X8X8X8X8X8X8X8X8X8X8X8X",
"8X8X8X8X8X8X8X8X8X8X8X8X8X8X8X8X8X8X~ ~ O.m v v b n ' ) v v b v ( x.x.W A Z Z E x.x.8X8X8X8X8X8X8X8X8X8X8X8X8X8X8X8X8X8X8X8X8X8X",
"8X8X8X8X8X8X8X8X8X8X8X8X8X8X8X8X8XK.I.I.F.m v b b b F n v v v v &.L.L.b..   . b.I.L.K.8X8X8X8X8X8X8X8X8X8X8X8X8X8X8X8X8X8X8X8X8X",
"8X8X8X8X8X8X8X8X8X8X8X8X8X8X8X8X  I I.I.F.m z v z F d...z v v k &.L.I.b..   o b.I.I.E   8X8X8X8X8X8X8X8X8X8X8X8X8X8X8X8X8X8X8X8X",
"8X8X8X8X8X8X8X8X8X8X8X8X8X8X8X8XA Q ~ ! %.d.f.f.-.-./.E...g.f.f.m.x.x.W A A A W x.! T A b.8X8X8X8X8X8X8X8X8X8X8X8X8X8X8X8X8X8X8X",
"8X8X8X8X8X8X8X8X8X8X8X8X8X8XU.P.L.E     s 4X7X7X^.Q.7X:XW.<X7X7XE.    0 H.J.H.q     R L.L.I.8X8X8X8X8X8X8X8X8X8X8X8X8X8X8X8X8X8X",
"8X8X8X8X8X8X8X8X8X8X8X8X8X8XY.P.I.E     &  .#.#.G c  .( c ( #. .j O   0 J.I.J.0     T I.L.U.8X8X8X8X8X8X8X8X8X8X8X8X8X8X8X8X8X8X",
"8X8X8X8X8X8X8X8X8X8X8X8X8X8XG.S.D.E $ X o + + + + + + + + + - - - + % w A.S.A.e $ % R D.S.G.8X8X8X8X8X8X8X8X8X8X8X8X8X8X8X8X8X8X",
"8X8X8X8X8X8X8X8X8X8X8X8X8X8X2 $ $ I S.( f @ + + + @ + @ @ f v z 7 > c.c.2 $ % c.D.D.R $ $ 2 8X8X8X8X8X8X8X8X8X8X8X8X8X8X8X8X8X8X",
"8X8X8X8X8X8X8X8X8X8X8X8X8X8XX     e v./ k ; : 7 - @ @ @ - f b b u ; *.O..   o b.I.I.T     X 8X8X8X8X8X8X8X8X8X8X8X8X8X8X8X8X8X8X",
"8X8X8X8X8X8X8X8X8X8X8X8X8X8X&     < b b k ; 7 v , @ @ @ - h b v 8 - g h .   X b.L.L.T     X 8X8X8X8X8X8X8X8X8X8X8X8X8X8X8X8X8X8X",
"8X8X8X8X8X8X8X8X8X8X8X8X8X8Xc.~ x.+.b b g - 7 v g 8 - @ - f b b 8 - g z u A x.A e e R x.8X8X8X8X8X8X8X8X8X8X8X8X8X8X8X8X8X8X8X8X",
"8X8X8X8X8X8X8X8X8X8X8X8X8X8XY.U.T.m.v b g ; 7 b b k - @ - h b b 8 - g b C &.S.d < < *.T.8X8X8X8X8X8X8X8X8X8X8X8X8X8X8X8X8X8X8X8X",
"8X8X8X8X8X8X8X8X8X8X8X8X8X8X8X8X*XM.m b g - 7 b b k - # - f b b 8 + h b b f r !.].}.+X+X8X8X8X8X8X8X8X8X8X8X8X8X8X8X8X8X8X8X8X8X",
"8X8X8X8X8X8X8X8X8X8X8X8X8X8X8X8X=Xs.u z k - 7 b b k - @ - 7 f v 8 - g b b u ; s.B.M.{.=X8X8X8X8X8X8X8X8X8X8X8X8X8X8X8X8X8X8X8X8X",
"8X8X8X8X8X8X8X8X8X8X8X8X8X8X8X8X8X8X- g k - 7 b b k - @ @ @ , z u + h b b 7 @ g k - 8X8X8X8X8X8X8X8X8X8X8X8X8X8X8X8X8X8X8X8X8X8X",
"8X8X8X8X8X8X8X8X8X8X8X8X8X8X8X8X8X8X@ : , - ; , 9 : @ @ @ 8X8X9 = - , 1 1 > @ , , # 8X8X8X8X8X8X8X8X8X8X8X8X8X8X8X8X8X8X8X8X8X8X",
"8X8X8X8X8X8X8X8X8X8X8X8X8X8X8X8X8X8X> - - - + + @ @ - : > 8X8X4 > + + + + + @ + # : 8X8X8X8X8X8X8X8X8X8X8X8X8X8X8X8X8X8X8X8X8X8X",
"8X8X8X8X8X8X8X8X8X8X8X8X8X8X8X8X8X8X8X4 + + + + + + @ 6 8X8X8X8Xu + + + + @ @ @ > 8X8X8X8X8X8X8X8X8X8X8X8X8X8X8X8X8X8X8X8X8X8X8X",
"8X8X8X8X8X8X8X8X8X8X8X8X8X8X8X8X8X8X8X=.-.=.=.=.=. .6 8X8X8X8X8X8Xu #.=.#.c c i / 8X8X8X8X8X8X8X8X8X8X8X8X8X8X8X8X8X8X8X8X8X8X8X",
"8X8X8X8X8X8X8X8X8X8X8X8X8X8X8X8X8X8X8X6X3X3X3X3X3X3X8X8X8X8X8X8X8X8X5X5X6X5X5X5X6X8X8X8X8X8X8X8X8X8X8X8X8X8X8X8X8X8X8X8X8X8X8X8X",
"8X8X8X8X8X8X8X8X8X8X8X8X8X8X8X8X8X8X8X6X3X6X6X6X8X8X8X8X8X8X8X8X8X8X6X5X5X5X5X8X8X8X8X8X8X8X8X8X8X8X8X8X8X8X8X8X8X8X8X8X8X8X8X8X",
"8X8X8X8X8X8X8X8X8X8X8X8X8X8X8X8X8X8X8X<X<X>X>X>X8X8X8X8X8X8X8X8X8X8X>X<X>X>X>X8X8X8X8X8X8X8X8X8X8X8X8X8X8X8X8X8X8X8X8X8X8X8X8X8X",
"8X8X8X8X8X8X8X8X8X8X8X8X8X8X8X8X8X8Xn q.t._ ) _ 8X8X8X8X8X8X8X8X8Xn w.q._ _ _ 8X8X8X8X8X8X8X8X8X8X8X8X8X8X8X8X8X8X8X8X8X8X8X8X8X",
"8X8X8X8X8X8X8X8X8X8X8X8X8X8X8X8X8X8X/ q.q.J / ) 8X8X8X8X8X8X8X8X8X_ 5.q.J / ) 8X8X8X8X8X8X8X8X8X8X8X8X8X8X8X8X8X8X8X8X8X8X8X8X8X"
};
