/* XPM */
static char *result[] = {
/* columns rows colors chars-per-pixel */
"58 64 91 1 ",
"  c #1C1D1D",
". c #291F1D",
"X c #1C251F",
"o c #29221E",
"O c #1D2520",
"+ c #1E2921",
"@ c #242424",
"# c #292526",
"$ c #222B24",
"% c #2B2B26",
"& c #342624",
"* c #332926",
"= c #382827",
"- c #362B29",
"; c #3B2D2C",
": c #2A362E",
"> c #2A382F",
", c #32342F",
"< c #3D312E",
"1 c #293730",
"2 c #2C3C32",
"3 c #3B3232",
"4 c #323D34",
"5 c #3B3A35",
"6 c #333E38",
"7 c #41312E",
"8 c #443432",
"9 c #433A34",
"0 c #433B3B",
"q c #2F4035",
"w c #314236",
"e c #334439",
"r c #38433B",
"t c #42413F",
"y c #50413F",
"u c #4A4746",
"i c #4B4847",
"p c #4C4A48",
"a c #554642",
"s c #574945",
"d c #594846",
"f c #554A48",
"g c #594D4B",
"h c #445042",
"j c #5C514F",
"k c #5F4F52",
"l c #5E5353",
"z c #635455",
"x c #635B5B",
"c c #695C5A",
"v c #715E5E",
"b c #58615A",
"n c #6F615E",
"m c #6C5E61",
"M c #705F61",
"N c #6B6363",
"B c #6F6A68",
"V c #706766",
"C c #756B6C",
"Z c #776E70",
"A c #7E7475",
"S c #7E7A78",
"D c #807477",
"F c #827479",
"G c #9E8C79",
"H c #A1917D",
"J c #8C8583",
"K c #8E8588",
"L c #8F8B89",
"P c #928B89",
"I c #95908D",
"U c #979390",
"Y c #9C9793",
"T c #9C9997",
"R c #9E9A99",
"E c #B29F87",
"W c #B59E88",
"Q c #B9A28C",
"! c #A5A19F",
"~ c #A8A09F",
"^ c #A5A2A0",
"/ c #AFA7A6",
"( c #B1ABA9",
") c #B9B3B3",
"_ c #C4BEBD",
"` c #C5C1BF",
"' c #C6C1C0",
"] c #D3CFD0",
"[ c #E6E1E3",
"{ c #E8E3E5",
"} c None",
/* pixels */
"}}}}}}}}}}}}}}}}}}}}}}}}}}}}}}}}}}}}}}}}}}}}}}}}}}}}}}}}}}",
"}}}}}}}}}}}}}}}}}}}}}}}}}}}}}}}}}}}}}}}}}}}}}}}}}}}}}}}}}}",
"}}}}}}}}}}}}}}}}}}}}}}}}}}}}}}}}}}}}}}}}}}}}}}}}}}}}}}}}}}",
"}}}}}}}}}}}}}}}}}}}}}}}}}}}}}}}}}}}}}}}}}}}}}}}}}}}}}}}}}}",
"}}}}}}}}}}}}}}}}}}}}}}}}}}}}}}}}}}}}}}}}}}}}}}}}}}}}}}}}}}",
"}}}}}}}}}}}}}}}}}}}}}}}}}}}}}}}}}}}}}}}}}}}}}}}}}}}}}}}}}}",
"}}}}}}}}}}}}}}}}}}}}}}}}}}}}}}}}}}}}}}}}}}}}}}}}}}}}}}}}}}",
"}}}}}}}}}}}}}}}}}}}}}}}}}}}}}}}}}}}}}}}}}}}}}}}}}}}}}}}}}}",
"}}}}}}}}}}}}}}}}}}}}}}}}}}}}}}}}}}}}}}}}}}}}}}}}}}}}}}}}}}",
"}}}}}}}}}}}}}}}}}}}}}}}}}}}rr}}}}}}}}}}}}}}}}}}}}}}}}}}}}}",
"}}}}}}}}}}}}}}}}}}}}}}}}}reeer}}}}}}}}}}}}}}}}}}}}}}}}}}}}",
"}}}}}}}}}}}}}}}}}}}}}}}}}ee222r}}}}}}}}}}}}}}}}}}}}}}}}}}}",
"}}}}}}}}}}}}}}}}}}}}}}}}re22212r}}}}}}}}}}}}}}}}}}}}}}}}}}",
"}}}}}}}}}}}}}}}}}}}}}}}}r2222222}}}}}}}}}}}}}}}}}}}}}}}}}}",
"}}}}}}}}}}}}}}}}}}}}}}}r2212ww222}}}}}}}}}}}}}}}}}}}}}}}}}",
"}}}}}}}}}}}}}}}}}}}}}}}e226+++222}}}}}}}}}}}}}}}}}}}}}}}}}",
"}}}}}}}}}}}}}}}}}}}}}}}eq2$XOO$q2}}}}}}}}}}}}}}}}}}}}}}}}}",
"}}}}}}}}}}}}}}}}}}}}}}}eq$OOOO+q4}}}}}}}}}}}}}}}}}}}}}}}}}",
"}}}}}}}}}}}}}}}}}}}}}}}ew+XXXX+q4}}}}}}}}}}}}}}}}}}}}}}}}}",
"}}}}}}}}}}}}}}}}}}}}}}}}42++++2q}}}}}}}}}}}}}}}}}}}}}}}}}}",
"}}}}}}}}}}}}}}}}}}}}}}}}}qq1>>>q}}}}}}}}}}}}}}}}}}}}}}}}}}",
"}}}}}}}}}}}}}}}}}}}}}}}}qebe>>qq2}}}}}}}}}}}}}}}}}}}}}}}}}",
"}}}}}}}}}}}}}}}}}}}}}}}}eq>2qqqqe}}}}}}}}}}}}}}}}}}}}}}}}}",
"}}}}}}}}}}}}}}}}}}}}}}}}w>+>qeeer}}}}}}}}}}}}}}}}}}}}}}}}}",
"}}}}}}}}}}}}}}}}}}}}}}}ee>$>>qeee6}}}}}}}}}}}}}}}}}}}}}}}}",
"}}}}}}}}}}}}}}}}}}}}}}}e2>$>qqeeee}}}}}}}}}}}}}}}}}}}}}}}}",
"}}}}}}}}}}}}}}}}}}}}}}ee22+1qqqeee}}}}}}}}}}}}}}}}}}}}}}}}",
"}}}}}}}}}}}}}}}}}}}}}}eeqq$1qqeeee}}}}}}}}}}}}}}}}}}}}}}}}",
"}}}}}}}}}}}}}}}}}}}}}}ree2+2qqqqeer}}}}}}}}}}}}}}}}}}}}}}}",
"}}}}}}}}}}}}}}}}}}}}}reee$>eeqqeeee}}}}}}}}}}}}}}}}}}}}}}}",
"}}}}}}}}}}}}}}}}}}}}}eeee$1eeeeeeer}}}}}}}}}}}}}}}}}}}}}}}",
"}}}}}}}}}}}}}}}}}}}}}eeeq$>eeeeeqeee}}}}}}}}}}}}}}}}}}}}}}",
"}}}}}}}}}}}}}}}}}}}}eeqqq+qweeeeqqee}}}}}}}}}}}}}}}}}}}}}}",
"}}}}}}}}}}}}}}}}}}}}eeqqq+>weeeeqeeee}}}}}}}}}}}}}}}}}}}}}",
"}}}}}}}}}}}}}}}}}}}}eeqqq+qqeeeeqqqeer}}}}}}}}}}}}}}}}}}}}",
"}}}}}}}}}}}}}}}}}}}eeeq>q++weeeq>qeeee}}}}}}}}}}}}}}}}}}}}",
"}}}}}}}}}}}}}}}}}}}eewqqq++qeeeeq>eeeee}}}}}}}}}}}}}}}}}}}",
"}}}}}}}}}}}}}}}}}} qe>>qq+X+weee2>>qeee}}}}}}}}}}}}}}}}}}}",
"}}}}}}}}}}}}}}}}} ,4$XoqoXX+4wqe2$X+4hee}}}}}}}}}}}}}}}}}}",
"}}}}}}}}}}}}}}}}}oGEr$$$*995000-$$$5QH%$}}}}}}}}}}}}}}}}}}",
"}}}}}}}}}}}}}}}}}#9Qczz38JLBLIG38zzvQ9@}}}}}}}}}}}}}}}}}}}",
"}}}}}}}}}}}}}}}}}x#}}CZNgzj0zxlfNAZ}}#x}}}}}}}}}}}}}}}}}}}",
"}}}}}}}}}}}}}}}}A}}}}0Vi!(IC~/YJuN0}}}}D}}}}}}}}}}}}}}}}}}",
"}}}}}}}}}}}}}}}}A}}}}3m9mCc0cncl5N3}}}}A}}}}}}}}}}}}}}}}}}",
"}}}}}}}}}}}}}}}A}}}}}3m5c)^S)`_TtN3}}}}}A}}}}}}}}}}}}}}}}}",
"}}}}}}}}}}}}}}}A}}}}}0N0M)^F)`_RuN0}}}}}A}}}}}}}}}}}}}}}}}",
"}}}}}}}}}}}}}}D}}}}}}ZAZ}dy<ydddBAC}}}}}}D}}}}}}}}}}}}}}}}",
"}}}}}}}}}}}}}}A}}}}}}}}}}7<&7888}}}}}}}}}D}}}}}}}}}}}}}}}}",
"}}}}}}}}}}}}}F}}}}}}}}}}}88#7888}}}}}}}}}}K}}}}}}}}}}}}}}}",
"}}}}}}}}}}}}[}}}}}}}}}}}}88.<878}}}}}}}}}}]}}}}}}}}}}}}}}}",
"}}}}}}}}}}}}[}}}}}}}}}}}}};#<8;}}}}}}}}}}}}{}}}}}}}}}}}}}}",
"}}}}}}}}}}}{}}}}}}}}}}}}}};o<7;}}}}}}}}}}}}{}}}}}}}}}}}}}}",
"}}}}}}}}}}}{}}}}}}}}}}}}}}-o-<;}}}}}}}}}}}}}{}}}}}}}}}}}}}",
"}}}}}}}}}}[}}}}}}}}}}}}}}};-o-;}}}}}}}}}}}}}{}}}}}}}}}}}}}",
"}}}}}}}}}}}}}}}}}}}}}}}}}};-o-;}}}}}}}}}}}}}}}}}}}}}}}}}}}",
"}}}}}}}}}}}}}}}}}}}}}}}}}};;o;;}}}}}}}}}}}}}}}}}}}}}}}}}}}",
"}}}}}}}}}}}}}}}}}}}}}}}}}}7-o-;}}}}}}}}}}}}}}}}}}}}}}}}}}}",
"}}}}}}}}}}}}}}}}}}}}}}}}}}}&o&=}}}}}}}}}}}}}}}}}}}}}}}}}}}",
"}}}}}}}}}}}}}}}}}}}}}}}}}}}&.&}}}}}}}}}}}}}}}}}}}}}}}}}}}}",
"}}}}}}}}}}}}}}}}}}}}}}}}}}}&.&}}}}}}}}}}}}}}}}}}}}}}}}}}}}",
"}}}}#######################&#&#####################}}}}}}}",
"}}}}}}}}}}}}}}}}}}}}}}}}}}}}}}}}}}}}}}}}}}}}}}}}}}}}}}}}}}",
"}}}}}}}}}}}}}}}}}}}}}}}}}}}}}}}}}}}}}}}}}}}}}}}}}}}}}}}}}}",
"}}}}}}}}}}}}}}}}}}}}}}}}}}}}}}}}}}}}}}}}}}}}}}}}}}}}}}}}}}"
};
