/* XPM */
static char *result[] = {
/* columns rows colors chars-per-pixel */
"64 64 209 2 ",
"   c #010101",
".  c #060806",
"X  c #070D0A",
"o  c #0B0B0A",
"O  c #0D0208",
"+  c #0A120E",
"@  c #1C0614",
"#  c #1F0916",
"$  c #160F13",
"%  c #0E1915",
"&  c #131F1A",
"*  c #161614",
"=  c #100809",
"-  c #28030C",
";  c #200A17",
":  c #240D19",
">  c #280F1B",
",  c #2B131D",
"<  c #26111D",
"1  c #351015",
"2  c #340F14",
"3  c #11221C",
"4  c #0F241C",
"5  c #251B25",
"6  c #2B1C26",
"7  c #2D1E29",
"8  c #271320",
"9  c #361A23",
"0  c #3C1E25",
"q  c #321F29",
"w  c #182A23",
"e  c #1E352C",
"r  c #2F212B",
"t  c #292828",
"y  c #33212C",
"u  c #3E222C",
"i  c #392529",
"p  c #3B2632",
"a  c #382934",
"s  c #283A35",
"d  c #3B3636",
"f  c #223028",
"g  c #401B1E",
"h  c #640719",
"j  c #421C20",
"k  c #701926",
"l  c #42232A",
"z  c #472A2D",
"x  c #4E2C2F",
"c  c #442B35",
"v  c #4E2C31",
"b  c #442D39",
"n  c #4B2D3B",
"m  c #442534",
"M  c #532E32",
"N  c #562F3B",
"B  c #433336",
"V  c #4F3434",
"C  c #563234",
"Z  c #593436",
"A  c #553C3C",
"S  c #5C3A3C",
"D  c #50303F",
"F  c #68373D",
"G  c #73343E",
"H  c #6F263C",
"J  c #254C3E",
"K  c #214337",
"L  c #5A413F",
"P  c #6C453F",
"I  c #483942",
"U  c #553241",
"Y  c #5C3546",
"T  c #5E3E40",
"R  c #62394A",
"E  c #6A3C4E",
"W  c #783A42",
"Q  c #6E3F51",
"!  c #713F52",
"~  c #274F41",
"^  c #2B5445",
"/  c #2D5B4A",
"(  c #245745",
")  c #325B4C",
"_  c #37564C",
"`  c #366E5A",
"'  c #326654",
"]  c #39725E",
"[  c #36705C",
"{  c #2F6250",
"}  c #397661",
"|  c #3B7B64",
" . c #4A4841",
".. c #5D4243",
"X. c #574644",
"o. c #515550",
"O. c #624545",
"+. c #684A48",
"@. c #7B4348",
"#. c #63514D",
"$. c #754254",
"%. c #7E4559",
"&. c #7B4657",
"*. c #6B5552",
"=. c #705055",
"-. c #57685B",
";. c #686B5B",
":. c #766159",
">. c #577C6C",
",. c #4A7A67",
"<. c #796666",
"1. c #79716E",
"2. c #6F7470",
"3. c #C7293D",
"4. c #AB3A56",
"5. c #CA3846",
"6. c #82464A",
"7. c #8A4E51",
"8. c #81475C",
"9. c #84495D",
"0. c #8D5354",
"q. c #925858",
"w. c #934849",
"e. c #8A6A5D",
"r. c #8B4B61",
"t. c #874B60",
"y. c #914F66",
"u. c #8B5466",
"i. c #925167",
"p. c #94546A",
"a. c #96596E",
"s. c #975D71",
"d. c #997667",
"f. c #937D7E",
"g. c #916F73",
"h. c #A7786C",
"j. c #AC6A62",
"k. c #D45F61",
"l. c #DD7B73",
"z. c #478B72",
"x. c #558D76",
"c. c #469479",
"v. c #4B977E",
"b. c #518771",
"n. c #9C8171",
"m. c #A68A78",
"M. c #B58275",
"N. c #B5927D",
"B. c #A7806D",
"V. c #C08D7E",
"C. c #4E9E83",
"Z. c #4BA284",
"A. c #52B292",
"S. c #57BC9A",
"D. c #59A084",
"F. c #6CBC9C",
"G. c #5AC39F",
"H. c #5AC4A1",
"J. c #5AC9A4",
"K. c #66C3A3",
"L. c #78C5A1",
"P. c #898885",
"I. c #8E938E",
"U. c #8F9794",
"Y. c #BE8884",
"T. c #B28F81",
"R. c #BA9A86",
"E. c #AA9498",
"W. c #9EA88C",
"Q. c #A1AA9B",
"!. c #ADAEAC",
"~. c #BAADAC",
"^. c #BBBBB8",
"/. c #C69E86",
"(. c #D49F89",
"). c #C8A48C",
"_. c #CDA694",
"`. c #D9AD94",
"'. c #DBB599",
"]. c #D3A48E",
"[. c #E5B69B",
"{. c #F1B89E",
"}. c #EBA792",
"|. c #CAB4BA",
" X c #C1A7AE",
".X c #E7BEA2",
"XX c #F2BFA2",
"oX c #90CDAC",
"OX c #B5CDAB",
"+X c #ABC6BF",
"@X c #C3C6B4",
"#X c #ECC3A4",
"$X c #EDCDAB",
"%X c #F6CEAC",
"&X c #F8CFAD",
"*X c #F2C5A6",
"=X c #F7D0AD",
"-X c #F9D1AE",
";X c #F6D1B2",
":X c #F9D3B3",
">X c #D6D4D3",
",X c #DDDBDA",
"<X c #D9D7D7",
"1X c #CDCECD",
"2X c #F1DECF",
"3X c #E2DFE0",
"4X c #F2F3F0",
"5X c #E7EEE9",
"6X c None",
/* pixels */
"6X6X6X6X6X6X6X6X6X6X6X6X6X6X6X6X6X6X6X6X6X6X6X6X6X6X6X6X6X6X6X6X6X6X6X6X6X6X6X6X6X6X6X6X6X6X6X6X6X6X6X6X6X6X6X6X6X6X6X6X6X6X6X6X",
"6X6X6X6X6X6X6X6X6X6X6X6X6X6X6X6X6X6X6X6X6X6X6X6X6X6X6X6X6X6X6X6X6X6X6X6X6X6X6X6X6X6X6X6X6X6X6X6X6X6X6X6X6X6X6X6X6X6X6X6X6X6X6X6X",
"6X6X6X6X6X6X6X6X6X6X6X6X6X6X6X6X6X6X6X6X6X6X6X6X6X6X6X6X6X6X6X6X6X6X6X6X6X6X6X6X6X6X6X6X6X6X6X6X6X6X6X6X6X6X6X6X6X6X6X6X6X6X6X6X",
"6X6X6X6X6X6X6X6X6X6X6X6X6X6X6X6X6X6X6X6X6X6X6X6X6X6X6X6X6X6X6X6X6X6X6X6X6X6X6X6X6X6X6X6X6X6X6X6X6X6X6X6X6X6X6X6X6X6X6X6X6X6X6X6X",
"6X6X6X6X6X6X6X6X6X6X6X6X6X6X6X6X6X6X6X6X6X6X6X6X6X6X6X6X6X6X6X6X6X6X6X6X6X6X6X6X6X6X6X6X6X6X6X6X6X6X6X6X6X6X6X6X6X6X6X6X6X6X6X6X",
"6X6X6X6X6X6X6X6X6X6X6X6X6X6X6X6X6X6X6Xa.6X6X6X6X6X6X6X6X6X6X6X6X6X6X6X6X6X6X6X6X6X6X6X6X6X6X6X6X6X6X6X6X6X6X6X6X6X6X6X6X6X6X6X6X",
"6X6X6X6X6X6X6X6X6X6X6X6X6X6X6X6X6X6Xs.p.a.6X6X6X6X6X6X6X6X6X6X6X6X6X6X6X6X6X6X6X6X6X6X6X6X6X6X6X6X6X6X6X6X6X6X6X6X6X6X6X6X6X6X6X",
"6X6X6X6X6X6X6X6X6X6X6X6X6X6X6X6X6X6Xy.8.%.8.t.i.r.%.8.%.r.p.6X6X6X6X6X6X6X6X6X6X6X6X6X6X6X6X6X6X6X6X6X6X6X6X6X6X6X6X6X6X6X6X6X6X",
"6X6X6X6X6X6X6X6X6X6X6X6X6X6X6X6Xa.y.9.p 7 q y %.R 7 q 7 Y y.y.y.i.p.6X6X6X6X6X6X6X6X6X6X6X6X6X6X6X6X6X6X6X6X6X6X6X6X6X6X6X6X6X6X",
"6X6X6X6X6X6X6X6X6X6X6X6X6X6X6Xs.p.$.n 7 5 p E U y 5 5 Y %.t.U b E i.p.p.6X6X6X6X6X6X6X6X6X6X6X6X6X6X6X6X6X6X6X6X6X6X6X6X6X6X6X6X",
"6X6X6X6X6X6X6X6X6X6X6X6X6X6X6XQ 9.E 5 5 p U E r 5 7 n t.8.Y 7 5 c E r.a.6X6X6X6X6X6X6X6X6X6X6X6X6X6X6X6X6X6X6X6X6X6X6X6X6X6X6X6X",
"6X6X6X6X6X6X6X6X6X6X6X6X6X6X%.y ! E 5 5 E $.6 5 5 m r.r.Y 5 5 5 5 y 9.6X6X6X6X6X6X6X6X6X6X6X6X6X6X6X6X6X6X6X6X6X6X6X6X6X6X6X6X6X",
"6X6X6X6X6X6X6X6X6X6X6X6X6X6X%.y ! E 5 5 Q $.6 5 5 p r.U 7 5 5 5 5 y %.p.a.6X6X6X6X6X6X6X6X6X6X6X6X6X6X6X6X6X6X6X6X6X6X6X6X6X6X6X",
"6X6X6X6X6X6X6X6X6X6X6X6X6X$.b r m p 5 5 p p 5 5 5 7 b 7 5 5 6 U E E U &.p.s.6X6X6X6X6X6X6X6X6X6X6X6X6X6X6X6X6X6X6X6X6X6X6X6X6X6X",
"6X6X6X6X6X6X6X6X6X6X6X6Xa.R 5 5 I #.#.#.#.X.#.c u b X.n q 5 5 Y ! Q 7 U &.p.6X6X6X6X6X6X6X6X6X6X6X6X6X6X6X6X6X6X6X6X6X6X6X6X6X6X",
"6X6X6X6X6X6X6X6X6X6X6X6Xa.Y 5 a R.%X%X%X%X;X.Xq.W q.'.q.M 7 5 5 6 6 5 5 b y.6X6X6X6X6X6X6X6X6X6X6X6X6X6X6X6X6X6X6X6X6X6X6X6X6X6X",
"6X6X6X6X6X6X6X6X6X6X6X6Xa.Y B ).#X=X%X&X&X&X%X{.h.W 7.W G Z 6 5 5 5 5 5 b r.6X6X6X6X6X6X6X6X6X6X6X6X6X6X6X6X6X6X6X6X6X6X6X6X6X6X",
"6X6X6X6X6X6X6X6X6X6X6X6Xp.s.m.$X=X%X=X%X%X=X*XN.q.G G G G G M q 5 5 5 5 b p.6X6X6X6X6X6X6X6X6X6X6X6X6X6X6X6X6X6X6X6X6X6X6X6X6X6X",
"6X6X6X6X6X6X6X6X6X6X6X6Xp.Y.-X=X%X=X%X%X%X=X*X7.6.7.G 7.q.0.W l 5 6 p p U i.6X6X6X6X6X6X6X6X6X6X6X6X6X6X6X6X6X6X6X6X6X6X6X6X6X6X",
"6X6X6X6X6X6X6X6X6X6X6X6Xp.Y.-X=X=X%X%X=X%X%X*X0.M.`.6.].*X`.6.l 5 q &.r.r.r.p.6X6X6X6X6X6X6X6X6X6X6X6X6X6X6X6X6X6X6X6X6X6X6X6X6X",
"6X6X6X6X6X6X6X6X6X6X6Xa.y.Y.&X%X-X-X=X%X=X%X%X`.{.*X'.$X=X[.W i 5 5 p b a n t.6X6X6X6X6X6X6X6X6X6X6X6X6X6X6X6X6X6X6X6X6X6X6X6X6X",
"6X6X6X6X6X6X6X6X6X6X6Xs.a._.&X%XN.d.B.XX=X%X-X-X).h.h.[.-X#XM.A 5 5 5 5 5 7 %.6X6X6X6X6X6X6X6X6X6X6X6X6X6X6X6X6X6X6X6X6X6X6X6X6X",
"6X6X6X6X6X6X6X6X6X6X6X6X6X6X%X%XP - g '.-X%X%X-Xe.- 1 /.-X%X%X*.5 5 B y 5 7 $.u.6X6X6X6X6X6X6X6X6X6X6X6X6X6X6X6X6X6X6X6X6X6X6X6X",
"6X6X6X6X6X6X6X6X6X6X6X6X6X6X;X*XP - j '.-X&X&X-Xe.- 1 /.-X%X%X#.< d _.:.5 5 6 R s.6X6X6X6X6X6X6X6X6X6X6X6X6X6X6X6X6X6X6X6X6X6X6X",
"6X6X6X6X6X6X6X6X6X6X6X6X6X6X%X%XP - j '.=X=X&X-Xe.- 1 V.=X=X%X#.X.R.*X:.5 5 5 I 6X6X6X6X6X6X6X6X6X6X6X6X6X6X6X6X6X6X6X6X6X6X6X6X",
"6X6X6X6X6X6X6X6X6X6X6X6X6X6X-X%Xw.h k [.=X%X&X=Xj.h k `.=X=X%Xn.m.:X-X:.r D a 6X6X6X6X6X6X6X6X6X6X6X6X6X6X6X6X6X6X6X6X6X6X6X6X6X",
"6X6X6X6X6X6X6X6X6X6X6X6X6X6X%X%Xk.3.5.{.=X&X&X&XV.3.3.}.=X=X=X=X$X'.'.*.c i.6X6X6X6X6X6X6X6X6X6X6X6X6X6X6X6X6X6X6X6X6X6X6X6X6X6X",
"6X6X6X6X6X6X6X6X6X6X6X6X6X6X%X=XXX{.{.%X%X&X%X&XXX{.{.%X=X=X=X=XN.d B t b p.6X6X6X6X6X6X6X6X6X6X6X6X6X6X6X6X6X6X6X6X6X6X6X6X6X6X",
"6X6X6X6X6X6X6X6X6X6X6X6X6X6X6X=X=X=X=X=X=X=X&X&X&X&X=X$X=X-X=Xm.@.H 6X6X6X6X6X6X6X6X6X6X6X6X6X6X6X6X6X6X6X6X6X6X6X6X6X6X6X6X6X6X",
"6X6X6X6X6X6X6X6X6X6X6X6X6X6X6X:X-X=X=X=X=X=X&X&X&X&X=X=X.XN.T.L m 4.6X6X6X6X6X6X6X6X6X6X6X6X6X6X6X6X6X6X6X6X6X6X6X6X6X6X6X6X6X6X",
"6X6X6X6X6X6X6X6X6X6X6X6X6X6X6X6X6X6X:X$X%X&X&X&X%X*X$X#Xn.t t a I 6X6X6X6X6X6X6X6X6X6X6X6X6X6X6X6X6X6X6X6X6X6X6X6X6X6X6X6X6X6X6X",
"6X6X6X6X6X6X6X6X6X6X6X6X6X6X6X6XI.^.5XoX@X&X&X&XOXL.L.L + 3 v.OX1XI.6X6X6X6X6X6X6X6X6X6X6X6X6X6X6X6X6X6X6X6X6X6X6X6X6X6X6X6X6X6X",
"6X6X6X6X6X6X6X6X6X6X6X6X6X6X6X6X1X!.2.) ;./.2XT.-.( ( { ' ' ) >.1.6X6X6X6X6X6X6X6X6X6X6X6X6X6X6X6X6X6X6X6X6X6X6X6X6X6X6X6X6X6X6X",
"6X6X6X6X6X6X6X6X6X6X6X6X6X6X6X6X5XU.  = i <.>X*.B t X c.J.C.X   w 6X6X6X6X6X6X6X6X6X6X6X6X6X6X6X6X6X6X6X6X6X6X6X6X6X6X6X6X6X6X6X",
"6X6X6X6X6X6X6X6X6X6X6X6X6X6X6X6XK.| o z M +.P...E.^.& z.S.C.+   J S.6X6X6X6X6X6X6X6X6X6X6X6X6X6X6X6X6X6X6X6X6X6X6X6X6X6X6X6X6X6X",
"6X6X6X6X6X6X6X6X6X6X6X6X6X6X6X6Xs / z.X.Z S ..Z =.2.z.~ w s z.c.` e 6X6X6X6X6X6X6X6X6X6X6X6X6X6X6X6X6X6X6X6X6X6X6X6X6X6X6X6X6X6X",
"6X6X6X6X6X6X6X6X6X6X6X6X6X6X6X6X  f >.S C S *.L M L >.&   & A.J.] O * 6X6X6X6X6X6X6X6X6X6X6X6X6X6X6X6X6X6X6X6X6X6X6X6X6X6X6X6X6X",
"6X6X6X6X6X6X6X6X6X6X6X6X6X6X6Xw 3 t Z C C +.g.X.C C C 5 % e C.Z.[ 3 3 6X6X6X6X6X6X6X6X6X6X6X6X6X6X6X6X6X6X6X6X6X6X6X6X6X6X6X6X6X",
"6X6X6X6X6X6X6X6X6X6X6X6X6X6X6XA.A.b.C C C Z F Z C Z A x.A.C.& X J A.A.6X6X6X6X6X6X6X6X6X6X6X6X6X6X6X6X6X6X6X6X6X6X6X6X6X6X6X6X6X",
"6X6X6X6X6X6X6X6X6X6X6X6X6X6Xf S.H.x.C C C P ;.L C C A v.J.Z.X   J H.H.{ 6X6X6X6X6X6X6X6X6X6X6X6X6X6X6X6X6X6X6X6X6X6X6X6X6X6X6X6X",
"6X6X6X6X6X6X6X6X6X6X6X6X6X] J } | >.f.f.<.1.!.<.e.f.f.,.| | ~ s ) | | / / 6X6X6X6X6X6X6X6X6X6X6X6X6X6X6X6X6X6X6X6X6X6X6X6X6X6X6X",
"6X6X6X6X6X6X6X6X6X6X6X6XK.G.Z.+   o.3X,X!.I.>XP.!.3X<Xd   4 A.H.]     | G.G.6X6X6X6X6X6X6X6X6X6X6X6X6X6X6X6X6X6X6X6X6X6X6X6X6X6X",
"6X6X6X6X6X6X6X6X6X6X6X6XK.G.Z.+   * p p q 6 p 6 q p i : O 3 A.H.|     | J.G.6X6X6X6X6X6X6X6X6X6X6X6X6X6X6X6X6X6X6X6X6X6X6X6X6X6X",
"6X6X6X6X6X6X6X6X6X6X6X6X) J ^ [ d , @ @ @ @ @ @ , l 0 : s } ^ ~ ) ] ] / J ^ 6X6X6X6X6X6X6X6X6X6X6X6X6X6X6X6X6X6X6X6X6X6X6X6X6X6X",
"6X6X6X6X6X6X6X6X6X6X6X6X.   % x.#.l ; > : ; @ @ 0 Z Z > _ b.X   J G.G.J     6X6X6X6X6X6X6X6X6X6X6X6X6X6X6X6X6X6X6X6X6X6X6X6X6X6X",
"6X6X6X6X6X6X6X6X6X6X6X6X* X * C C l : v 9 ; ; @ 0 C C , 9 z o . ( A.A.J . X 6X6X6X6X6X6X6X6X6X6X6X6X6X6X6X6X6X6X6X6X6X6X6X6X6X6X",
"6X6X6X6X6X6X6X6X6X6X6X6XC.Z.z.A C u : M M l ; @ 0 Z M , 9 M z ,.[ 4 4 [ v.6X6X6X6X6X6X6X6X6X6X6X6X6X6X6X6X6X6X6X6X6X6X6X6X6X6X6X",
"6X6X6X6X6X6X6X6X6X6X6X6X6XoXQ...C l ; M Z l ; @ 0 Z C , 9 Z C o.-.e.e.W.OX6X6X6X6X6X6X6X6X6X6X6X6X6X6X6X6X6X6X6X6X6X6X6X6X6X6X6X",
"6X6X6X6X6X6X6X6X6X6X6X6X6X6X'.C C l : x Z l ; @ , M C , 9 Z Z , O.`._..X:X6X6X6X6X6X6X6X6X6X6X6X6X6X6X6X6X6X6X6X6X6X6X6X6X6X6X6X",
"6X6X6X6X6X6X6X6X6X6X6X6X6X6X6X> l l : x C z ; @ : , M , 9 C M , 9 C 6 6X6X6X6X6X6X6X6X6X6X6X6X6X6X6X6X6X6X6X6X6X6X6X6X6X6X6X6X6X",
"6X6X6X6X6X6X6X6X6X6X6X6X6X6X6X: < < # , , > ; ; 6 6X, ; : , , ; : , ; 6X6X6X6X6X6X6X6X6X6X6X6X6X6X6X6X6X6X6X6X6X6X6X6X6X6X6X6X6X",
"6X6X6X6X6X6X6X6X6X6X6X6X6X6X6X6X# @ @ @ @ @ ; 6 6X6X6 : @ @ @ @ @ # 7 6X6X6X6X6X6X6X6X6X6X6X6X6X6X6X6X6X6X6X6X6X6X6X6X6X6X6X6X6X",
"6X6X6X6X6X6X6X6X6X6X6X6X6X6X6X6XI b d b b y 8 6X6X6X6X6 q b p , < 6 6X6X6X6X6X6X6X6X6X6X6X6X6X6X6X6X6X6X6X6X6X6X6X6X6X6X6X6X6X6X",
"6X6X6X6X6X6X6X6X6X6X6X6X6X6X6X6X,X,X,X,X,X<X6X6X6X6X6X6X>X,X,X<X>X>X6X6X6X6X6X6X6X6X6X6X6X6X6X6X6X6X6X6X6X6X6X6X6X6X6X6X6X6X6X6X",
"6X6X6X6X6X6X6X6X6X6X6X6X6X6X6X6X4X4X4X4X4X6X6X6X6X6X6X6X6X4X4X4X4X6X6X6X6X6X6X6X6X6X6X6X6X6X6X6X6X6X6X6X6X6X6X6X6X6X6X6X6X6X6X6X",
"6X6X6X6X6X6X6X6X6X6X6X6X6X6X6X6X X|.~.~.6X6X6X6X6X6X6X6XE.|.~.~.~.6X6X6X6X6X6X6X6X6X6X6X6X6X6X6X6X6X6X6X6X6X6X6X6X6X6X6X6X6X6X6X",
"6X6X6X6X6X6X6X6X6X6X6X6X6X6X6XS 9.&.S S 6X6X6X6X6X6X6X..$.u.F S O.6X6X6X6X6X6X6X6X6X6X6X6X6X6X6X6X6X6X6X6X6X6X6X6X6X6X6X6X6X6X6X",
"6X6X6X6X6X6X6X6X6X6X6X6X6X6X6X6X6X6X6X6X6X6X6X6X6X6X6X6X6X6X6X6X6X6X6X6X6X6X6X6X6X6X6X6X6X6X6X6X6X6X6X6X6X6X6X6X6X6X6X6X6X6X6X6X",
"6X6X6X6X6X6X6X6X6X6X6X6X6X6X6X6X6X6X6X6X6X6X6X6X6X6X6X6X6X6X6X6X6X6X6X6X6X6X6X6X6X6X6X6X6X6X6X6X6X6X6X6X6X6X6X6X6X6X6X6X6X6X6X6X",
"6X6X6X6X6X6X6X6X6X6X6X6X6X6X6X6X6X6X6X6X6X6X6X6X6X6X6X6X6X6X6X6X6X6X6X6X6X6X6X6X6X6X6X6X6X6X6X6X6X6X6X6X6X6X6X6X6X6X6X6X6X6X6X6X",
"6X6X6X6X6X6X6X6X6X6X6X6X6X6X6X6X6X6X6X6X6X6X6X6X6X6X6X6X6X6X6X6X6X6X6X6X6X6X6X6X6X6X6X6X6X6X6X6X6X6X6X6X6X6X6X6X6X6X6X6X6X6X6X6X",
"6X6X6X6X6X6X6X6X6X6X6X6X6X6X6X6X6X6X6X6X6X6X6X6X6X6X6X6X6X6X6X6X6X6X6X6X6X6X6X6X6X6X6X6X6X6X6X6X6X6X6X6X6X6X6X6X6X6X6X6X6X6X6X6X",
"6X6X6X6X6X6X6X6X6X6X6X6X6X6X6X6X6X6X6X6X6X6X6X6X6X6X6X6X6X6X6X6X6X6X6X6X6X6X6X6X6X6X6X6X6X6X6X6X6X6X6X6X6X6X6X6X6X6X6X6X6X6X6X6X",
"6X6X6X6X6X6X6X6X6X6X6X6X6X6X6X6X6X6X6X6X6X6X6X6X6X6X6X6X6X6X6X6X6X6X6X6X6X6X6X6X6X6X6X6X6X6X6X6X6X6X6X6X6X6X6X6X6X6X6X6X6X6X6X6X"
};
