/* XPM */
static char *e53b8e3d6e5d41bcf386046abcb4cd5e2UHPZUZajmrNxoJn[] = {
/* columns rows colors chars-per-pixel */
"32 32 87 1 ",
"  c #2A2E2C",
". c #2F332E",
"X c #2E3331",
"o c #313634",
"O c #353A36",
"+ c #383E37",
"@ c #363A39",
"# c #393E3C",
"$ c #3C423D",
"% c #40463F",
"& c #41483F",
"* c #3E4342",
"= c #414644",
"- c #444A46",
"; c #494D46",
": c #464A49",
"> c #494E4C",
", c #485047",
"< c #4C524D",
"1 c #51554F",
"2 c #4E5351",
"3 c #515653",
"4 c #545955",
"5 c #585B56",
"6 c #565B5A",
"7 c #595E5C",
"8 c #5C615D",
"9 c #5D6261",
"0 c #616664",
"q c #646966",
"w c #666B6A",
"e c #696E6C",
"r c #697067",
"t c #6D726E",
"y c #6D7272",
"u c #717574",
"i c #737974",
"p c #757B7A",
"a c #7A7E7D",
"s c #7C817E",
"d c #7E8280",
"f c #828684",
"g c #858986",
"h c #888B87",
"j c #878B8B",
"k c #888D8B",
"l c #8D908D",
"z c #8E9291",
"x c #909391",
"c c #969B9A",
"v c #9A9E9D",
"b c #9CA19C",
"n c #9EA3A1",
"m c #A1A6A5",
"M c #A3A8A6",
"N c #A5AAA9",
"B c #ACAEAC",
"V c #ADB2AF",
"C c #B0B5B4",
"Z c #B9BCB5",
"A c #BBBDBB",
"S c #BDC1BE",
"D c #C3C6C4",
"F c #C7CCC6",
"G c #C7CBCA",
"H c #CACECB",
"J c #CED3CE",
"K c #D1D4CC",
"L c #CED3D2",
"P c #D1D5D2",
"I c #D5D9D3",
"U c #D8DAD6",
"Y c #D7DBDA",
"T c #DADDDB",
"R c #DBE0DB",
"E c #DEE3E2",
"W c #E2E5E4",
"Q c #E4E8E4",
"! c #E6EBEA",
"~ c #E9EEEA",
"^ c #ECF1ED",
"/ c #F2F5EF",
"( c #EFF3F1",
") c #F3F6F4",
"_ c #F6F8F6",
"` c #F9FBF7",
"' c #FEFFFF",
/* pixels */
"7qwqww0q0099w055eyuiyeyyeeeyw907",
"<6676677463334<>6997699799699992",
">1=#*=>>:::>*:>:>64=232:>2==$=3>",
"<7*8nddjjjfdVzfhgkzBlxzfgauc7*5-",
";3=>pkVEUIESUFKUEKZTHWTYLCzu2=5:",
":<:O#pbL/_'UAU''_`UDW'(/LNp*@:3>",
",4-#o=ibP_)QxH'___HcW!~Gvp=X*:62",
",5=$$$=anF^)^~_^/~~^!THmp:*=*:62",
">>*#$<$-ibI^~Q^(_~~!WGcp:*>*#:2:",
"<4=#-,1=,dMF^(^()^!!PNa2:2>#*:3>",
">6:#=<16><fbLQ~!~WQDNa>>322=*:3:",
">6:#$,148<1gNPEWETGNf3>52::@@=3:",
":3:*:<:47047jMDEELNk63952=:**=2:",
">6>##:>785e77jMLLNj740732=#@@*>:",
">6:*;37998qy68jMNf64q8512>:***>=",
"29:*>679980ew69jj94wq5762>=***2=",
">6>*:66690wwwewyeey009773>:##==#",
"29>$:367000wwyy>:ey0q09962:$#*>;",
">6-#=366900www:*==qwq99942:*#$1;",
":5$#:>:2997ww=*>>*=0w7776===$$3;",
">1$+*:276900**>::>#=q8754,=+#&,;",
">1%#:336690=@2::-=:#=773<3<&+=31",
"15%#=23279*@>::=====##5731<=+&73",
";3*@=>>66#@=*:**%==*=o#76,,&$%5,",
"11=#=:23@X##*=***$*#$$.O11,&$$1<",
"67:@*33@ *##*@####@+##$.+32$+-76",
"47:o:>o @o@ooo@o@@oOo+O+..3-$-94",
"24=:>X @@o@Xoo#@@*@Oo$$$+ o<:=62",
"46===*>-:*:=#:>::42*<4<<2<**==14",
"675uuw059667q9669yyyryyye9ppe694",
"22351111>>22332:2694978794686742",
"#@O+O.#Ooo@@@@@o@**#***#**@*$###"
};
