/* XPM */
static char *result[] = {
/* columns rows colors chars-per-pixel */
"64 64 254 2 ",
"   c #030500",
".  c #050C01",
"X  c #0A0C01",
"o  c #050B08",
"O  c #110E01",
"+  c #061302",
"@  c #0B1401",
"#  c #0C1B01",
"$  c #0A1907",
"%  c #181706",
"&  c #121D02",
"*  c #0C1D17",
"=  c #131B13",
"-  c #221C06",
";  c #0E2302",
":  c #0E2B01",
">  c #0D2208",
",  c #132302",
"<  c #1A2402",
"1  c #142B02",
"2  c #1A2C02",
"3  c #13250C",
"4  c #142B0B",
"5  c #153303",
"6  c #1B3303",
"7  c #153B04",
"8  c #1C3B03",
"9  c #1C330C",
"0  c #1E3C0A",
"q  c #0D2B10",
"w  c #122313",
"e  c #172816",
"r  c #152B1B",
"t  c #1A3518",
"y  c #2B2405",
"u  c #272409",
"i  c #332A0A",
"p  c #233403",
"a  c #263707",
"s  c #233C03",
"d  c #2A3D03",
"f  c #233C0A",
"g  c #272916",
"h  c #332E14",
"j  c #23361B",
"k  c #3B361B",
"l  c #162824",
"z  c #1B2C23",
"x  c #1B3525",
"c  c #1D342B",
"v  c #1D3A28",
"b  c #172F30",
"n  c #1C3434",
"m  c #1E3A32",
"M  c #1A3738",
"N  c #1E3C3C",
"B  c #253725",
"V  c #22362C",
"C  c #223B2D",
"Z  c #343724",
"A  c #223C34",
"S  c #26383A",
"D  c #223D3B",
"F  c #423C23",
"G  c #1C4304",
"H  c #1D4708",
"J  c #1F550B",
"K  c #1C4318",
"L  c #234404",
"P  c #2A4403",
"I  c #244A05",
"U  c #2B4C04",
"Y  c #244409",
"T  c #2A450A",
"R  c #254C0A",
"E  c #2A4C0B",
"W  c #334B03",
"Q  c #344802",
"!  c #324D0A",
"~  c #255105",
"^  c #2B5305",
"/  c #2C5A05",
"(  c #25550B",
")  c #2C540B",
"_  c #2C5C0A",
"`  c #345404",
"'  c #3A5506",
"]  c #345B05",
"[  c #3C5C04",
"{  c #33540B",
"}  c #335C0B",
"|  c #3B5C0B",
" . c #294919",
".. c #334C17",
"X. c #2B5415",
"o. c #345715",
"O. c #2D6209",
"+. c #356305",
"@. c #3B6305",
"#. c #3D6B06",
"$. c #34620B",
"%. c #3B640B",
"&. c #366B09",
"*. c #3C6B0B",
"=. c #3D730B",
"-. c #3B760B",
";. c #366514",
":. c #3B6412",
">. c #3C6B12",
",. c #3C7014",
"<. c #1F4123",
"1. c #1E4433",
"2. c #254826",
"3. c #22432E",
"4. c #2F542B",
"5. c #234334",
"6. c #254A34",
"7. c #24433C",
"8. c #294739",
"9. c #254B3B",
"0. c #2A4B3E",
"q. c #2B5335",
"w. c #2A533B",
"e. c #2A563A",
"r. c #35593A",
"t. c #33653A",
"y. c #3D7235",
"u. c #415C07",
"i. c #436404",
"p. c #436B05",
"a. c #4B6806",
"s. c #42640B",
"d. c #436C0B",
"f. c #4B6D0B",
"g. c #516E0D",
"h. c #4A7506",
"j. c #42720A",
"k. c #4B740C",
"l. c #447A0C",
"z. c #4B7B0C",
"x. c #54780A",
"c. c #537C0B",
"v. c #436B13",
"b. c #466A14",
"n. c #457313",
"m. c #4B7413",
"M. c #4B7C13",
"N. c #477719",
"B. c #547B16",
"V. c #46762C",
"C. c #243F40",
"Z. c #293E41",
"A. c #244443",
"S. c #294643",
"D. c #264A43",
"F. c #2B4B44",
"G. c #284649",
"H. c #264B4C",
"J. c #2A4D4D",
"K. c #314948",
"L. c #2B5344",
"P. c #2E5C43",
"I. c #265148",
"U. c #2C534C",
"Y. c #2E5C4C",
"T. c #325647",
"R. c #325C44",
"E. c #31544D",
"W. c #325C4D",
"Q. c #2A4F51",
"!. c #384C53",
"~. c #2C5453",
"^. c #285554",
"/. c #2D5B53",
"(. c #2D5B5A",
"). c #325554",
"_. c #325B54",
"`. c #335C5A",
"'. c #3A5958",
"]. c #2F614B",
"[. c #336345",
"{. c #366944",
"}. c #32634C",
"|. c #39664D",
" X c #356B4C",
".X c #396D4C",
"XX c #3E7746",
"oX c #3B724D",
"OX c #2E6154",
"+X c #2E625A",
"@X c #336353",
"#X c #3A6453",
"$X c #356B53",
"%X c #396B55",
"&X c #33635B",
"*X c #39635D",
"=X c #356A5C",
"-X c #396C5B",
";X c #3A7253",
":X c #3B725C",
">X c #345F61",
",X c #336362",
"<X c #3C6462",
"1X c #376B62",
"2X c #396B62",
"3X c #3A6C68",
"4X c #377063",
"5X c #397362",
"6X c #424C52",
"7X c #425A59",
"8X c #437A48",
"9X c #46685A",
"0X c #447456",
"qX c #51725B",
"wX c #485A65",
"eX c #486367",
"rX c #4C736C",
"tX c #4E8106",
"yX c #4B840D",
"uX c #53840D",
"iX c #5B840C",
"pX c #5A8A0C",
"aX c #5B940E",
"sX c #4D8314",
"dX c #4E8418",
"fX c #538313",
"gX c #558B15",
"hX c #5A8B14",
"jX c #578519",
"kX c #5A8B1B",
"lX c #5C9313",
"zX c #5A9417",
"xX c #638A0A",
"cX c #65960D",
"vX c #739A0E",
"bX c #628A13",
"nX c #638B1A",
"mX c #639414",
"MX c #669C15",
"NX c #67991A",
"BX c #5DA013",
"VX c #68A517",
"CX c #6CA41B",
"ZX c #74A81B",
"AX c #79B31D",
"SX c #4E8322",
"DX c #5A8724",
"FX c #5E9121",
"GX c #6B9823",
"HX c #6B992F",
"JX c #6EA229",
"KX c #77A823",
"LX c #84B61D",
"PX c #89BC28",
/* pixels */
"$X&X&X$X-X-X@XY.J.S.D F.J.K.G.Q.U.~.)._._._.&X)._.).E.E.E.E.r.w.w.q.K.~.U.H.J.Q.!.).'.~.>X(.^.~.~.(._._.W.@X#X#X%X&X&X+X(.+X+X&X",
"-X=X=X$X=X=X@X@XW._._.J.J.S.Z.J.J.J.Y.`.&X&X=X_.E.E.E.E.6.6.2.E I ] u.o. .5.G.H.Z.S.Q.Q.(.(.~.~.~.~./.).W.#X%X%X%X#X/.`.,X,X1X=X",
"2X1X=X(.&X@X$X*X%X:X%XE.D S S D U.(.(.@X=X&X&X/.T.J.E.K.2.,.>.O.=.m.f.g.o.F.Q.Q.K.W.E.U.Q.Q.Q.~.~.^.(.E.`._.`.>X&X&X~.^.(.(.&X&X",
",X,X&X(.`._.@X-X%XeX:X:X#XE.E._.&X&X@X=X].[.4.o.X. .4...| M.M.s.k.fXm.g.:.t._.'.#X#XW.(.^.Q.^.Q.~.~.~.~.~.~.(.(.~.^.^.`.(.,X(.(.",
"&X,X`.+X_._._.%X*X-X5X5X5X2X*X2X4X=X=X1X4.$.h.h.j.&.] W u.i.| bXx.kXFXB.N.V.V.r.@X#X_.(.&X_.W._.Y.Q.J.~.~.^.(.(.~.>X(.2X3X3X,X>X",
"&X&X<X&X).).E._.@X#X2X5X5X5X4X2X=X=X:X5Xy.h.cXyXpXzX=.U ' E v.JXnXm.V.B.DXHXHXnXXX=X&X&X@X_.E.E.E.J.).~.Q.Q.Q.^.>X,X>X2X3X1X&X(.",
"2X*X2X&X)._.)._._.E._.%X1X4X-X:X:X-X0X8XSXl.aXaXj.=.p.` ` P ) b.v.E %.g.b.V.V.V.t.=X$X&X&X_.Q.G.G.J.Q.Q.Q.Q.).^.(.>X>X2X2X&X&X*X",
"2X*X&X*X@X_.@X_._._.&X=X=X1X=X4X:X8XdXVXVXaXVXBX=.&.@.@.U 8 %.:.:.' ) b.' g.a...q.W.@X&X=X_._.~.~.U.).G.J.Q.Q.Q.^.Q.^.^.`.&X<X2X",
")._._.`.`.`._._._.@X&X=X=X:X=X4X:XSXCXVXVXBXpXyXp.] ] P ' { N.JXGXg.6 H | B.B.b.d  .2.w.1X=X_._._._.&X~.H.Q.J.H.H.H.H.U.~.)._._.",
"~.~.).).).~.~.~./.&X=X&XOXOXw.q.2.O.-.pXtXh.pX#.[ [ Q ! NXkXb.JXGXnX@.L R v.N.o.T | T <.c L.6.v W.#X_.~.G.H.G.H.G.Q.~.~.~.~.~.~.",
"~.~.G.Q.J.~.).`._._.&X_.5.1.t G H ^ c.aXpXh./ ] pXbXNXk.x.l.>.DXkXjXu.X.( ! o.R ( o.)  .7 ( f q L.T.W.Y.~._.U.~.~.&X~.J.J.).).~.",
").J.).'.).Q.`.~.~.~.~.J. ._ ;.J +.@.aXcXtX^ 8 #.CXPXKXd.s.| _ >.GX%.H ,.E :.B.b.v.:.) gXgXyXU t S.U.U./.&X:X:X3X3X1X&X~.J.J.J.H.",
"!.'.'.'.'.~.~.~.~.J.F.2.R } { d.#.+.&.h.i.i.@.&.a.bXmXj.jXs.6 v.%.) 5 H ) N.DXv.N.M.} kXCXhX%.U  .2.7.W.#X#X2X4X4X4X3XeX'.!.6XS.",
"9X9X<X'.(.~.).~.L.4.H 1 f X.E lXuXj.O.h.xXpXgX-.-.sX&.O.@.6 , P I I ' Q L X.o.Y m.fXO.jXhXhXx.$.+.} ..R.W.|.%X*X=X4X4XrXeX9XwX6X",
"qX0X#X'.`.'.).J.4.o.H 1 t C o.MXgX#.#.iXcXpXCXuXaXVXgX+.s ~ $.$.O.n.l.g.s.H H f d ! _ $.jXdX` $.O.H H e.|.|.$X-X:X=X;X:X;XqX9X9X",
"[.}.@X'.'.'.`.~.3.H f s 9 e , ) %.h.pXz.VXCXvXvXxXc.xXa.@.z.hXl.d.B.m.k.f.:.dXN.U 1 H $.sXd.8 H ;.: t ].%X$X-X:X-X$X;X;XXXXX8Xy.",
"|.|.#X#X'.'.).E.5.t t 8 1 1 _ m.NXZXZXMXVXMXvXLXCXi.x.i.i.h.#.f.iXc.kXkXb.m.B.b.' 4 , L ! ^ : 1 I U 9 L.$X}.@X#XY.U. X}..X8XXXXX",
"E.).'.'.'._.~.(.J.t v j E R &.zXCXVXMXcXuXl.uXNXgXuXaX-.` @.^ gXNXfXM.M.fXFXGXGXN.( 1 2 d 7 5 q Y T t e.@X}.}.|.T.T.W._.|.W.T.W.",
"E.'.).).~.Q.Q.~.~.3.w.r.kXl._ =.j.xXx.h.pX+.@.$.U j.l.p.[ ] G &.B.:.} *.f.m.dXdXN.( R , a f 5 $ e 4 t Y.T.W.E.T.Y.Y.W.'.!.E.U.E.",
"E.).(.`.~.G.A.A.J.G.8.t { | { j.cXvXxX#.^ p.NXCXgXO.+.[ [ P G / } ` U *.u.] f.} H 5 f , , 1 6 3 5.8.q.U.J.U.U.J.F.U.J.J.Q.J.Q.E.",
"^.OX+X^.H.C.N A.A.A.o.] I [ [ i.cXMXh./ ] uXCXKXfX^ ` ^ U ^ ^ gXNXhX$.G I p.c.x.U , ; 6 T 5 ; w F.W.@XW._.U.J.C.A.A.J.U.G.).).~.",
"(.^.+X+X^.Y.}.}.].I.t ( +.iXxX+.#.j.+.O.j.xXNXMXgX/ [ @.z.lX*.M.CXkXz./ 8 ^ x.m.{ L ' { n.>.Y Y 4.q.T.@X&X_.'.!.K.6XW.#X_._.+X(.",
"^.+X/.^.^.OX X X.X.X3.L h.cXpXuXuXc.j.yX&.@.lXgX&.&.#.l.pXhX*.N.hXgXx.] H 6 ` ) ~ _ fXv.%.>.>.>.M.m.o.[.&X_.7XE.eX9X0X9X%X:X=XOX",
"/.^.^.^.OXOX$X$X@Xt.v.iXuXpXCXVXcXvXj.-./ I l.sX&.tXVXCXgX[ *._ sXgX` ^ &.U d.j.} $.N.| Y R ) $.*.>.>.t.-X*X-X-X-X-X%X%X%X;X$X/.",
"OXOXOXOX}. X X$XXXkXAXAXVXVXlXMXZXAXz.^ L G +.@.h.cXLXLXfXz.fX%.N.d.H G O.^ [ ` *.fXM.} 9 R { 8 _ L K P.5X:X:X5X:X-X$X#X#X|.%X_.",
"oXoX$X XW.}.}.}.y.MXMXMXaXiXtXj.uXlXj.~ P U @.-.tXZXCXAXsXsXhX! s I H _ L s 5 G z.gXzXmXN.8 0 Y :.| E R.:X5X4X=X$XoX.X X_.W.%X.X",
"oX X X X}.[.W.L.0 ] z.pXp.c.j.] %.*.*.G P +.] yX@.c.ZXgX=.*.! < & 6 I ] ` U 6 ^ &.#.l.=.$.H < 6 %.:.X.e.oX;X$X X X X X@X|..X.X.X",
"}.}.$X].W.E.Y.L.0 k.vXvXh./ G k.NXCXz.I U U $.j.~ @.NXkXO.*.] I 1 1 G ^ z.M.=.+.` @.f.[ ) L 7 6 p f 0 e.{.;X.X X].OXOX&X@X|.}.|.",
"].}.@X@X]./.E.0.R m.mXbX] I } bXGXKXd.M.hXU { ^ I ~ a.i.d.hXd.) ;.{ | { jXJXmX#.^ d.c.B.E 6 ( 8 s T T T j t..X}.W./.Y.@XW.W.W.W.",
"W.@X}.@XY.5.2.s.+._ j.@.^ / a.bXkXnX>.n.B.! Q Q p P u.a.iXd.%.&.d.B.kX&.B.NXbXB.] ^ d.%.L 1 Y s 6 U ! ^ E X..X[.}.].]./.Y._.@XW.",
"Y.W.}.Y.P.o.m.z.k.k.d.] } N.I s.GX,._ } Q T Y | mXM.+.u.f.a.M.GXB.u.| _ >.sXkXs._ _ ) R 0 & @ ; p , 1 6 : t {..X$XOX@X/.W.Y.W.W.",
"_.OXOXY.1.<.E %.^ ' P : ) _ : ^ m.n.R ^ [ d.^ %.hXsX[ W I +.hXmXkXv.^ ~ } fXM.L ( >.{ | T 6 < + & # p p , <.{.[. X XY.]./.Y.@X/.",
"OXOXOXOXG.w p [ 6 L s ; G H 7 8 a Y E f.d.M.,._ &.p.x.i.L ^ #.j.j.} G I } | ] 7 G ( } B.v.X.8 + + + p P a e e.{. X@X].@XOXOXOXOX",
"OX].Y.].1.9 u.f.P @ . T m.B.) + # 2 R :.n.fXj.} / ` [ ] ^ #.p.tXx.*.2 1 R 6 6 G I ) ;.;.;.9 + + ; 1 < 1 , 3.[.{.}.@X_.OXY.OXOX-X",
"$XOX}.Y.D.j ! ! <.w 2 a.b.B.T 0 } v.$.M.zXjXbXbX[ ] U uXaX#.] uXpXz.d 8 H 0 6 Y E 0 o.T 9 8 : 7 I L U < q 6.[.[. X#X9X_.].].@X$X",
"=X=X=XOXY.z t r D.7 6 u.%.} :.N.dXM.M.,.=.m.NXCXp.u.[ cXVX&.I ] d.) 5 o.DXM.) 1 1 Y v.:.R 0 8 L U 8 L 6 f R.}.Y.@XY.@X$X-X&X&X-X",
"=X&X=X=X-XR.R.P.1.R # 1 +.^ H _ $.;._ $.) L } } I s U ` #.l./ L { $.E E nXB.m.T , 5 o.:.T # ! [ U _ ^ 7 ^ X.2.9.Y.U.Y.$X@XOX=X-X",
"&X=X<X<X2X#X_.Y.<.t * $ s L , L | } L } I E $.&.^ 6 ^ ` s _ &.R f s.{ ) N.N.m.T 7 6 2 f 6 , :.v.U I I ^ / } _  .I.I.~.~.U.U.(.-X",
"*X<X<X'.`.`.`._.L.e 9 , 2 , 6 j.M.n.L 1 L fXZXKX} U U 2 , 8 } ) 1 1 s Y X.N.! 4 _ 5 < f 2 & 9 f , : 8 8 I I G K D./.*X*X*X*X`.`.",
"H.~.>X~.(.'.`.*Xr.E ] ^ ^ G 6 | d.) 1 6 d.mXCXNX} yXz.s L T f.o.7 L f 1 { { p # 9 6 # & @ , 5 : # # 6 , 6 d ; v _.<X*X_.`.`._.U.",
"F.J./._.&X*X*X&X1.4 1 8 1 8 8 s P 1 ; H } hXgXM.) @.E 6 d ) _ E 1 p & $ 1 6 < @ @ @ . . # ; *.n.] 1 $ # P ' P r '.2X&X~._.eXwX).",
"<X@X`.@X*X<X<X*XD.w 2 s # 1 1 L U L ^ ) 6 %.aX$.U p 6 ; @ I ) ; , # ; : 1 2 , 2 < & # L ^ : } m.| T q r 9 T a c ~.>X&X&X<XeXeX'.",
"&X&X+X&X&X&X'./.c 2 P P , + + P *.| 0 6 1 U $.} L 1 5 1 X 2 6 , @ , 1 6 p p s 5   & < s s 1 ) _ | d ; r l w w m `.&X&X`.+X&X=X&X",
"&X&X&X+X`.(.Q.H.D 3 p 4 m 3 2 [ { #.6 7 L 6 2 6 8 L 2 1 # < & . . < @ P [ L I P # 1 ; + @ , 4 ) Y @ 1 f 7.T.r.U.&X,X&X&X&X&X&X&X",
"/././.^.(.~.U.U.D.r r x C : & P ^ L ; 5 I L 8 / _ d W < @ 6 6 .   & @ R } s 5 1 8 P 8 @ @ @ 1 f 6 o w t S.`.`._.`.+X+XOX+X&X+X/.",
"Y././.I.U.J.H.Q.Q.7.U.S.r 1 . & I G 8 +.+.+./ I I U a.s @ $ & @ @ X . @ # + + 6 , 1 8 @ * w @ r B x H.Q.~.`.).~.(.OXOX/././././.",
"/.Y.I.U.~.H.H.H.H.H.H.A.r $   @ & 1 G G I I 8 5 ; 2 Y ,   . . . .   + 0 0 5 @ & # 2 d 2 z A.m 9.~./.`.`.(.~.~.Y.OXOXOXY.Y.^./.OX",
"/.Y.U.U.I.Q.H.Q.^.I.Q.~.G.w & , , . + , s # 5 1 + $ # ;     .   @ , @ { d.' 2 # . 2 P d # 9.OXOX_.}._.(.^.~.U././.OXOX^.Y.Y././.",
"~.U.^.Q.Q.).Q.H.H.Y.U.L.F.9 d P 2 o , P U 2 @ . 1 ^ %.Y . + @ X a W 4 E u.' Q % . X < & . x ].}.}.}.$X`._.~././.OX/./.Y.I.~./.Q.",
"Q.Q.).wXwX'.^.H.H.~.U.U.L.j 2 6 C = % d d # . # Q | f.9 1 d % X O & , g T ! < $ > . @ % r 1.Y.].}.@X_._.).(.`.Y.Y.(.~.U.^.~.Q.H.",
"Q.(.~.).(.U.OXOX@XW.Y.W.[.B j 2.q.3 + & @   $ , Q ! ! f < d u & %   & ,  .a   $ a * r 8.6X5.I.^.U./.~.)._._._.P.W./.~.~.Q.^.H.D.",
"J.^.^.(.OXOX=X=X&X}.U.R. Xt.{.8X6.9 t j 3 $ 2 $ % ! f $ & X @ y %   X % 3 %   o * l m 7.7.N A.H.H.G.N G.~._.&X_.Y._.~.J.Q.H.H.A.",
"(.OXOX+X=X=X=X=X+XOXY.Y.Y.Y.].@X1.x q.q.2.e $   X p p % % % y y %   O X = l * l m N N N N N N N A.N A.C.A.(.`.`.>X`.U.G.A.C.A.G.",
"^.OX&X,X+X+X+X(.OXOXY.Y.@X]././. X[.e.e.e.5.v w = t % % i y y y -   O O l n n b m N N N N N C.N N N N H.G.`.>X<XeXeX'.~.H.H.Q.^.",
"(.^.~.^.^.^.^.^.^.^.OX$X$X X}.e.e.q.w.I.D.9.1.5.m m % - k i i y -   % O = S S b n M N N M M N N N A.H.^.^.(.`.>XeX>X>X`.(.~.^.^.",
"^.~.~.^.^.^.H.H.H.^.$XoX XoX X[.q.6.1.1.A.N m 1.3.x h y k i i y i   - - X = b b n D D 1.A.N N C.N N H.(.(.`.`.`.(.(.`.~.~.^.Q.^.",
"~.^.^.^.~././.Y.Y.]..X X X[.[.e.w.6.w.7.1.N 3.3.V Z - - k i h y h X O - %   = z V S 7.7.7.A.A.D C.N A.).~.(.(.~.~.`.@X(.).~.^.~.",
"(.^.~.U.Y.}.].Y.]. X}. Xt.e.w.e.q.9.e.9.5.3.3.x = g = h k i k - h % = g g = z V 8.8.7.7.D.A.A.C.C.A.G.J.'.).).7X7XeX9X#X_.E.~.~.",
"_.W.Y.I.Y.}.}.OX].}. X X|.L.w.w.[.L.9.5.3.6.5.v V x B F - h F % g u l V V V V D 8.7.7.7.7.S.A.C.D.D.F.J.U.~.#X9X9X9X*X|.'.`.)._.",
"@X}.].OXOX}.}.].].}. X.X9X#XP.9.W.0.8.5.6.6.6.3.C j Z g O F F = g h = V V C C A 5.A 5.5.8.7.8.0.0.0.T.@XU.U._._.@X#X_.7X#X@X%X-X",
"@X@XW.}. X}.].}.[.}.[.|.%X}.W.F.L.0.F.T.F.5.5.5.C B V c g k h z c B g z c C C A A A 5.A 5.6.F.F.K.0._.=X&X/./.^./._._._.|.#X%X%X",
"}.W.W.P.Y.W.].].Y.W.R.W._.'._.T.K.7.L.T.D.7.D 7.5.A A B Z z z z A n c c c A 5.7.A.9.A.D.0.7.7.F.F.F.Y./././.Y.Y.Y.W.|.}.W.#X#X$X",
"Y.].W.Y.Y.~.Y.Y.Y.U.U.U.Y.).U.J.F.F.S.D 7.7.D D A A B Z C A n z m n n m A D D A.G.A.A.A.A.F.9.A.G.D.D.F.W.R.}.}.@X}.@XW.P.}.}.W.",
"}.].}.}.@X@XW.Y.Y.F.Z.Z.A.~.U.F.S.D F.D.S m m S D D V S S A D S M N D M D N Z.K.!.G.A.A.A.D.G.A.A.D.D.T.W.@X$X-X%X=X=X(././.P.]."
};
